<svg version="1.1" xmlns="http://www.w3.org/2000/svg" xmlns:xlink="http://www.w3.org/1999/xlink" width="833" height="580.08907" viewBox="0,0,833,580.08907"><defs><linearGradient x1="-76" y1="190.00007" x2="75.5" y2="190.00007" gradientUnits="userSpaceOnUse" id="color-1"><stop offset="0" stop-color="#000000"/><stop offset="1" stop-color="#000000" stop-opacity="0"/></linearGradient><linearGradient x1="432.5" y1="188.00007" x2="586.75" y2="188.00007" gradientUnits="userSpaceOnUse" id="color-2"><stop offset="0" stop-color="#000000" stop-opacity="0"/><stop offset="1" stop-color="#000000"/></linearGradient></defs><g transform="translate(158.75,100.50141)"><g data-paper-data="{&quot;isPaintingLayer&quot;:true}" fill-rule="nonzero" stroke-linejoin="miter" stroke-miterlimit="10" stroke-dasharray="" stroke-dashoffset="0" style="mix-blend-mode: normal"><g fill="#f0f0f0" stroke="none" stroke-width="0" stroke-linecap="butt"><path d="M-158.75,479.58766v-577h251v577z"/><path d="M380.25,456.58766v-557h294v557z"/><path d="M-154.75,475.58766v-235h823v235z"/></g><path d="M30.25,22.58765v-123h621v123z" fill="#f0f0f0" stroke="none" stroke-width="0" stroke-linecap="butt"/><path d="" fill="#ffffff" stroke="none" stroke-width="0" stroke-linecap="butt"/><path d="" fill="none" stroke="#000000" stroke-width="3.5" stroke-linecap="butt"/><path d="M93.42505,239.17518v-217h286v217z" fill="none" stroke="#ececec" stroke-width="4" stroke-linecap="butt"/><path d="M-76,474.00007v-568h151.5v568z" data-paper-data="{&quot;index&quot;:null}" fill="url(#color-1)" stroke="none" stroke-width="0" stroke-linecap="butt"/><path d="M-126.5,467.49863v-566h191.17857v566z" data-paper-data="{&quot;index&quot;:null}" fill="#f9f9f9" stroke="none" stroke-width="0" stroke-linecap="butt"/><path d="M432.5,472.00008v-568h154.25v568z" fill="url(#color-2)" stroke="none" stroke-width="0" stroke-linecap="butt"/><path d="M442.58929,465.49859v-566h195.91071v566z" fill="#f9f9f9" stroke="none" stroke-width="0" stroke-linecap="butt"/><path d="M461.52575,234.87376l-0.5345,-188.6785" fill="#000000" stroke="#f0f0f0" stroke-width="28" stroke-linecap="round"/><path d="M453.8138,22.24928c-0.48825,0 -0.95115,-0.07609 -1.38867,-0.22828c-0.43752,-0.15219 -0.82115,-0.3646 -1.15089,-0.63726c-0.32339,-0.27266 -0.56118,-0.58654 -0.71335,-0.94163c-0.07609,-0.15852 -0.07609,-0.30436 0,-0.43752c0.08243,-0.1395 0.21877,-0.22828 0.40899,-0.26632c0.1395,-0.0317 0.27266,-0.00951 0.39948,0.06658c0.13316,0.06976 0.23462,0.17755 0.30436,0.32339c0.08877,0.19023 0.23778,0.3646 0.44703,0.52313c0.20925,0.15852 0.45972,0.28851 0.75141,0.38997c0.29802,0.09512 0.6119,0.14267 0.94163,0.14267c0.36144,0 0.69434,-0.05707 0.9987,-0.1712c0.31071,-0.11413 0.558,-0.279 0.74189,-0.4946c0.19023,-0.21559 0.28535,-0.48191 0.28535,-0.79896c0,-0.40582 -0.15852,-0.76726 -0.47557,-1.08431c-0.31071,-0.31705 -0.82432,-0.51361 -1.54085,-0.58971c-0.93846,-0.08877 -1.67718,-0.3646 -2.21617,-0.8275c-0.53898,-0.46288 -0.80847,-1.03358 -0.80847,-1.71205c0,-0.50094 0.1395,-0.92578 0.41851,-1.27453c0.279,-0.34875 0.65946,-0.6119 1.14137,-0.78945c0.48191,-0.18389 1.01773,-0.27583 1.60743,-0.27583c0.46288,0 0.86554,0.0634 1.20795,0.19023c0.34875,0.12682 0.64995,0.30436 0.90358,0.53264c0.25998,0.22828 0.48509,0.49776 0.67531,0.80847c0.10146,0.16486 0.14267,0.32339 0.12365,0.47557c-0.01268,0.14584 -0.08561,0.25998 -0.21877,0.34241c-0.1395,0.08877 -0.29486,0.1078 -0.46606,0.05707c-0.16486,-0.05073 -0.28851,-0.14901 -0.37094,-0.29486c-0.12048,-0.22193 -0.2695,-0.40899 -0.44703,-0.56118c-0.1712,-0.15219 -0.37412,-0.2695 -0.60873,-0.35193c-0.23462,-0.08877 -0.51045,-0.13316 -0.8275,-0.13316c-0.56434,-0.00634 -1.03674,0.09828 -1.41721,0.31387c-0.37412,0.21559 -0.56118,0.54532 -0.56118,0.98919c0,0.22828 0.05707,0.44703 0.1712,0.65629c0.12048,0.20925 0.33608,0.38997 0.64677,0.54215c0.31705,0.15219 0.77042,0.25681 1.36014,0.31387c0.90042,0.08877 1.6011,0.3646 2.10202,0.8275c0.50728,0.45655 0.76092,1.05894 0.76092,1.80717c0,0.43118 -0.08877,0.8053 -0.26632,1.12235c-0.17755,0.31705 -0.41533,0.58654 -0.71335,0.80847c-0.29802,0.21559 -0.64044,0.37729 -1.02724,0.48509c-0.38045,0.10146 -0.7736,0.15219 -1.17941,0.15219zM459.38248,22.13514c-0.16486,0 -0.30436,-0.0539 -0.41851,-0.1617c-0.1078,-0.11413 -0.1617,-0.25364 -0.1617,-0.41851v-5.05057c0,-0.17755 0.0539,-0.31705 0.1617,-0.41851c0.11413,-0.1078 0.25364,-0.1617 0.41851,-0.1617c0.17755,0 0.31705,0.0539 0.41851,0.1617c0.1078,0.10146 0.1617,0.24096 0.1617,0.41851v5.05057c0,0.16486 -0.0539,0.30436 -0.1617,0.41851c-0.10146,0.1078 -0.24096,0.1617 -0.41851,0.1617zM459.38248,14.91596c-0.20292,0 -0.38045,-0.07292 -0.53264,-0.21877c-0.14584,-0.15219 -0.21877,-0.32972 -0.21877,-0.53264c0,-0.20292 0.07292,-0.37729 0.21877,-0.52313c0.15219,-0.15219 0.32972,-0.22828 0.53264,-0.22828c0.20292,0 0.37729,0.07609 0.52313,0.22828c0.15219,0.14584 0.22828,0.32022 0.22828,0.52313c0,0.20292 -0.07609,0.38045 -0.22828,0.53264c-0.14584,0.14584 -0.32022,0.21877 -0.52313,0.21877zM462.71707,21.91638l-0.77993,-0.67531l3.86164,-5.09812l0.76092,0.67531zM462.37466,22.13514c-0.35509,0 -0.53264,-0.17755 -0.53264,-0.53264c0,-0.35509 0.17755,-0.53264 0.53264,-0.53264h3.87115c0.35509,0 0.53264,0.17755 0.53264,0.53264c0,0.35509 -0.17755,0.53264 -0.53264,0.53264zM462.26052,16.98946c-0.35509,0 -0.53264,-0.17755 -0.53264,-0.53264c0,-0.35509 0.17755,-0.53264 0.53264,-0.53264h3.87115c0.35509,0 0.53264,0.17755 0.53264,0.53264c0,0.35509 -0.17755,0.53264 -0.53264,0.53264zM470.94318,22.1827c-0.62776,0 -1.18576,-0.13316 -1.67401,-0.39948c-0.48825,-0.27266 -0.87188,-0.64361 -1.15089,-1.11283c-0.27266,-0.47557 -0.40899,-1.02089 -0.40899,-1.63596c0,-0.62141 0.12998,-1.16674 0.38997,-1.63596c0.25998,-0.47557 0.62141,-0.84651 1.08431,-1.11283c0.46288,-0.27266 0.99236,-0.40899 1.58841,-0.40899c0.59604,0 1.10332,0.12998 1.52183,0.38997c0.42484,0.25998 0.74823,0.62141 0.97016,1.08431c0.22828,0.45655 0.34241,0.98285 0.34241,1.57889c0,0.14584 -0.05073,0.26632 -0.15219,0.36144c-0.09512,0.09512 -0.21877,0.14267 -0.37094,0.14267h-4.575v-0.91309h4.53695l-0.46606,0.32339c-0.00634,-0.38045 -0.08243,-0.7197 -0.22828,-1.01773c-0.1395,-0.29802 -0.34241,-0.53264 -0.60873,-0.70384c-0.26632,-0.17755 -0.58971,-0.26632 -0.97016,-0.26632c-0.43118,0 -0.79896,0.09512 -1.10332,0.28535c-0.30436,0.18389 -0.53898,0.4407 -0.70384,0.77042c-0.15852,0.32972 -0.23778,0.70384 -0.23778,1.12235c0,0.41851 0.09512,0.78945 0.28535,1.11283c0.19023,0.32339 0.45021,0.58019 0.77993,0.77042c0.33608,0.19023 0.7197,0.28535 1.15089,0.28535c0.23462,0 0.47557,-0.04122 0.72287,-0.12365c0.24729,-0.08877 0.44703,-0.19023 0.59922,-0.30436c0.11413,-0.08243 0.23778,-0.12682 0.37094,-0.13316c0.13316,-0.00634 0.24729,0.03488 0.34241,0.12365c0.12682,0.1078 0.1934,0.23144 0.19974,0.37094c0.01268,0.13316 -0.04755,0.25047 -0.18071,0.35193c-0.25364,0.20292 -0.57386,0.37094 -0.96066,0.5041c-0.38045,0.12682 -0.74506,0.19023 -1.09382,0.19023z" fill="#232323" stroke="none" stroke-width="1" stroke-linecap="square"/></g></g></svg>