<svg version="1.1" xmlns="http://www.w3.org/2000/svg" xmlns:xlink="http://www.w3.org/1999/xlink" width="726" height="387" viewBox="0,0,726,387"><g transform="translate(123,-154.85885)"><g data-paper-data="{&quot;isPaintingLayer&quot;:true}" fill="#f9f9f9" fill-rule="nonzero" stroke="none" stroke-linecap="butt" stroke-linejoin="miter" stroke-miterlimit="10" stroke-dasharray="" stroke-dashoffset="0" style="mix-blend-mode: normal"><path d="M-122.04237,451.91434v-296.3541h158.67822v296.3541z" stroke-width="0"/><path d="M445.94944,400.8928v-244.16829h151.88007v244.16829z" stroke-width="0"/><path d="M477.56147,155.17874l-0.05964,56.33948v3.24271h-3.61309c-155.98712,0 -311.97757,0 -467.97132,0c-1.15797,0 -2.31594,0.04022 -3.47889,0.06034v-59.64252h173.94984v13.45348h130.21016v-13.45348zM239.257,181.26623c-62.18611,0 -124.37721,-0.01173 -186.57326,-0.03519c-3.71331,-0.10699 -7.29644,1.38821 -9.85522,4.11247c-3.82182,3.94153 -4.11503,8.58187 -2.48493,13.42834c1.44127,4.26832 6.68445,7.73726 11.08278,7.73726c125.04814,0 250.09295,-0.00838 375.13448,-0.02514c4.74124,0 8.40402,-2.5439 10.51621,-6.62116c4.69651,-9.07959 -2.06745,-18.63177 -11.26168,-18.63177c-62.18281,0.06033 -124.36892,0.07207 -186.55835,0.03519z" stroke-width="1"/><path d="M28.10643,541.85885v-328h570v328z" stroke-width="0"/><path d="M-123,173.85885v-19h726v19z" stroke-width="0"/></g></g></svg>