<svg version="1.1" xmlns="http://www.w3.org/2000/svg" xmlns:xlink="http://www.w3.org/1999/xlink" width="15.76392" height="13.93032" viewBox="0,0,15.76392,13.93032"><g transform="translate(-240.37101,-168.47695)"><g data-paper-data="{&quot;isPaintingLayer&quot;:true}" fill="#232323" fill-rule="nonzero" stroke="none" stroke-width="0.31919" stroke-linecap="butt" stroke-linejoin="miter" stroke-miterlimit="10" stroke-dasharray="" stroke-dashoffset="0" style="mix-blend-mode: normal"><path d="M240.37102,180.63185c0.00808,-0.00056 0.01593,-0.00111 0.02403,-0.00167c0.16347,-0.01271 0.32508,-0.04134 0.48114,-0.09282c0.10834,-0.03598 0.21317,-0.08225 0.31228,-0.13844c0.06836,-0.03858 0.13403,-0.08207 0.19649,-0.12928c0.04252,-0.03233 0.08348,-0.06638 0.12317,-0.10201c0.28335,-0.25522 0.48315,-0.58623 0.66166,-0.91924c0.03304,-0.06167 0.06545,-0.12351 0.09746,-0.18557c0.05176,-0.09938 0.10313,-0.19896 0.15516,-0.29818c0.03282,-0.06222 0.06605,-0.12428 0.09966,-0.18598c0.10331,-0.18685 0.21247,-0.37049 0.33558,-0.54485c0.15108,-0.21372 0.3223,-0.41294 0.51582,-0.58949c0.05948,-0.05418 0.12095,-0.10617 0.18412,-0.15589c0.05961,-0.04688 0.12059,-0.09136 0.18523,-0.13118c0.11253,-0.06917 0.23251,-0.12605 0.3557,-0.17304c0.16631,-0.06324 0.33947,-0.10865 0.51477,-0.13752c0.52332,-0.08662 1.0735,-0.02927 1.56068,0.18411c0.19576,0.08569 0.38046,0.19614 0.54857,0.3281c0.11428,0.08981 0.22092,0.18921 0.31917,0.29656c0.06097,0.06652 0.12002,0.13535 0.17065,0.21022c0.07405,0.10965 0.13281,0.22914 0.18013,0.35252c0.10043,0.26102 0.15071,0.54089 0.16298,0.8199c0.02574,0.58265 -0.11793,1.17218 -0.41552,1.67436c-0.20443,0.34499 -0.47987,0.64396 -0.80121,0.88327c-0.48233,0.35924 -1.05522,0.58045 -1.64005,0.7058c-0.35044,0.07532 -0.70905,0.11375 -1.06766,0.10434c-0.37094,-0.0098 -0.74021,-0.07154 -1.09324,-0.18675c-0.51982,-0.16936 -0.99716,-0.45103 -1.41368,-0.80337c-0.18147,-0.15356 -0.3517,-0.31983 -0.51067,-0.49631c-0.07186,-0.07973 -0.14129,-0.16187 -0.20888,-0.24529l-0.02707,-0.03405l-0.00647,-0.00821z" data-paper-data="{&quot;index&quot;:null}"/><path d="M245.49886,175.87679c0,0 1.92684,-1.93829 3.20422,-3.19593c1.00082,-1.00686 2.11069,-1.89892 3.30907,-2.65954c1.52017,-0.96745 3.35516,-1.9299 3.94929,-1.38752c0.4893,0.44665 -0.1313,1.7724 -0.92819,3.09706c-0.96406,1.58087 -2.16061,3.00784 -3.54955,4.2325c-1.29273,1.14793 -3.09786,2.75134 -3.09786,2.75134c-0.01431,-0.1134 -0.03378,-0.22597 -0.05835,-0.33745c-0.07252,-0.32931 -0.19115,-0.65126 -0.36672,-0.94007c-0.04512,-0.07385 -0.09377,-0.14563 -0.14653,-0.2143c-0.05127,-0.06672 -0.10643,-0.13083 -0.16278,-0.19332c-0.10753,-0.11867 -0.22218,-0.23072 -0.34401,-0.33477c-0.24154,-0.2059 -0.51037,-0.37967 -0.79791,-0.51443c-0.31978,-0.15011 -0.66152,-0.25137 -1.01067,-0.30355z" data-paper-data="{&quot;index&quot;:null}"/></g></g></svg>