<svg version="1.1" xmlns="http://www.w3.org/2000/svg" xmlns:xlink="http://www.w3.org/1999/xlink" width="12.96469" height="14.18361" viewBox="0,0,12.96469,14.18361"><g transform="translate(-233.55222,-182.90666)"><g data-paper-data="{&quot;isPaintingLayer&quot;:true}" fill-rule="nonzero" stroke-width="1" stroke-linecap="butt" stroke-linejoin="miter" stroke-miterlimit="10" stroke-dasharray="" stroke-dashoffset="0" style="mix-blend-mode: normal"><path d="M241.5211,195.57571c-1.01905,1.51857 -2.49767,0.8592 -3.79645,0.93913c-0.11989,0 -0.35966,-0.15985 -0.37964,-0.25976c-0.15985,-1.4986 -1.63847,-2.01811 -2.29785,-3.13707c-0.41961,-0.71933 -0.81923,-1.51858 -0.9591,-2.33782c-0.17983,-1.07899 0.3197,-1.53856 1.43866,-1.71839c0.15985,-0.01998 0.29972,-0.07992 0.57945,-0.13987c-0.43959,-1.09897 -0.89916,-2.138 -1.25883,-3.17703c-0.49954,-1.47861 0.27973,-2.61755 1.53856,-2.27787c0.47955,0.11989 0.93912,0.57945 1.25883,1.01904c0.35967,0.45958 0.51953,1.05901 0.79926,1.65845c0.85919,-0.37965 1.65845,-0.15985 2.51764,-0.05994c1.15892,0.11989 2.11802,0.29972 3.23698,0.73931c1.63846,0.65938 1.77834,0.37964 1.8183,2.17796c0.03996,1.79832 -0.19981,3.49673 -1.43866,4.93539c-0.3197,0.35967 -0.33968,0.97908 -0.49953,1.47862c-0.09991,0.35967 -0.15985,0.97908 -0.3197,0.99907c-0.47955,0.07992 -1.01904,-0.00001 -1.51858,-0.1199c-0.2198,-0.09991 -0.39963,-0.41961 -0.71933,-0.71933zM237.08525,190.22072c-0.09991,0.03996 -0.21979,0.09991 -0.3197,0.13987c-0.15985,-0.09991 -0.3197,-0.2198 -0.47955,-0.27974c-0.35967,-0.11989 -0.85919,-0.35966 -1.03903,-0.21979c-0.27973,0.19981 -0.49954,0.73931 -0.43959,1.07898c0.13986,0.61943 0.43958,1.25883 0.81923,1.75836c0.73931,0.99907 1.57853,1.93819 2.37778,2.89729c0.09991,0.11989 0.25976,0.25976 0.39963,0.25976c0.89916,0.01998 1.87824,0.29972 2.51764,-0.71933c0.41961,-0.65938 0.89916,-0.53949 1.35873,0.03996c0.2198,0.27973 0.53949,0.45957 0.81923,0.71933c0.3197,-0.89916 0.39963,-1.75836 0.8592,-2.27787c1.25883,-1.47861 1.47861,-3.15704 1.37871,-4.95537c-0.01998,-0.37965 -0.27974,-0.73931 -0.41961,-1.09897c-0.27973,0.23978 -0.55948,0.47955 -0.83922,0.71933c-0.09991,0.07992 -0.2198,0.13987 -0.45958,0.27974c-0.11989,-0.39963 -0.13986,-0.77928 -0.3197,-1.03903c-0.23978,-0.33969 -0.55948,-0.73931 -0.91914,-0.81923c-0.19981,-0.03996 -0.57945,0.45957 -0.79925,0.77927c-0.17983,0.25976 -0.2198,0.61943 -0.3197,0.93913c-0.11989,0 -0.2198,0 -0.33969,0c-0.07992,-0.37965 -0.0999,-0.81924 -0.27973,-1.11895c-0.2198,-0.33969 -0.57945,-0.69934 -0.93912,-0.77927c-0.17983,-0.03996 -0.55948,0.47955 -0.73931,0.81923c-0.15985,0.3197 -0.15985,0.71933 -0.2198,1.09897c-0.09991,0.01998 -0.19982,0.01999 -0.27974,0.03996c-0.11989,-0.29972 -0.25975,-0.59944 -0.35966,-0.91914c-0.33969,-0.93912 -0.59944,-1.89822 -1.05901,-2.7774c-0.15985,-0.3197 -0.77927,-0.39963 -1.19888,-0.57946c-0.09991,0.41961 -0.37964,0.87918 -0.27974,1.21886c0.25976,0.9591 0.71933,1.85827 1.03903,2.79739c0.17983,0.6394 0.3197,1.31876 0.47954,1.99813z" fill="#232323" stroke="#232323"/><path d="M237.08525,190.22072c-0.15985,-0.67936 -0.27973,-1.37871 -0.51951,-2.03809c-0.3197,-0.93912 -0.7593,-1.83828 -1.03903,-2.79738c-0.09991,-0.35967 0.17983,-0.81924 0.27973,-1.21886c0.41961,0.17983 1.03903,0.25975 1.19888,0.57945c0.45958,0.87918 0.71933,1.83829 1.05902,2.7774c0.11989,0.29972 0.23977,0.59944 0.35966,0.91914c0.09991,-0.01998 0.19982,-0.01998 0.27974,-0.03996c0.05994,-0.35967 0.05994,-0.77927 0.2198,-1.09897c0.15985,-0.33969 0.55948,-0.8592 0.73931,-0.81924c0.35967,0.07992 0.71934,0.43958 0.93912,0.77927c0.19981,0.3197 0.19981,0.73931 0.27974,1.11895c0.11989,0 0.2198,0 0.33969,0c0.09991,-0.3197 0.13986,-0.67937 0.3197,-0.93912c0.19981,-0.3197 0.59944,-0.81923 0.79925,-0.77927c0.35967,0.07992 0.67937,0.47955 0.91914,0.81923c0.17983,0.25976 0.19981,0.6394 0.3197,1.03903c0.23978,-0.15985 0.35967,-0.19981 0.45958,-0.27974c0.27973,-0.23978 0.55948,-0.47955 0.83921,-0.71933c0.13986,0.35967 0.39963,0.73931 0.41961,1.09897c0.09991,1.79832 -0.11989,3.47675 -1.37871,4.95537c-0.45958,0.53949 -0.5395,1.3987 -0.8592,2.27787c-0.29972,-0.23978 -0.59944,-0.43959 -0.81924,-0.71933c-0.45958,-0.55948 -0.93912,-0.67937 -1.35873,-0.03996c-0.6394,1.01905 -1.61849,0.73931 -2.51765,0.71933c-0.13986,0 -0.29972,-0.13987 -0.39962,-0.25976c-0.79925,-0.9591 -1.63847,-1.87824 -2.37778,-2.89729c-0.37965,-0.51952 -0.65938,-1.13894 -0.81923,-1.75836c-0.07992,-0.3197 0.15985,-0.8592 0.43959,-1.07899c0.17983,-0.13986 0.67936,0.11989 1.03903,0.2198c0.17983,0.05994 0.3197,0.17983 0.47955,0.27974c0.13986,0 0.25976,-0.03996 0.35966,-0.09991zM241.30131,190.1408c-0.77927,0.73931 -0.73931,3.09711 0,3.73651c0,-1.25883 0,-2.41774 0,-3.73651zM242.71998,190.06087c0,1.3987 0,2.55761 0,3.85639c0.69934,-0.71933 0.71933,-2.95723 0,-3.85639zM239.18329,190.26068c0,1.25883 0,2.39776 0,3.69655c0.71933,-0.81923 0.67936,-3.11709 0,-3.69655z" fill="#ffffff" stroke="none"/><path d="M241.30131,190.1408c0,1.29879 0,2.47769 0,3.73651c-0.73931,-0.6394 -0.77927,-2.99721 0,-3.73651z" fill="#232323" stroke="none"/><path d="M242.71998,190.06087c0.71933,0.89916 0.69934,3.13707 0,3.85639c0,-1.29879 0,-2.45771 0,-3.85639z" fill="#232323" stroke="none"/><path d="M239.18329,190.26068c0.65938,0.57945 0.69934,2.87732 0,3.69655c0,-1.29879 0,-2.43773 0,-3.69655z" fill="#232323" stroke="none"/></g></g></svg>