<svg version="1.1" xmlns="http://www.w3.org/2000/svg" xmlns:xlink="http://www.w3.org/1999/xlink" width="13.78748" height="14.12976" viewBox="0.25,0.2501,13.78748,14.12976"><g transform="translate(-232.64293,-183.78289)"><g data-paper-data="{&quot;isPaintingLayer&quot;:true}" fill-rule="nonzero" stroke-width="1" stroke-linecap="butt" stroke-linejoin="miter" stroke-miterlimit="10" stroke-dasharray="" stroke-dashoffset="0" style="mix-blend-mode: normal"><path d="M241.5951,196.56935c-1.02774,1.62067 -2.52983,0.94869 -3.83427,0.98821c-0.13834,0 -0.33599,-0.25694 -0.43481,-0.43482c-0.31623,-0.47434 -0.5534,-1.00797 -0.8894,-1.46255c-1.00797,-1.34397 -2.05548,-2.64841 -3.04369,-3.99239c-0.47434,-0.65222 -0.71152,-1.40326 -0.13835,-2.09501c0.59293,-0.73128 1.3835,-0.59292 2.17407,-0.27669c0.11859,0.03952 0.23717,0.07905 0.57316,0.19764c-0.29647,-0.73128 -0.53364,-1.28468 -0.73128,-1.83808c-0.11859,-0.33599 -0.23718,-0.67199 -0.33599,-1.02774c-0.19764,-0.81034 -0.13835,-1.52186 0.73128,-1.91714c0.84986,-0.37552 1.46256,0 1.9369,0.67199c0.13834,0.17788 0.25693,0.37552 0.43481,0.63245c0.35575,-0.84986 0.15812,-1.95666 1.34397,-2.13455c0.94869,-0.15812 1.69972,0.09882 2.03572,1.04751c2.01595,-0.6127 2.33219,-0.35576 2.80653,2.11478c0.05929,0 0.13834,0.01977 0.17788,0c0.53364,-0.39529 1.08703,-0.8301 1.77878,-0.39529c0.69175,0.43481 0.6127,1.1068 0.47434,1.75902c-0.2767,1.44279 -0.49411,2.92511 -0.8894,4.34814c-0.19764,0.71151 -0.71152,1.30443 -1.04751,1.99618c-0.25693,0.5534 -0.45458,1.14634 -0.65222,1.7195c-0.11859,0.33599 -0.15812,0.96845 -0.29647,0.98821c-0.49411,0.07906 -1.02774,0 -1.50208,-0.15812c-0.23717,-0.05929 -0.39529,-0.43481 -0.67199,-0.73128zM243.84824,189.71114c-0.09882,-0.01977 -0.19764,-0.01977 -0.2767,-0.03953c-0.05929,-0.29647 -0.15812,-0.57316 -0.15812,-0.86963c-0.01977,-0.69175 0.01977,-1.3835 0.01977,-2.07525c0,-0.6127 0,-1.30444 -0.79057,-1.36374c-0.7708,-0.05929 -0.90916,0.59293 -0.96845,1.22538c-0.05929,0.75105 -0.11858,1.50208 -0.19764,2.25313c-0.01977,0.23717 -0.15812,0.47434 -0.23718,0.71152c-0.09882,0 -0.19763,-0.01977 -0.31623,-0.01977c-0.05929,-0.29647 -0.13835,-0.59293 -0.15812,-0.86963c-0.01977,-0.92892 0,-1.83808 -0.03953,-2.767c-0.01977,-0.6127 0.01977,-1.34397 -0.8894,-1.36373c-0.96845,-0.01977 -0.94869,0.75104 -0.96845,1.40326c-0.01977,0.8894 0.01977,1.77878 0.01977,2.66818c0,0.31623 -0.07905,0.65222 -0.11858,0.96845c-0.09882,0.01977 -0.19764,0.01977 -0.29647,0.03953c-0.11859,-0.2767 -0.21741,-0.5534 -0.33599,-0.8301c-0.33599,-0.92892 -0.59293,-1.87761 -1.02775,-2.74723c-0.17788,-0.33599 -0.75104,-0.45458 -1.14633,-0.69175c-0.11859,0.45458 -0.35576,0.92893 -0.33599,1.38351c0.03952,0.47434 0.33599,0.90915 0.51387,1.3835c0.29647,0.86963 0.59293,1.73926 0.84987,2.62865c0.05929,0.19764 -0.07906,0.45458 -0.11859,0.69175c-0.21741,-0.11859 -0.45458,-0.19764 -0.63245,-0.35576c-0.33599,-0.29647 -0.57317,-0.7708 -0.96845,-0.94869c-0.41505,-0.19764 -0.94868,-0.11859 -1.42302,-0.15812c0.03952,0.47434 -0.07905,1.08704 0.15812,1.40326c1.1068,1.50208 2.33218,2.92512 3.49828,4.36791c0.09882,0.11859 0.2767,0.23717 0.29647,0.39529c0.11859,0.71151 0.5534,0.92892 1.20562,0.8301c0.5534,-0.09882 1.24516,-0.07905 1.64044,-0.39529c0.96845,-0.79057 0.88939,-0.84986 1.8776,0.0593c0.15812,0.13834 0.41505,0.2767 0.59293,0.25693c0.11859,-0.01977 0.2174,-0.33599 0.27669,-0.53364c0.13834,-0.47434 0.11859,-1.06727 0.41505,-1.38351c1.28467,-1.44279 1.56138,-3.22158 1.85784,-5.00036c0.11859,-0.67199 0.2767,-1.34397 0.35575,-2.03572c0.01977,-0.19764 -0.15812,-0.5534 -0.33599,-0.6127c-0.17788,-0.05929 -0.53363,0.09882 -0.65222,0.2767c-0.2767,0.39529 -0.47434,0.84987 -0.71151,1.28468c-0.15812,0.23717 -0.31623,0.53363 -0.47434,0.8301z" fill="#232323" stroke="#232323"/><path d="M243.84824,189.71114c0.15812,-0.29647 0.31623,-0.59293 0.47434,-0.88939c0.23717,-0.43481 0.41505,-0.8894 0.71152,-1.28468c0.11859,-0.17788 0.47434,-0.33599 0.65222,-0.27669c0.15812,0.05929 0.35576,0.41505 0.33599,0.61269c-0.05929,0.69175 -0.23717,1.36374 -0.35576,2.03573c-0.31623,1.77878 -0.57316,3.55757 -1.85784,5.00036c-0.29647,0.31623 -0.25693,0.92892 -0.41505,1.3835c-0.05929,0.19764 -0.15811,0.49411 -0.2767,0.53364c-0.17788,0.03952 -0.43481,-0.09882 -0.59293,-0.25693c-0.96845,-0.90915 -0.90915,-0.84986 -1.8776,-0.05929c-0.39529,0.31623 -1.08704,0.29647 -1.64044,0.39529c-0.65222,0.11859 -1.08704,-0.11859 -1.20562,-0.8301c-0.01977,-0.13834 -0.19764,-0.25693 -0.29646,-0.39529c-1.18586,-1.44279 -2.39147,-2.86583 -3.49828,-4.36791c-0.23717,-0.33599 -0.11859,-0.92892 -0.15812,-1.40326c0.47434,0.03952 1.00798,-0.01977 1.42303,0.15812c0.39529,0.17788 0.63245,0.65222 0.96845,0.94869c0.17788,0.15812 0.41505,0.23717 0.63245,0.35575c0.03952,-0.23717 0.17788,-0.49411 0.11859,-0.69175c-0.25693,-0.8894 -0.5534,-1.75903 -0.84986,-2.62865c-0.15812,-0.47434 -0.47434,-0.90915 -0.51387,-1.3835c-0.03952,-0.45458 0.19764,-0.90915 0.33599,-1.3835c0.39529,0.21741 0.96845,0.35575 1.14633,0.69175c0.43481,0.86963 0.69175,1.83808 1.02774,2.74724c0.09882,0.2767 0.21741,0.5534 0.33599,0.8301c0.09882,-0.01977 0.19764,-0.01977 0.29646,-0.03953c0.03952,-0.31623 0.11859,-0.65222 0.11859,-0.96845c0,-0.8894 -0.05929,-1.77878 -0.01977,-2.66818c0.01977,-0.65222 0,-1.42303 0.96845,-1.40326c0.92892,0.01977 0.86962,0.75105 0.88939,1.36373c0.03952,0.92892 0.01977,1.83808 0.03953,2.767c0,0.29647 0.09882,0.59293 0.15812,0.86963c0.09882,0 0.19764,0.01977 0.31623,0.01977c0.07906,-0.23717 0.19764,-0.47434 0.23717,-0.71152c0.07906,-0.75105 0.13835,-1.50208 0.19764,-2.25313c0.05929,-0.63245 0.19764,-1.28467 0.96845,-1.22538c0.79057,0.05929 0.79057,0.75105 0.79057,1.36373c0,0.69175 -0.03953,1.3835 -0.01977,2.07525c0,0.29647 0.09882,0.57316 0.15812,0.86962c0.09882,0.07906 0.19764,0.07906 0.2767,0.09883zM240.86383,194.90914c0.19764,0 0.37552,0 0.57316,0c0,-1.06727 0,-2.1543 -0.01977,-3.22158c0,-0.07906 -0.15812,-0.2174 -0.25693,-0.23717c-0.09882,-0.01977 -0.29646,0.09882 -0.29646,0.15811c-0.01977,1.1068 0,2.2136 0,3.30064zM243.09719,191.43063c-0.11859,0 -0.21741,0.01977 -0.33599,0.01977c0,1.14633 0,2.29266 0,3.43899c0.11859,0 0.21741,0 0.33599,0c0,-1.14633 0,-2.29265 0,-3.45875zM239.26292,195.10678c0.69175,-0.84986 0.65222,-3.06347 0,-3.75522c0,1.26492 0,2.41125 0,3.75522z" fill="#ffffff" stroke="none"/><path d="M240.86383,194.90914c0,-1.1068 0,-2.19384 0.01977,-3.30063c0,-0.05929 0.19764,-0.17788 0.29647,-0.15811c0.09882,0.01977 0.25693,0.15811 0.25693,0.23717c0.01977,1.06727 0.01976,2.1543 0.01976,3.22158c-0.21741,0 -0.41504,0 -0.59292,0z" fill="#232323" stroke="none"/><path d="M243.09719,191.43063c0,1.14633 0,2.29265 0,3.43899c-0.11859,0 -0.21741,0 -0.33599,0c0,-1.14633 0,-2.29265 0,-3.43899c0.11859,0.01977 0.21741,0.01977 0.33599,0z" fill="#232323" stroke="none"/><path d="M239.26292,195.10678c0,-1.34397 0,-2.4903 0,-3.75522c0.65222,0.69175 0.67199,2.90535 0,3.75522z" fill="#232323" stroke="none"/></g></g></svg>