<svg version="1.1" xmlns="http://www.w3.org/2000/svg" xmlns:xlink="http://www.w3.org/1999/xlink" width="12.10273" height="12.18505" viewBox="0,0,12.10273,12.18505"><g transform="translate(-235.15175,-169.09497)"><g data-paper-data="{&quot;isPaintingLayer&quot;:true}" fill="#232323" fill-rule="nonzero" stroke="none" stroke-width="1" stroke-linecap="butt" stroke-linejoin="miter" stroke-miterlimit="10" stroke-dasharray="" stroke-dashoffset="0" style="mix-blend-mode: normal"><path d="M243.93203,178.21961c0,0 -1.80211,2.02458 -2.39104,2.68621c-0.34509,0.38769 -1.35927,0.52085 -1.86688,0.17379c-0.68242,-0.4666 -1.39971,-0.92533 -1.53709,-1.03663l-2.55461,-2.07c-0.49882,-0.40419 -0.57552,-1.13622 -0.17133,-1.63504l5.51998,-6.81229c0.40423,-0.49884 1.13625,-0.57554 1.63507,-0.17134l4.25768,3.44999c0.49882,0.40419 0.57553,1.13623 0.17133,1.63505zM236.91099,177.01268l2.12884,1.72501c0,0 1.07756,0.94764 1.51558,0.90174c0.4795,-0.05025 1.24823,-1.19136 1.24823,-1.19136l1.45145,-1.79124l-3.65556,-2.96211z"/></g></g></svg>