<svg version="1.1" xmlns="http://www.w3.org/2000/svg" xmlns:xlink="http://www.w3.org/1999/xlink" width="18.962" height="18.77156" viewBox="0,0,18.962,18.77156"><g transform="translate(-240.12608,-162.88443)"><g data-paper-data="{&quot;isPaintingLayer&quot;:true}" fill="#232323" fill-rule="nonzero" stroke="#ffffff" stroke-width="0.5" stroke-linecap="butt" stroke-linejoin="miter" stroke-miterlimit="10" stroke-dasharray="" stroke-dashoffset="0" style="mix-blend-mode: normal"><path d="M252.80786,165.85288l1.5041,-1.661c0,0 0.84487,-1.21178 1.65844,-1.30745c0.71932,-0.08459 2.86188,2.05836 2.86768,2.78136c0.00444,0.55241 -0.76768,1.23776 -0.76768,1.23776l-2.15795,1.96869z"/><path d="M240.65066,181.08977l2.34615,-5.73077c0,0 8.08195,-5.57475 8.52825,-5.22875c0.63008,0.48849 -5.3744,8.49798 -5.3744,8.49798z"/><path d="M246.27089,178.24504c0,0 0.04817,-0.62074 -0.37239,-0.89125c-0.36335,-0.23371 -1.19103,0.13565 -1.43695,-0.11293c-0.22772,-0.23018 0.13939,-0.92844 -0.11756,-1.30563c-0.3593,-0.52744 -0.92959,-0.80276 -0.92959,-0.80276l10.58719,-10.70279l3.19304,3.26641z"/><path d="M240.6153,181.12824l1.23796,-2.98846l1.54786,1.57871z"/></g></g></svg>