<svg version="1.1" xmlns="http://www.w3.org/2000/svg" xmlns:xlink="http://www.w3.org/1999/xlink" width="58.06876" height="25.16305" viewBox="0,0,58.06876,25.16305"><g transform="translate(-210.96562,-167.41848)"><g data-paper-data="{&quot;isPaintingLayer&quot;:true}" fill-rule="nonzero" stroke-linejoin="miter" stroke-miterlimit="10" stroke-dasharray="" stroke-dashoffset="0" style="mix-blend-mode: normal"><path d="M268.78438,184.65567c0,2.03602 -0.80788,3.98761 -2.24903,5.42683c-1.43922,1.44114 -3.39081,2.24903 -5.42683,2.24903c-11.0187,0 -31.19834,0 -42.21704,0c-2.03602,0 -3.98761,-0.80788 -5.42683,-2.24903c-1.44114,-1.43922 -2.24903,-3.39081 -2.24903,-5.42683c0,-6.68951 0,-2.62182 0,-9.31133c0,-2.03602 0.80788,-3.98761 2.24903,-5.42683c1.43922,-1.44114 3.39081,-2.24903 5.42683,-2.24903c11.0187,0 31.19834,0 42.21704,0c1.40446,0 2.76874,0.38441 3.95238,1.09593c0.53227,0.31996 1.02801,0.70606 1.47445,1.1531c1.44114,1.43922 2.24903,3.39081 2.24903,5.42683c0,6.68951 0,2.62182 0,9.31133z" fill="#171717" stroke="#2c2c2c" stroke-width="0.5" stroke-linecap="butt"/><path d="M220.17062,184.46115c-0.59731,0 -1.1604,-0.11199 -1.68926,-0.33598c-0.52264,-0.23021 -0.97996,-0.54754 -1.37194,-0.95196c-0.38576,-0.40443 -0.69064,-0.8773 -0.91463,-1.4186c-0.21777,-0.54131 -0.32665,-1.12928 -0.32665,-1.76392c0,-0.62219 0.10888,-1.20083 0.32665,-1.73592c0.22399,-0.54131 0.52886,-1.01418 0.91463,-1.4186c0.39198,-0.40443 0.84618,-0.72175 1.36261,-0.95196c0.52264,-0.23021 1.08884,-0.34532 1.69859,-0.34532c0.57242,0 1.06395,0.07466 1.4746,0.22399c0.41687,0.1431 0.83375,0.38576 1.25062,0.72797c0.056,0.04355 0.09955,0.09022 0.13066,0.13999c0.03733,0.04978 0.06222,0.09955 0.07466,0.14933c0.01244,0.04355 0.01867,0.09955 0.01867,0.16799c0,0.1431 -0.05289,0.26132 -0.15866,0.35465c-0.09955,0.09333 -0.22088,0.14622 -0.36398,0.15866c-0.13688,0.00622 -0.27377,-0.04044 -0.41065,-0.13999c-0.27377,-0.24265 -0.55687,-0.4262 -0.8493,-0.55064c-0.29243,-0.12444 -0.6813,-0.18666 -1.16661,-0.18666c-0.43554,0 -0.84618,0.09022 -1.23195,0.27065c-0.38576,0.17422 -0.72797,0.41687 -1.02662,0.72797c-0.29243,0.3111 -0.51953,0.67508 -0.6813,1.09196c-0.16177,0.41065 -0.24265,0.84929 -0.24265,1.31594c0,0.47909 0.08088,0.92396 0.24265,1.33461c0.16177,0.41065 0.38887,0.77152 0.6813,1.08262c0.29865,0.3111 0.64086,0.55686 1.02662,0.7373c0.38576,0.17422 0.79641,0.26133 1.23195,0.26133c0.37954,0 0.7373,-0.06533 1.07328,-0.19599c0.3422,-0.13066 0.66886,-0.3111 0.97996,-0.54131c0.13066,-0.09955 0.26133,-0.1431 0.39199,-0.13066c0.13066,0.01244 0.23954,0.06533 0.32665,0.15866c0.09333,0.09333 0.13999,0.22088 0.13999,0.38265c0,0.07466 -0.01555,0.14933 -0.04666,0.22399c-0.03111,0.06844 -0.07466,0.13066 -0.13066,0.18666c-0.40443,0.31732 -0.83685,0.55998 -1.29728,0.72797c-0.4542,0.16177 -0.93329,0.24265 -1.43727,0.24265zM226.27191,184.34915c-0.32976,0 -0.6222,-0.08711 -0.8773,-0.26132c-0.24888,-0.18044 -0.44487,-0.42309 -0.58797,-0.72797c-0.13688,-0.3111 -0.20533,-0.66886 -0.20533,-1.07329v-6.08507c0,-0.16177 0.04978,-0.29554 0.14933,-0.40131c0.10577,-0.10577 0.23954,-0.15866 0.40131,-0.15866c0.16799,0 0.30177,0.05289 0.40132,0.15866c0.10577,0.10577 0.15866,0.23954 0.15866,0.40131v6.08507c0,0.27377 0.04978,0.50087 0.14933,0.68131c0.10577,0.18044 0.24265,0.27065 0.41065,0.27065h0.27999c0.1431,0 0.26132,0.05289 0.35465,0.15866c0.09333,0.09955 0.13999,0.23021 0.13999,0.39198c0,0.16799 -0.07155,0.30488 -0.21466,0.41065c-0.13688,0.09955 -0.31732,0.14933 -0.54131,0.14933zM230.68975,184.39582c-0.61597,0 -1.1635,-0.13067 -1.64259,-0.39199c-0.47909,-0.26754 -0.85552,-0.63153 -1.12929,-1.09195c-0.26754,-0.46665 -0.40131,-1.00173 -0.40131,-1.60526c0,-0.60975 0.12755,-1.14484 0.38265,-1.60526c0.2551,-0.46665 0.60975,-0.83063 1.06395,-1.09195c0.4542,-0.26754 0.97373,-0.40131 1.5586,-0.40131c0.58486,0 1.08262,0.12755 1.49327,0.38265c0.41687,0.2551 0.73419,0.60975 0.95196,1.06396c0.22399,0.44798 0.33599,0.9644 0.33599,1.54926c0,0.1431 -0.04978,0.26132 -0.14933,0.35465c-0.09333,0.09333 -0.21466,0.14 -0.36399,0.14h-4.48913v-0.89596h4.45181l-0.45731,0.31732c-0.00622,-0.37332 -0.08089,-0.70619 -0.22399,-0.99862c-0.13688,-0.29243 -0.33598,-0.52265 -0.5973,-0.69064c-0.26132,-0.17422 -0.57865,-0.26132 -0.95196,-0.26132c-0.42309,0 -0.78396,0.09333 -1.08262,0.27999c-0.29865,0.18044 -0.52886,0.43243 -0.69064,0.75597c-0.15555,0.32354 -0.23333,0.69064 -0.23333,1.10128c0,0.41065 0.09333,0.77463 0.27999,1.09196c0.18666,0.31732 0.44176,0.5693 0.7653,0.75596c0.32976,0.18666 0.70619,0.27999 1.12928,0.27999c0.23021,0 0.46665,-0.04044 0.7093,-0.12133c0.24265,-0.08711 0.43865,-0.18666 0.58797,-0.29865c0.11199,-0.08088 0.23332,-0.12444 0.36398,-0.13066c0.13066,-0.00622 0.24266,0.03422 0.33599,0.12133c0.12444,0.10577 0.18977,0.2271 0.19599,0.36399c0.01244,0.13066 -0.04667,0.24577 -0.17733,0.34532c-0.24888,0.1991 -0.56309,0.36399 -0.94262,0.49465c-0.37332,0.12444 -0.73108,0.18666 -1.07329,0.18666zM237.06956,184.39582c-0.54131,0 -1.02973,-0.13378 -1.46527,-0.40132c-0.42931,-0.27377 -0.76841,-0.64397 -1.01728,-1.11062c-0.24888,-0.46665 -0.37332,-0.9924 -0.37332,-1.57726c0,-0.58486 0.13377,-1.11062 0.40131,-1.57726c0.27377,-0.47287 0.64086,-0.84307 1.10129,-1.11062c0.46665,-0.27377 0.9924,-0.41065 1.57726,-0.41065c0.57864,0 1.09817,0.13688 1.5586,0.41065c0.46043,0.26754 0.82441,0.63775 1.09195,1.11062c0.27377,0.46665 0.41065,0.9924 0.41065,1.57726h-0.43865c0,0.58486 -0.12444,1.11062 -0.37332,1.57726c-0.24888,0.46665 -0.58797,0.83685 -1.01729,1.11062c-0.42931,0.26754 -0.91463,0.40132 -1.45594,0.40132zM237.29355,183.38785c0.37332,0 0.7093,-0.09022 1.00796,-0.27065c0.29865,-0.18044 0.53198,-0.42931 0.69997,-0.74664c0.17422,-0.31732 0.26132,-0.67197 0.26132,-1.06396c0,-0.3982 -0.08711,-0.75596 -0.26132,-1.07328c-0.16799,-0.31732 -0.40131,-0.5662 -0.69997,-0.74664c-0.29865,-0.18044 -0.63464,-0.27065 -1.00796,-0.27065c-0.37332,0 -0.71241,0.09022 -1.01729,0.27065c-0.29865,0.18044 -0.53509,0.42931 -0.7093,0.74664c-0.17422,0.31732 -0.26133,0.67508 -0.26133,1.07328c0,0.39198 0.08711,0.74664 0.26133,1.06396c0.17422,0.31732 0.41065,0.5662 0.7093,0.74664c0.30488,0.18044 0.64397,0.27065 1.01729,0.27065zM239.78544,184.35848c-0.16177,0 -0.29865,-0.05289 -0.41065,-0.15866c-0.10577,-0.10577 -0.15866,-0.24265 -0.15866,-0.41065v-1.69859l0.21466,-1.18528l0.92396,0.40131v2.48256c0,0.16799 -0.056,0.30488 -0.16799,0.41065c-0.10577,0.10577 -0.23954,0.15866 -0.40131,0.15866zM242.59419,180.54132c0,-0.44798 0.10888,-0.84618 0.32665,-1.19462c0.21777,-0.35465 0.51331,-0.63464 0.88662,-0.83996c0.37332,-0.21154 0.78086,-0.31732 1.22262,-0.31732c0.44798,0 0.78085,0.07155 0.99862,0.21466c0.22399,0.1431 0.30799,0.31732 0.25199,0.52264c-0.01867,0.09955 -0.06222,0.17732 -0.13066,0.23332c-0.06222,0.056 -0.13377,0.09333 -0.21466,0.11199c-0.08088,0.01244 -0.168,0.00623 -0.26133,-0.01866c-0.47909,-0.09333 -0.90841,-0.09955 -1.28794,-0.01867c-0.37954,0.08088 -0.67819,0.23333 -0.89596,0.45731c-0.21777,0.22399 -0.32665,0.50709 -0.32665,0.8493zM242.60352,184.34915c-0.17422,0 -0.3111,-0.04667 -0.41065,-0.13999c-0.09955,-0.09333 -0.14933,-0.23332 -0.14933,-0.41998v-4.97445c0,-0.18044 0.04978,-0.31732 0.14933,-0.41065c0.09955,-0.09955 0.23643,-0.14933 0.41065,-0.14933c0.18666,0 0.32665,0.04667 0.41998,0.13999c0.09333,0.09333 0.13999,0.23332 0.13999,0.41998v4.97445c0,0.18044 -0.04667,0.32043 -0.13999,0.41998c-0.09333,0.09333 -0.23332,0.13999 -0.41998,0.13999zM250.49102,184.34915c-0.20533,0 -0.36398,-0.08711 -0.47598,-0.26132c-0.11199,-0.18044 -0.12444,-0.37332 -0.03733,-0.57864l3.13586,-7.47567c0.11199,-0.26132 0.29243,-0.39198 0.54131,-0.39198c0.26754,0 0.45109,0.13066 0.55064,0.39198l3.1452,7.50367c0.08088,0.20533 0.06533,0.39198 -0.04666,0.55998c-0.10577,0.16799 -0.26444,0.25199 -0.47598,0.25199c-0.11199,0 -0.22088,-0.03111 -0.32665,-0.09333c-0.09955,-0.06222 -0.1711,-0.14933 -0.21466,-0.26133l-2.76255,-6.86903h0.31732l-2.80921,6.86903c-0.056,0.11822 -0.13378,0.20844 -0.23333,0.27066c-0.09955,0.056 -0.20222,0.08399 -0.30799,0.08399zM251.08832,182.4359l0.43865,-0.96129h4.36781l0.44798,0.96129zM260.01416,184.34915c-0.32976,0 -0.6222,-0.08711 -0.8773,-0.26132c-0.24888,-0.18044 -0.44487,-0.42309 -0.58797,-0.72797c-0.13688,-0.3111 -0.20532,-0.66886 -0.20532,-1.07329v-6.08507c0,-0.16177 0.04978,-0.29554 0.14933,-0.40131c0.10577,-0.10577 0.23954,-0.15866 0.40131,-0.15866c0.16799,0 0.30177,0.05289 0.40131,0.15866c0.10577,0.10577 0.15866,0.23954 0.15866,0.40131v6.08507c0,0.27377 0.04978,0.50087 0.14933,0.68131c0.10577,0.18044 0.24265,0.27065 0.41065,0.27065h0.27999c0.1431,0 0.26132,0.05289 0.35464,0.15866c0.09333,0.09955 0.13999,0.23021 0.13999,0.39198c0,0.16799 -0.07155,0.30488 -0.21465,0.41065c-0.13688,0.09955 -0.31732,0.14933 -0.54131,0.14933zM263.35722,184.34915c-0.32976,0 -0.6222,-0.08711 -0.8773,-0.26132c-0.24888,-0.18044 -0.44487,-0.42309 -0.58797,-0.72797c-0.13688,-0.3111 -0.20532,-0.66886 -0.20532,-1.07329v-6.08507c0,-0.16177 0.04978,-0.29554 0.14933,-0.40131c0.10577,-0.10577 0.23954,-0.15866 0.40131,-0.15866c0.16799,0 0.30177,0.05289 0.40131,0.15866c0.10577,0.10577 0.15866,0.23954 0.15866,0.40131v6.08507c0,0.27377 0.04978,0.50087 0.14933,0.68131c0.10577,0.18044 0.24265,0.27065 0.41065,0.27065h0.27999c0.1431,0 0.26133,0.05289 0.35465,0.15866c0.09333,0.09955 0.13999,0.23021 0.13999,0.39198c0,0.16799 -0.07155,0.30488 -0.21466,0.41065c-0.13688,0.09955 -0.31732,0.14933 -0.54131,0.14933z" fill="#ffffff" stroke="#000000" stroke-width="0" stroke-linecap="square"/></g></g></svg>