<svg version="1.1" xmlns="http://www.w3.org/2000/svg" xmlns:xlink="http://www.w3.org/1999/xlink" width="903.9039" height="647.14715" viewBox="0,0,903.9039,647.14715"><defs><linearGradient x1="322.43225" y1="127.23028" x2="322.43225" y2="131.92026" gradientUnits="userSpaceOnUse" id="color-1"><stop offset="0" stop-color="#ff963c"/><stop offset="1" stop-color="#ff3d3c"/></linearGradient><linearGradient x1="322.43225" y1="125.04488" x2="322.43225" y2="128.20142" gradientUnits="userSpaceOnUse" id="color-2"><stop offset="0" stop-color="#ff963c"/><stop offset="1" stop-color="#ff3d3c"/></linearGradient><linearGradient x1="322.43225" y1="130.96778" x2="322.43225" y2="134.15737" gradientUnits="userSpaceOnUse" id="color-3"><stop offset="0" stop-color="#ff963c"/><stop offset="1" stop-color="#ff3d3c"/></linearGradient><linearGradient x1="322.43225" y1="113.23711" x2="322.43225" y2="115.77969" gradientUnits="userSpaceOnUse" id="color-4"><stop offset="0" stop-color="#ff963c"/><stop offset="1" stop-color="#ff3d3c"/></linearGradient><linearGradient x1="322.47836" y1="115.43036" x2="322.47836" y2="118.57054" gradientUnits="userSpaceOnUse" id="color-5"><stop offset="0" stop-color="#ff963c"/><stop offset="1" stop-color="#ff3d3c"/></linearGradient><linearGradient x1="322.43225" y1="117.66618" x2="322.43225" y2="120.16594" gradientUnits="userSpaceOnUse" id="color-6"><stop offset="0" stop-color="#ff963c"/><stop offset="1" stop-color="#ff3d3c"/></linearGradient><linearGradient x1="322.43225" y1="119.8796" x2="322.43225" y2="122.95536" gradientUnits="userSpaceOnUse" id="color-7"><stop offset="0" stop-color="#ff963c"/><stop offset="1" stop-color="#ff3d3c"/></linearGradient><linearGradient x1="322.38614" y1="122.64596" x2="322.38614" y2="125.49688" gradientUnits="userSpaceOnUse" id="color-8"><stop offset="0" stop-color="#ff963c"/><stop offset="1" stop-color="#ff3d3c"/></linearGradient><linearGradient x1="322.43225" y1="133.18087" x2="322.43225" y2="135.68063" gradientUnits="userSpaceOnUse" id="color-9"><stop offset="0" stop-color="#ff963c"/><stop offset="1" stop-color="#ff3d3c"/></linearGradient><linearGradient x1="322.43225" y1="136.19201" x2="322.43225" y2="139.59789" gradientUnits="userSpaceOnUse" id="color-10"><stop offset="0" stop-color="#ff963c"/><stop offset="1" stop-color="#ff3d3c"/></linearGradient><linearGradient x1="322.4322" y1="138.7136" x2="322.4322" y2="140.37425" gradientUnits="userSpaceOnUse" id="color-11"><stop offset="0" stop-color="#ff963c"/><stop offset="1" stop-color="#ff3d3c"/></linearGradient><linearGradient x1="322.43225" y1="114.92286" x2="322.43225" y2="116.02941" gradientUnits="userSpaceOnUse" id="color-12"><stop offset="0" stop-color="#ff963c"/><stop offset="1" stop-color="#ff3d3c"/></linearGradient><linearGradient x1="322.43225" y1="119.34905" x2="322.43225" y2="120.4556" gradientUnits="userSpaceOnUse" id="color-13"><stop offset="0" stop-color="#ff963c"/><stop offset="1" stop-color="#ff3d3c"/></linearGradient><linearGradient x1="322.43225" y1="122.11541" x2="322.43225" y2="123.22196" gradientUnits="userSpaceOnUse" id="color-14"><stop offset="0" stop-color="#ff963c"/><stop offset="1" stop-color="#ff3d3c"/></linearGradient><linearGradient x1="322.43225" y1="124.88178" x2="322.43225" y2="125.98832" gradientUnits="userSpaceOnUse" id="color-15"><stop offset="0" stop-color="#ff963c"/><stop offset="1" stop-color="#ff3d3c"/></linearGradient><linearGradient x1="322.38614" y1="134.84069" x2="322.38614" y2="136.56234" gradientUnits="userSpaceOnUse" id="color-16"><stop offset="0" stop-color="#ff963c"/><stop offset="1" stop-color="#ff3d3c"/></linearGradient><linearGradient x1="322.43225" y1="135.94724" x2="322.43225" y2="137.05378" gradientUnits="userSpaceOnUse" id="color-17"><stop offset="0" stop-color="#ff963c"/><stop offset="1" stop-color="#ff3d3c"/></linearGradient></defs><g transform="translate(155.64565,109.78979)"><g data-paper-data="{&quot;isPaintingLayer&quot;:true}" fill-rule="nonzero" stroke="none" stroke-linecap="butt" stroke-linejoin="miter" stroke-miterlimit="10" stroke-dasharray="" stroke-dashoffset="0" style="mix-blend-mode: normal"><path d="M-155.64565,537.35736v-647.14715h903.9039v647.14715z" fill="#ffffff" stroke-width="0"/><path d="M276.13923,177.33054c0,-8.82931 0,-17.54336 0,-26.25741c0,-2.30531 0.50717,-2.9969 2.83553,-2.85858c3.87291,0.23053 7.74582,0.16137 11.52652,0c1.59066,0 2.3053,0.27663 2.3053,2.09783c0,19.61044 0,39.23627 0,58.87746c0,1.65982 -0.36885,2.44362 -2.12088,2.14393h-0.27663c-4.05734,0 -8.80625,1.26793 -11.96452,-0.438c-3.15827,-1.70593 -4.61061,-6.33959 -6.91591,-9.72839c-4.14955,-6.40875 -8.27604,-12.8175 -12.44864,-19.31845c-0.80685,0.78381 -0.41496,1.63676 -0.43801,2.30531c0,8.20688 0,16.41377 0,24.62065c0,1.95951 -0.53021,2.48972 -2.44362,2.3053c-4.05733,-0.16137 -8.11467,-0.13832 -12.17201,0c-1.59066,0 -2.00562,-0.50717 -1.98257,-2.05172c0,-19.61044 0,-39.23627 0,-58.87746c0,-1.49845 0.29969,-2.3053 1.93646,-2.05172c0.64503,0.03456 1.29143,0.03456 1.93646,0c3.66543,0 7.97635,-1.42929 10.83493,0.36884c2.85857,1.79814 4.21871,5.85547 6.20127,8.94458c3.7807,5.87852 7.49224,11.80316 11.29599,17.65863c0.43801,0.92212 0.64548,1.9134 1.89035,2.2592z" fill="#f3f3f3" stroke-width="1"/><path d="M203.015,211.33377c-2.30531,-0.23053 -6.17821,1.31402 -8.27604,-0.48411c-2.09783,-1.79814 -2.12088,-5.50967 -2.76637,-8.46046c-0.46106,-2.07477 -1.45234,-2.55889 -3.41184,-2.48972c-3.7807,0.16906 -7.5614,0.16906 -11.3421,0c-1.72897,0 -2.30531,0.55327 -2.78941,2.16698c-0.59938,2.58194 -1.5215,5.09473 -2.3053,7.67667c-0.06634,0.53503 -0.35272,1.0182 -0.79026,1.33322c-0.43753,0.31502 -0.98659,0.43338 -1.51504,0.32659c-4.61061,-0.11526 -9.40564,-0.11526 -14.10846,0c-1.63676,0 -2.00562,-0.29969 -1.42929,-2.02867c6.59317,-19.76414 13.13254,-39.53596 19.61813,-59.31547c0.41495,-1.29097 0.96823,-1.93645 2.48973,-1.89034c4.77967,0 9.56701,0 14.36204,0c0.5757,-0.09228 1.1643,0.05133 1.63282,0.39838c0.46852,0.34705 0.77742,0.86826 0.8569,1.44586c6.43948,19.81025 12.93275,39.59743 19.47982,59.36157c0.59938,1.82119 0.25359,2.30531 -1.54455,2.12088c-2.39751,-0.25358 -4.86419,-0.16137 -8.16078,-0.16137z" fill="#f3f3f3" stroke-width="1"/><path d="M115.32124,179.31311c0,-9.77449 0,-19.52592 0,-29.27736c0,-1.75203 0.41495,-2.30531 2.3053,-2.30531c8.43741,-0.53022 16.87483,-1.45234 25.35835,0c12.31033,2.19004 18.81128,10.37386 18.44243,23.39883c-0.27663,11.87231 -7.81498,20.01004 -19.84867,21.48543c-1.19876,0.16137 -2.30531,0.32274 -3.57322,0.43801c-4.61061,0.43801 -4.6106,0.41496 -4.6106,5.20999c0,3.59627 0,7.19255 0,10.76577c0,2.00562 -0.62243,2.44362 -2.48973,2.3053c-4.33397,-0.13832 -8.66795,-0.16137 -12.97886,0c-2.00562,0 -2.62804,-0.3919 -2.60499,-2.51278c0.06916,-9.77449 0,-19.66424 0,-29.50789z" fill="#f3f3f3" stroke-width="1"/><path d="M235.38147,179.86638c0,9.59007 0,19.15707 0,28.74714c0,2.30531 -0.71465,2.85858 -2.92774,2.76637c-4.31092,-0.18443 -8.64489,-0.13832 -12.97886,0c-1.63676,0 -2.3053,-0.32274 -2.3053,-2.09783c0,-19.70266 0,-39.40533 0,-59.10799c0,-1.42929 0.3919,-1.91341 1.8673,-1.8673c4.61061,0 9.38259,0 14.08541,0c2.02867,0 2.12088,0.82991 2.12088,2.30531c0.11526,9.75143 0.13832,19.50287 0.13832,29.2543z" fill="#f3f3f3" stroke-width="1"/><path d="M317.12754,116.21694c0.80685,-3.75764 1.63676,-7.51529 2.3053,-11.29599c0.23053,-1.1296 0.87602,-1.40624 1.93646,-1.38319c5.32525,0 10.65051,0 15.97575,0c1.10697,-0.09567 2.12469,0.61189 2.42057,1.68287c0.57632,1.40623 1.26792,2.78943 2.05172,4.4723c0.53022,-1.08349 0.94518,-1.89035 1.31403,-2.72026c1.54455,-3.48101 2.78942,-4.14954 6.45485,-3.31963c2.61835,0.61409 4.36224,3.09121 4.05733,5.76326c0,2.30531 0,4.6106 0,6.91591c-0.95557,0.75545 -2.19229,1.05832 -3.3888,0.82991h-29.83063c-1.1757,-0.06916 -2.42057,0.09221 -3.29658,-0.94518z" fill="#f3f3f3" stroke-width="1"/><path d="M301.244,116.26305c0,-2.55889 0,-5.14083 0,-7.69972c-0.1526,-2.43295 1.61507,-4.56426 4.03428,-4.86419c2.18993,-0.23126 4.39547,-0.27753 6.59317,-0.13832c1.33708,0 1.22181,1.17571 1.47539,1.95951c1.19876,3.55017 2.30531,7.14644 3.45796,10.71966c-0.43169,0.49147 -1.05183,0.77639 -1.70592,0.7838c-4.01123,0.11526 -8.04551,0.11526 -12.05674,0c-0.67905,0.00728 -1.3305,-0.26832 -1.79813,-0.76075z" fill="#f3f3f3" stroke-width="1"/><path d="M301.244,133.96778v-2.76636c1.03179,-0.80244 2.3557,-1.12923 3.64238,-0.89907h45.06869c1.29345,-0.21672 2.61908,0.10844 3.66543,0.89907v2.76636c-1.04987,0.78253 -2.37518,1.09928 -3.66543,0.87602h-45.06869c-1.28339,0.23664 -2.60694,-0.08169 -3.64238,-0.87602z" fill="#f3f3f3" stroke-width="1"/><path d="M353.6205,131.20142h-52.3765v-2.30531c0.97645,-0.71028 2.19964,-0.99319 3.38879,-0.7838h45.57585c1.1961,-0.19744 2.42184,0.08415 3.41185,0.7838z" fill="#f3f3f3" stroke-width="1"/><path d="M301.244,133.96778h52.3765v2.3053c-0.96326,0.73905 -2.19585,1.03252 -3.3888,0.80686h-45.59891c-1.19309,0.23175 -2.42816,-0.06231 -3.38879,-0.80686z" fill="#f3f3f3" stroke-width="1"/><path d="M301.244,116.26305h15.46858c0.12052,-0.03459 0.24833,-0.03459 0.36885,0h36.53906v1.65981c-0.99001,0.69965 -2.21576,0.98125 -3.41185,0.78381h-45.57585c-1.18944,0.22051 -2.41698,-0.06343 -3.38879,-0.78381z" fill="#f3f3f3" stroke-width="1"/><path d="M301.244,120.66618v-1.65982c0.94518,-0.78381 2.09783,-0.53022 3.18132,-0.53022h46.10607c1.06044,0 2.30531,-0.27663 3.18132,0.53022v1.65982c-0.95557,0.75545 -2.19229,1.05832 -3.3888,0.82991h-45.69112c-1.19635,0.22223 -2.43051,-0.08002 -3.38879,-0.82991z" fill="#f3f3f3" stroke-width="1"/><path d="M301.244,120.66618h52.3765v1.65982c-0.98359,0.7135 -2.21831,0.98881 -3.41185,0.76075c-15.19964,0 -30.39159,0 -45.57585,0c-1.18626,0.22991 -2.41464,-0.04585 -3.38879,-0.76075z" fill="#f3f3f3" stroke-width="1"/><path d="M353.6205,123.4556v1.65981c-0.98359,0.7135 -2.21831,0.98882 -3.41185,0.76075h-45.57585c-1.18626,0.22991 -2.41464,-0.04586 -3.38879,-0.76075v-1.65981c0.94518,-0.80685 2.09783,-0.53022 3.18132,-0.53022h46.10607c0.96823,0.04611 2.12088,-0.27663 3.08911,0.53022z" fill="#f3f3f3" stroke-width="1"/><path d="M353.6205,126.22196v1.65982c-0.96202,0.55397 -2.09162,0.74224 -3.18132,0.53022h-46.10608c-1.08349,0 -2.3053,0.25359 -3.18132,-0.53022v-1.65982c0.94518,-0.80685 2.09783,-0.53022 3.18132,-0.53022h46.10608c1.06044,0 2.21309,-0.27663 3.18132,0.53022z" fill="#f3f3f3" stroke-width="1"/><path d="M301.244,136.18087h52.3765v1.65982c-0.98359,0.7135 -2.21831,0.98881 -3.41185,0.76075h-45.57585c-1.18626,0.22991 -2.41464,-0.04585 -3.38879,-0.76074z" fill="#f3f3f3" stroke-width="1"/><path d="M301.244,141.7136v-1.65982c0.97181,-0.72037 2.19936,-1.00431 3.38879,-0.78381h45.57585c1.1969,-0.23011 2.43537,0.05441 3.41185,0.78381v1.65982c-0.96326,0.73906 -2.19585,1.03252 -3.3888,0.80686h-45.59891c-1.19309,0.23175 -2.42816,-0.06232 -3.38879,-0.80686z" fill="#f3f3f3" stroke-width="1"/><path d="M301.244,141.7136h52.3765c0.48411,1.75203 -0.64548,1.65982 -1.84424,1.65982h-48.71107c-1.1757,0 -2.3053,0.09221 -1.82119,-1.65982z" fill="#f3f3f3" stroke-width="1"/><path d="M353.6205,119.02941h-52.3765v-1.10655h52.3765z" fill="#f3f3f3" stroke-width="1"/><path d="M353.6205,123.4556h-52.3765v-1.10655h52.3765z" fill="#f3f3f3" stroke-width="1"/><path d="M353.6205,126.22196h-52.3765v-1.10654h52.3765z" fill="#f3f3f3" stroke-width="1"/><path d="M301.244,127.88178h52.3765v1.10654h-52.3765z" fill="#f3f3f3" stroke-width="1"/><path d="M301.244,137.84069h52.3765v1.10654c-0.96202,0.55397 -2.09162,0.74224 -3.18132,0.53022h-46.10608c-1.08349,0 -2.3053,0.25358 -3.18132,-0.53022z" fill="#f3f3f3" stroke-width="1"/><path d="M301.244,138.94724h52.3765v1.10655h-52.3765z" fill="#f3f3f3" stroke-width="1"/><path d="M349.82151,121.84597c0,3.36893 -2.86111,6.1 -6.39048,6.1c-3.52936,0 -6.39048,-2.73107 -6.39048,-6.1c0,-3.36893 2.86111,-6.1 6.39048,-6.1c3.52936,0 6.39048,2.73107 6.39048,6.1z" fill="#f3f3f3" stroke-width="0"/><path d="M353.52315,143.07982c1.72897,0 3.55531,5.5958 3.55531,7.55531c-0.16906,4.51839 -0.16906,9.02909 0,13.53213c0,2.02867 -0.64549,2.30531 -2.48973,2.30531c-4.05093,-0.13082 -8.1059,-0.05387 -12.14895,0.23054c-6.38569,0.50717 -8.7371,3.84986 -7.28476,10.14334c0.76075,3.31964 1.8673,6.54707 2.74331,9.82059c1.95963,6.22284 1.29347,12.976 -1.84425,18.69601c-2.83553,5.04862 -7.49224,7.1695 -11.52652,5.39441c-2.80505,-1.26095 -5.04031,-3.52086 -6.27042,-6.33958c-2.63671,-5.63856 -3.08047,-12.05664 -1.24487,-18.00442c0.94518,-3.36575 2.05172,-6.68538 2.78942,-10.07418c1.26792,-5.80936 -1.1757,-8.96763 -7.10033,-9.65922c-4.21853,-0.31876 -5.05185,-0.39572 -9.27918,-0.23053c-1.56761,0 -2.3053,-0.20747 -2.3053,-2.05172c0.16137,-4.61061 -1.03342,-32.53096 0.46503,-32.53096c0.89234,-0.00445 2.21148,0.00684 3.21789,0.19515c4.73202,0.88541 8.11764,4.66967 13.48395,6.72387c5.31579,2.03486 12.61496,2.34396 16.75045,2.34396c0,0 6.32612,1.32526 11.08259,1.93563c3.67424,0.4715 3.4278,0.01435 7.40636,0.01435z" fill="#f3f3f3" stroke-width="1"/><path d="M319.83961,129.04024c-0.09227,0.16154 -0.0519,0.3363 -0.06952,0.51317c-0.05728,0.5748 -0.15515,1.13505 -0.56462,1.60646c-0.13608,-0.16329 -0.21493,-0.2946 -0.21109,-0.46496c-0.0999,-0.10452 0.24542,-0.30126 -0.06332,-0.36617c-0.05303,0.08402 -0.09228,0.16154 -0.16385,0.00993c-0.1952,-0.41347 -0.16205,-0.82518 -0.08104,-1.24264c0.01092,-0.03043 0.02623,-0.10508 -0.08976,-0.10089c-0.06681,0.09053 -0.16118,0.19407 -0.28026,0.33456c-0.37221,-0.87766 0.24686,-1.42273 0.73273,-2.10717c-0.5331,0.20954 -0.80321,0.54774 -1.15217,0.75462c-0.2844,-0.38821 -0.20493,-0.73753 0.11457,-1.14961c-0.24081,0.09683 -0.37499,0.15175 -0.54688,0.21605c0.01419,-0.32693 0.01307,-0.57921 0.0309,-0.91628c-0.85107,0.55348 -1.57103,1.18832 -2.25768,1.85801c-0.33826,0.33666 -0.70981,0.63849 -0.52859,1.21867c0.03827,0.11676 -0.05401,0.2783 -0.09115,0.41382c-0.01819,0.05072 -0.02337,0.12901 -0.13495,0.08899c-0.20289,-0.07276 -0.17609,-0.05169 -0.20463,0.15561c-0.02854,0.20729 0.10313,0.41479 -0.01097,0.6372c-0.187,-0.02126 -0.28614,-0.15985 -0.36863,-0.28102c-0.25396,-0.3773 -0.4295,-0.30285 -0.70248,0.01141c-1.12754,1.32446 -2.04357,2.79346 -2.92267,4.28715c-0.71274,1.22133 -1.3313,2.49933 -1.10271,4.00097c0.06543,0.42417 0.04891,0.85332 0.08027,1.27672c-0.61825,-0.09576 -1.17389,-0.39806 -1.76303,-0.57498c-0.3673,-0.18895 -0.19367,-0.48161 -0.09334,-0.69751c0.59331,-1.3672 0.79959,-2.80448 0.9385,-4.27738c0.0868,-0.97638 0.2896,-1.95696 0.60035,-2.88738c0.49264,-1.43765 0.95847,-2.89635 1.72137,-4.22563c0.26592,-0.45419 0.18917,-0.52751 -0.35598,-0.53981c-0.94385,-0.01789 -1.85096,0.14913 -2.70909,0.56269c-0.21037,0.10774 -0.43893,0.26621 -0.66211,0.18618c-0.35505,-0.12732 -0.66323,-0.0661 -1.00261,0.01828c-0.1472,0.02736 -0.33,0.12209 -0.43852,-0.05421c-0.0955,-0.14874 0.00692,-0.30665 0.06149,-0.45881c0.20294,-0.53402 0.64055,-0.8923 1.01441,-1.29633c0.23737,-0.2469 0.52219,-0.17911 0.75894,0.05463c0.05072,0.01819 0.07674,0.07331 0.14489,0.07485c-0.1847,-0.12347 -0.32806,-0.26648 -0.16897,-0.51855c0.25059,-0.37954 0.76396,-0.47022 1.09776,-0.1559c0.17379,0.15391 0.32651,0.33461 0.48652,0.49504c0.13244,0.17343 0.26852,0.33671 0.48883,0.39282c-0.19638,-0.05898 -0.33322,-0.18819 -0.43523,-0.35071c-0.37417,-0.48909 -0.27804,-0.82099 0.29487,-0.98191c0.25745,-0.07941 0.44502,0.06799 0.63623,0.20525c0.10718,0.08423 0.23675,0.23373 0.3631,0.07296c0.11257,-0.15426 0.0186,-0.37115 0.15222,-0.55221c0.0559,-0.0601 -0.14986,-0.15677 -0.24689,-0.23737c-0.11732,-0.08787 -0.23829,-0.1656 -0.34184,-0.25997c-0.16364,-0.15027 -0.33497,0.04017 -0.50456,0.00225c-0.22758,-0.03581 -0.44426,-0.10206 -0.63547,-0.23932c-0.08326,-0.0871 -0.16651,-0.17419 -0.32308,-0.18454c0.08479,0.01896 0.14566,0.04078 0.19562,0.09304c0.14868,0.51127 -0.22877,0.31868 -0.42228,0.28363c-0.66897,-0.11395 -1.33067,-0.24818 -2.01363,-0.19542c-0.17763,0.01645 -0.36176,0.0191 -0.51239,-0.10361c-0.1307,-0.40179 0.21365,-0.40424 0.43417,-0.50835c0.13782,-0.06507 0.32043,0.00041 0.40465,-0.10677c0.57583,-0.74377 0.9914,-0.88097 1.82324,-0.58268c0.16231,0.05821 0.31734,0.1367 0.52751,0.18917c-0.11005,-0.10816 -0.20058,-0.17497 -0.28097,-0.23814c-0.14412,-0.10892 -0.32596,-0.20849 -0.2597,-0.42516c0.05611,-0.22031 0.25766,-0.23962 0.42879,-0.26984c0.20883,-0.0396 0.42131,-0.08936 0.62077,-0.16667c0.14356,-0.01721 0.23332,0.08367 0.34491,0.12369c0.04708,0.02833 0.08038,0.06317 0.14126,0.085c-0.12747,-0.09151 -0.276,-0.15622 -0.41361,-0.25136c-0.1535,-0.14664 -0.35486,-0.28753 -0.20955,-0.5331c0.08864,-0.1514 0.2655,-0.13377 0.42341,-0.03136c0.02679,0.02106 0.04709,0.02833 0.02967,0.04498c-0.04575,0.06373 0.07178,-0.00861 0.00077,-0.03407c-0.60195,-0.36469 -0.65688,-0.49888 -0.48283,-1.11195c0.07429,-0.27103 0.19987,-0.39773 0.49329,-0.25817c-0.03617,-0.05877 -0.08326,-0.0871 -0.11293,-0.13208c-0.22871,-0.28809 -0.1167,-0.56851 0.02937,-0.84814c0.05667,-0.09417 0.1409,-0.20135 0.25248,-0.16134c0.28404,0.10186 0.38374,0.36659 0.46315,0.62405c0.00574,0.04785 -0.02623,0.10508 0.01435,0.11963c0.02623,-0.10508 -0.03156,-0.26319 0.1497,-0.28978c0.12978,-0.01071 0.18183,0.09955 0.2136,0.20253c0.11118,0.36044 0.1745,0.72661 0.17542,1.13911c0.0249,-0.19715 -0.0082,-0.39221 0.19049,-0.43545c0.18491,-0.03673 0.28328,0.13594 0.37591,0.26074c0.24823,0.32944 0.36514,0.73774 0.61337,1.06718c0.1598,0.32063 0.11364,0.70479 0.35249,0.99652c0.08361,0.37346 -0.0575,0.73501 -0.01369,1.05984c0.21939,-0.35639 0.38596,-0.78896 0.89646,-0.90357c0.16882,0.07198 0.14909,0.19085 0.07787,0.3256c0.13495,-0.08899 0.12501,-0.25284 0.21939,-0.35639c0.38401,-0.4004 1.45344,-0.50921 1.95395,-0.1809c0.14776,0.09879 0.26585,0.15259 0.43985,0.14628c0.3342,-0.0061 0.62475,0.10955 0.90362,0.28969c0.23676,0.23373 0.22277,0.40044 -0.12312,0.47104c-0.37996,0.06983 -0.76356,0.14981 -1.14352,0.21964c0.6533,-0.09775 1.26848,0.13429 1.97228,0.21495c-0.18009,-0.32791 -0.38354,-0.52679 -0.53837,-0.7655c-0.34107,-0.29403 -0.4528,-0.78062 -0.88748,-1.00519c-0.1246,-0.06758 -0.14468,-0.23507 -0.19961,-0.36925c-0.07731,-0.19946 -0.04878,-0.40675 -0.31386,-0.5934c-0.22815,-0.16196 -0.39368,-0.53044 -0.61301,-0.78082c-0.07961,-0.09725 -0.11426,-0.22415 -0.05682,-0.3524c0.0871,-0.08325 0.19946,-0.07731 0.30818,-0.06122c0.82611,0.25044 1.52147,0.70587 2.10426,1.31557c0.30623,0.32734 0.67046,0.65258 0.69299,1.16442c0.00497,0.08192 -0.00385,0.17036 0.00112,0.25228c0.00881,-0.08843 -0.00266,-0.18413 0.00979,-0.28271c0.01082,-1.08377 0.11371,-2.16887 -0.04946,-3.24634c-0.03674,-0.18491 0.00061,-0.48063 0.25786,-0.39983c0.25725,0.0808 0.34379,-0.1286 0.51779,-0.1349c0.07101,0.02546 0.13187,0.04729 0.20288,0.07276c-0.02337,0.12901 -0.08156,0.29132 0.13301,0.29957c0.56907,0.00943 0.55487,0.33637 0.4398,0.75306c-0.07353,0.23696 -0.11662,0.48484 -0.18517,0.80372c0.20771,-0.29188 0.35952,-0.52367 0.53239,-0.78225c0.19541,0.25325 -0.06723,0.41096 0.04856,0.56696c0.8012,0.4476 0.77547,1.2856 0.87589,2.12302c0.6719,-0.4689 1.30245,-0.91826 2.08419,-1.11879c-0.03294,0.25151 -0.27739,0.35848 -0.24219,0.61153c0.4171,-0.20534 0.58772,-0.96849 1.28231,-0.47898c-0.69946,0.48191 -1.45097,0.85356 -1.95349,1.52058c-0.23891,0.31504 -0.46249,0.55543 -0.92053,0.45988c-0.10508,-0.02623 -0.3899,-0.09401 -0.39815,0.12055c-0.00825,0.21457 0.22815,0.16195 0.37822,0.15852c1.4042,0.01123 2.61348,0.50212 3.61409,1.47918c0.39025,0.38037 0.85305,0.71806 0.98354,1.28006c-0.76565,0.0918 -0.66451,-0.76494 -1.18034,-1.01861c0.03653,0.34512 -0.16314,0.58264 -0.40394,0.67947c-0.49539,0.20017 -0.65862,-0.27053 -0.8655,-0.61949c-0.15678,0.14986 -0.09556,0.45804 -0.31664,0.436c-0.24136,-0.02931 -0.09893,-0.29879 -0.16036,-0.44676c-0.01952,-0.04135 -0.03541,-0.09284 -0.05129,-0.14433c-0.04345,-0.03848 -0.01721,-0.14357 -0.11292,-0.13209c-0.01015,-0.00364 -0.02183,0.06087 -0.03274,0.0913c0.10041,0.83743 -0.7052,0.43406 -1.00861,0.73741c0.15769,0.26263 0.44174,0.36449 0.67717,0.50615c0.54836,0.32258 0.99221,0.74507 1.38666,1.24143c0.12594,0.15965 0.23061,0.5063 0.18275,0.51204c-0.73522,0.10272 -0.20371,0.56809 -0.17426,0.77329c0.11133,0.807 0.09749,1.42028 -0.19676,1.92156c-0.10487,-0.18644 -0.20324,-0.35911 -0.29147,-0.52813c-0.1309,-0.24158 -0.20073,-0.62153 -0.40649,-0.71821c-0.60062,-0.27263 -0.8942,-0.85876 -1.3903,-1.23129c-0.06871,-0.12768 -0.06198,-0.27411 -0.03498,-0.41326c-0.04366,0.12174 -0.01993,0.27907 -0.23297,0.20268c-0.19254,-0.22933 -0.36402,-0.48545 -0.71984,-0.5787c0.0769,0.51988 0.31842,0.99575 0.04809,1.49416c-0.09704,-0.0806 -0.19772,-0.15105 -0.31868,-0.22877c-0.00252,0.26243 0.22487,0.45845 0.05928,0.69674c-0.058,0.0021 -0.10299,0.03177 -0.22836,-0.00174z" data-paper-data="{&quot;index&quot;:null}" fill="#f3f3f3" stroke-width="1"/><path d="M271.13923,174.33054c0,-8.82931 0,-17.54336 0,-26.25741c0,-2.30531 0.50717,-2.9969 2.83553,-2.85858c3.87291,0.23053 7.74582,0.16137 11.52652,0c1.59066,0 2.3053,0.27663 2.3053,2.09783c0,19.61044 0,39.23627 0,58.87746c0,1.65982 -0.36885,2.44362 -2.12088,2.14393h-0.27663c-4.05734,0 -8.80625,1.26793 -11.96452,-0.438c-3.15827,-1.70593 -4.61061,-6.33959 -6.91591,-9.72839c-4.14955,-6.40875 -8.27604,-12.8175 -12.44864,-19.31845c-0.80685,0.78381 -0.41496,1.63676 -0.43801,2.30531c0,8.20688 0,16.41377 0,24.62065c0,1.95951 -0.53021,2.48972 -2.44362,2.3053c-4.05733,-0.16137 -8.11467,-0.13832 -12.17201,0c-1.59066,0 -2.00562,-0.50717 -1.98257,-2.05172c0,-19.61044 0,-39.23627 0,-58.87746c0,-1.49845 0.29969,-2.3053 1.93646,-2.05172c0.64503,0.03456 1.29143,0.03456 1.93646,0c3.66543,0 7.97635,-1.42929 10.83493,0.36884c2.85857,1.79814 4.21871,5.85547 6.20127,8.94458c3.7807,5.87852 7.49224,11.80316 11.29599,17.65863c0.43801,0.92212 0.64548,1.9134 1.89035,2.2592z" fill="#000000" stroke-width="1"/><path d="M198.015,208.33377c-2.30531,-0.23053 -6.17821,1.31402 -8.27604,-0.48411c-2.09783,-1.79814 -2.12088,-5.50967 -2.76637,-8.46046c-0.46106,-2.07477 -1.45234,-2.55889 -3.41184,-2.48972c-3.7807,0.16906 -7.5614,0.16906 -11.3421,0c-1.72897,0 -2.30531,0.55327 -2.78941,2.16698c-0.59938,2.58194 -1.5215,5.09473 -2.3053,7.67667c-0.06634,0.53503 -0.35272,1.0182 -0.79026,1.33322c-0.43753,0.31502 -0.98659,0.43338 -1.51504,0.32659c-4.61061,-0.11526 -9.40564,-0.11526 -14.10846,0c-1.63676,0 -2.00562,-0.29969 -1.42929,-2.02867c6.59317,-19.76414 13.13254,-39.53596 19.61813,-59.31547c0.41495,-1.29097 0.96823,-1.93645 2.48973,-1.89034c4.77967,0 9.56701,0 14.36204,0c0.5757,-0.09228 1.1643,0.05133 1.63282,0.39838c0.46852,0.34705 0.77742,0.86826 0.8569,1.44586c6.43948,19.81025 12.93275,39.59743 19.47982,59.36157c0.59938,1.82119 0.25359,2.30531 -1.54455,2.12088c-2.39751,-0.25358 -4.86419,-0.16137 -8.16078,-0.16137z" fill="#000000" stroke-width="1"/><path d="M110.32124,176.31311c0,-9.77449 0,-19.52592 0,-29.27736c0,-1.75203 0.41495,-2.30531 2.3053,-2.30531c8.43741,-0.53022 16.87483,-1.45234 25.35835,0c12.31033,2.19004 18.81128,10.37386 18.44243,23.39883c-0.27663,11.87231 -7.81498,20.01004 -19.84867,21.48543c-1.19876,0.16137 -2.30531,0.32274 -3.57322,0.43801c-4.61061,0.43801 -4.6106,0.41496 -4.6106,5.20999c0,3.59627 0,7.19255 0,10.76577c0,2.00562 -0.62243,2.44362 -2.48973,2.3053c-4.33397,-0.13832 -8.66795,-0.16137 -12.97886,0c-2.00562,0 -2.62804,-0.3919 -2.60499,-2.51278c0.06916,-9.77449 0,-19.66424 0,-29.50789z" fill="#000000" stroke-width="1"/><path d="M230.38147,176.86638c0,9.59007 0,19.15707 0,28.74714c0,2.30531 -0.71465,2.85858 -2.92774,2.76637c-4.31092,-0.18443 -8.64489,-0.13832 -12.97886,0c-1.63676,0 -2.3053,-0.32274 -2.3053,-2.09783c0,-19.70266 0,-39.40533 0,-59.10799c0,-1.42929 0.3919,-1.91341 1.8673,-1.8673c4.61061,0 9.38259,0 14.08541,0c2.02867,0 2.12088,0.82991 2.12088,2.30531c0.11526,9.75143 0.13832,19.50287 0.13832,29.2543z" fill="#000000" stroke-width="1"/><path d="M312.12754,113.21694c0.80685,-3.75764 1.63676,-7.51529 2.3053,-11.29599c0.23053,-1.1296 0.87602,-1.40624 1.93646,-1.38319c5.32525,0 10.65051,0 15.97575,0c1.10697,-0.09567 2.12469,0.61189 2.42057,1.68287c0.57632,1.40623 1.26792,2.78943 2.05172,4.4723c0.53022,-1.08349 0.94518,-1.89035 1.31403,-2.72026c1.54455,-3.48101 2.78942,-4.14954 6.45485,-3.31963c2.61835,0.61409 4.36224,3.09121 4.05733,5.76326c0,2.30531 0,4.6106 0,6.91591c-0.95557,0.75545 -2.19229,1.05832 -3.3888,0.82991h-29.83063c-1.1757,-0.06916 -2.42057,0.09221 -3.29658,-0.94518z" fill="#ff963c" stroke-width="1"/><path d="M296.244,113.26305c0,-2.55889 0,-5.14083 0,-7.69972c-0.1526,-2.43295 1.61507,-4.56426 4.03428,-4.86419c2.18993,-0.23126 4.39547,-0.27753 6.59317,-0.13832c1.33708,0 1.22181,1.17571 1.47539,1.95951c1.19876,3.55017 2.30531,7.14644 3.45796,10.71966c-0.43169,0.49147 -1.05183,0.77639 -1.70592,0.7838c-4.01123,0.11526 -8.04551,0.11526 -12.05674,0c-0.67905,0.00728 -1.3305,-0.26832 -1.79813,-0.76075z" fill="#ff963c" stroke-width="1"/><path d="M296.244,130.96778v-2.76636c1.03179,-0.80244 2.3557,-1.12923 3.64238,-0.89907h45.06869c1.29345,-0.21672 2.61908,0.10844 3.66543,0.89907v2.76636c-1.04987,0.78253 -2.37518,1.09928 -3.66543,0.87602h-45.06869c-1.28339,0.23664 -2.60694,-0.08169 -3.64238,-0.87602z" fill="url(#color-1)" stroke-width="1"/><path d="M348.6205,128.20142h-52.3765v-2.30531c0.97645,-0.71028 2.19964,-0.99319 3.38879,-0.7838h45.57585c1.1961,-0.19744 2.42184,0.08415 3.41185,0.7838z" fill="url(#color-2)" stroke-width="1"/><path d="M296.244,130.96778h52.3765v2.3053c-0.96326,0.73905 -2.19585,1.03252 -3.3888,0.80686h-45.59891c-1.19309,0.23175 -2.42816,-0.06231 -3.38879,-0.80686z" fill="url(#color-3)" stroke-width="1"/><path d="M296.244,113.26305h15.46858c0.12052,-0.03459 0.24833,-0.03459 0.36885,0h36.53906v1.65981c-0.99001,0.69965 -2.21576,0.98125 -3.41185,0.78381h-45.57585c-1.18944,0.22051 -2.41698,-0.06343 -3.38879,-0.78381z" fill="url(#color-4)" stroke-width="1"/><path d="M296.244,117.66618v-1.65982c0.94518,-0.78381 2.09783,-0.53022 3.18132,-0.53022h46.10607c1.06044,0 2.30531,-0.27663 3.18132,0.53022v1.65982c-0.95557,0.75545 -2.19229,1.05832 -3.3888,0.82991h-45.69112c-1.19635,0.22223 -2.43051,-0.08002 -3.38879,-0.82991z" fill="url(#color-5)" stroke-width="1"/><path d="M296.244,117.66618h52.3765v1.65982c-0.98359,0.7135 -2.21831,0.98881 -3.41185,0.76075c-15.19964,0 -30.39159,0 -45.57585,0c-1.18626,0.22991 -2.41464,-0.04585 -3.38879,-0.76075z" fill="url(#color-6)" stroke-width="1"/><path d="M348.6205,120.4556v1.65981c-0.98359,0.7135 -2.21831,0.98882 -3.41185,0.76075h-45.57585c-1.18626,0.22991 -2.41464,-0.04586 -3.38879,-0.76075v-1.65981c0.94518,-0.80685 2.09783,-0.53022 3.18132,-0.53022h46.10607c0.96823,0.04611 2.12088,-0.27663 3.08911,0.53022z" fill="url(#color-7)" stroke-width="1"/><path d="M348.6205,123.22196v1.65982c-0.96202,0.55397 -2.09162,0.74224 -3.18132,0.53022h-46.10608c-1.08349,0 -2.3053,0.25359 -3.18132,-0.53022v-1.65982c0.94518,-0.80685 2.09783,-0.53022 3.18132,-0.53022h46.10608c1.06044,0 2.21309,-0.27663 3.18132,0.53022z" fill="url(#color-8)" stroke-width="1"/><path d="M296.244,133.18087h52.3765v1.65982c-0.98359,0.7135 -2.21831,0.98881 -3.41185,0.76075h-45.57585c-1.18626,0.22991 -2.41464,-0.04585 -3.38879,-0.76074z" fill="url(#color-9)" stroke-width="1"/><path d="M296.244,138.7136v-1.65982c0.97181,-0.72037 2.19936,-1.00431 3.38879,-0.78381h45.57585c1.1969,-0.23011 2.43537,0.05441 3.41185,0.78381v1.65982c-0.96326,0.73906 -2.19585,1.03252 -3.3888,0.80686h-45.59891c-1.19309,0.23175 -2.42816,-0.06232 -3.38879,-0.80686z" fill="url(#color-10)" stroke-width="1"/><path d="M296.244,138.7136h52.3765c0.48411,1.75203 -0.64548,1.65982 -1.84424,1.65982h-48.71107c-1.1757,0 -2.3053,0.09221 -1.82119,-1.65982z" fill="url(#color-11)" stroke-width="1"/><path d="M348.6205,116.02941h-52.3765v-1.10655h52.3765z" fill="url(#color-12)" stroke-width="1"/><path d="M348.6205,120.4556h-52.3765v-1.10655h52.3765z" fill="url(#color-13)" stroke-width="1"/><path d="M348.6205,123.22196h-52.3765v-1.10654h52.3765z" fill="url(#color-14)" stroke-width="1"/><path d="M296.244,124.88178h52.3765v1.10654h-52.3765z" fill="url(#color-15)" stroke-width="1"/><path d="M296.244,134.84069h52.3765v1.10654c-0.96202,0.55397 -2.09162,0.74224 -3.18132,0.53022h-46.10608c-1.08349,0 -2.3053,0.25358 -3.18132,-0.53022z" fill="url(#color-16)" stroke-width="1"/><path d="M296.244,135.94724h52.3765v1.10655h-52.3765z" fill="url(#color-17)" stroke-width="1"/><path d="M344.82151,118.84597c0,3.36893 -2.86111,6.1 -6.39048,6.1c-3.52936,0 -6.39048,-2.73107 -6.39048,-6.1c0,-3.36893 2.86111,-6.1 6.39048,-6.1c3.52936,0 6.39048,2.73107 6.39048,6.1z" fill="#f4f4f4" stroke-width="0"/><path d="M348.52315,140.07982c1.72897,0 3.55531,5.5958 3.55531,7.55531c-0.16906,4.51839 -0.16906,9.02909 0,13.53213c0,2.02867 -0.64549,2.30531 -2.48973,2.30531c-4.05093,-0.13082 -8.1059,-0.05387 -12.14895,0.23054c-6.38569,0.50717 -8.7371,3.84986 -7.28476,10.14334c0.76075,3.31964 1.8673,6.54707 2.74331,9.82059c1.95963,6.22284 1.29347,12.976 -1.84425,18.69601c-2.83553,5.04862 -7.49224,7.1695 -11.52652,5.39441c-2.80505,-1.26095 -5.04031,-3.52086 -6.27042,-6.33958c-2.63671,-5.63856 -3.08047,-12.05664 -1.24487,-18.00442c0.94518,-3.36575 2.05172,-6.68538 2.78942,-10.07418c1.26792,-5.80936 -1.1757,-8.96763 -7.10033,-9.65922c-4.21853,-0.31876 -5.05185,-0.39572 -9.27918,-0.23053c-1.56761,0 -2.3053,-0.20747 -2.3053,-2.05172c0.16137,-4.61061 -1.03342,-32.53096 0.46503,-32.53096c0.89234,-0.00445 2.21148,0.00684 3.21789,0.19515c4.73202,0.88541 8.11764,4.66968 13.48395,6.72387c5.31579,2.03486 12.61496,2.34396 16.75045,2.34396c0,0 6.32612,1.32526 11.08259,1.93563c3.67424,0.4715 3.4278,0.01435 7.40636,0.01435z" fill="#000000" stroke-width="1"/><path d="M314.83962,126.04024c-0.09227,0.16154 -0.0519,0.3363 -0.06952,0.51317c-0.05728,0.5748 -0.15515,1.13505 -0.56463,1.60646c-0.13608,-0.16328 -0.21493,-0.2946 -0.21108,-0.46495c-0.0999,-0.10452 0.24542,-0.30126 -0.06332,-0.36617c-0.05303,0.08402 -0.09227,0.16154 -0.16385,0.00993c-0.1952,-0.41347 -0.16205,-0.82518 -0.08105,-1.24264c0.01092,-0.03043 0.02623,-0.10509 -0.08976,-0.10089c-0.06681,0.09053 -0.16118,0.19407 -0.28026,0.33456c-0.37221,-0.87766 0.24686,-1.42273 0.73273,-2.10718c-0.5331,0.20955 -0.80321,0.54774 -1.15217,0.75463c-0.2844,-0.38821 -0.20493,-0.73753 0.11457,-1.14961c-0.24081,0.09683 -0.37499,0.15175 -0.54688,0.21605c0.01419,-0.32693 0.01307,-0.57921 0.0309,-0.91628c-0.85107,0.55348 -1.57103,1.18832 -2.25768,1.85801c-0.33826,0.33666 -0.70981,0.63849 -0.52859,1.21867c0.03827,0.11677 -0.05401,0.2783 -0.09115,0.41382c-0.01819,0.05072 -0.02337,0.12901 -0.13495,0.08899c-0.20289,-0.07275 -0.17609,-0.05169 -0.20463,0.15561c-0.02854,0.2073 0.10313,0.41479 -0.01097,0.63721c-0.187,-0.02127 -0.28614,-0.15985 -0.36863,-0.28102c-0.25396,-0.3773 -0.4295,-0.30286 -0.70248,0.01141c-1.12754,1.32446 -2.04357,2.79346 -2.92267,4.28715c-0.71274,1.22133 -1.3313,2.49933 -1.10271,4.00097c0.06543,0.42417 0.04891,0.85332 0.08027,1.27672c-0.61825,-0.09576 -1.17388,-0.39805 -1.76303,-0.57497c-0.3673,-0.18896 -0.19367,-0.48161 -0.09334,-0.69751c0.59331,-1.36719 0.79959,-2.80448 0.9385,-4.27738c0.0868,-0.97638 0.2896,-1.95696 0.60035,-2.88738c0.49264,-1.43764 0.95847,-2.89635 1.72137,-4.22563c0.26592,-0.45419 0.18917,-0.52751 -0.35598,-0.53981c-0.94385,-0.01789 -1.85096,0.14913 -2.70909,0.56269c-0.21037,0.10774 -0.43893,0.26621 -0.66211,0.18618c-0.35505,-0.12732 -0.66323,-0.0661 -1.00261,0.01828c-0.1472,0.02736 -0.33,0.12209 -0.43851,-0.05421c-0.0955,-0.14873 0.00692,-0.30665 0.06149,-0.45881c0.20294,-0.53402 0.64055,-0.8923 1.01441,-1.29633c0.23737,-0.2469 0.52218,-0.17911 0.75894,0.05462c0.05072,0.01819 0.07674,0.07331 0.14489,0.07486c-0.1847,-0.12348 -0.32806,-0.26648 -0.16897,-0.51855c0.25059,-0.37955 0.76396,-0.47022 1.09776,-0.1559c0.17379,0.15391 0.32652,0.33462 0.48652,0.49504c0.13244,0.17343 0.26851,0.33671 0.48882,0.39282c-0.19638,-0.05898 -0.33322,-0.18819 -0.43523,-0.35071c-0.37417,-0.48909 -0.27804,-0.82099 0.29487,-0.98191c0.25745,-0.07941 0.44502,0.06799 0.63623,0.20525c0.10718,0.08423 0.23675,0.23373 0.3631,0.07296c0.11257,-0.15427 0.0186,-0.37115 0.15222,-0.55221c0.0559,-0.0601 -0.14986,-0.15677 -0.24689,-0.23737c-0.11732,-0.08787 -0.23829,-0.16559 -0.34184,-0.25997c-0.16364,-0.15027 -0.33497,0.04017 -0.50456,0.00225c-0.22758,-0.03581 -0.44426,-0.10206 -0.63546,-0.23932c-0.08326,-0.0871 -0.16651,-0.17419 -0.32308,-0.18454c0.08479,0.01896 0.14566,0.04078 0.19561,0.09304c0.14868,0.51128 -0.22877,0.31868 -0.42228,0.28363c-0.66897,-0.11395 -1.33067,-0.24819 -2.01363,-0.19542c-0.17763,0.01645 -0.36177,0.0191 -0.5124,-0.10361c-0.1307,-0.40178 0.21365,-0.40424 0.43417,-0.50835c0.13782,-0.06507 0.32043,0.00042 0.40465,-0.10677c0.57583,-0.74377 0.9914,-0.88097 1.82324,-0.58268c0.16231,0.0582 0.31734,0.1367 0.52751,0.18917c-0.11005,-0.10816 -0.20058,-0.17497 -0.28097,-0.23814c-0.14412,-0.10892 -0.32596,-0.20849 -0.2597,-0.42516c0.05611,-0.22031 0.25766,-0.23962 0.42878,-0.26984c0.20883,-0.0396 0.42131,-0.08936 0.62077,-0.16667c0.14356,-0.01721 0.23332,0.08367 0.34491,0.12369c0.04708,0.02833 0.08038,0.06317 0.14126,0.085c-0.12747,-0.09151 -0.276,-0.15622 -0.41361,-0.25136c-0.1535,-0.14664 -0.35486,-0.28753 -0.20955,-0.5331c0.08864,-0.1514 0.2655,-0.13377 0.42341,-0.03135c0.02679,0.02105 0.04709,0.02833 0.02967,0.04498c-0.04575,0.06373 0.07178,-0.00861 0.00077,-0.03407c-0.60195,-0.3647 -0.65688,-0.49888 -0.48283,-1.11195c0.07429,-0.27103 0.19987,-0.39773 0.49329,-0.25817c-0.03617,-0.05877 -0.08326,-0.0871 -0.11293,-0.13208c-0.22871,-0.28809 -0.1167,-0.56851 0.02937,-0.84814c0.05667,-0.09417 0.1409,-0.20135 0.25248,-0.16134c0.28404,0.10186 0.38375,0.36659 0.46316,0.62404c0.00574,0.04785 -0.02623,0.10508 0.01435,0.11963c0.02623,-0.10508 -0.03156,-0.26319 0.1497,-0.28978c0.12978,-0.01071 0.18184,0.09955 0.2136,0.20253c0.11118,0.36044 0.1745,0.72662 0.17541,1.13911c0.0249,-0.19716 -0.0082,-0.3922 0.19049,-0.43545c0.18491,-0.03673 0.28328,0.13594 0.37591,0.26074c0.24823,0.32944 0.36514,0.73774 0.61337,1.06718c0.1598,0.32063 0.11363,0.70479 0.35249,0.99652c0.08361,0.37346 -0.0575,0.73502 -0.01369,1.05984c0.21939,-0.35639 0.38596,-0.78896 0.89646,-0.90357c0.16882,0.07199 0.14909,0.19085 0.07787,0.32559c0.13495,-0.08899 0.12501,-0.25284 0.21939,-0.35638c0.38401,-0.4004 1.45344,-0.50921 1.95395,-0.1809c0.14776,0.09879 0.26585,0.15259 0.43985,0.14628c0.3342,-0.00609 0.62476,0.10954 0.90363,0.28969c0.23676,0.23373 0.22276,0.40044 -0.12312,0.47104c-0.37996,0.06983 -0.76355,0.14981 -1.14351,0.21964c0.6533,-0.09775 1.26848,0.13429 1.97228,0.21495c-0.18009,-0.32791 -0.38354,-0.52679 -0.53837,-0.7655c-0.34107,-0.29403 -0.4528,-0.78062 -0.88748,-1.00519c-0.1246,-0.06758 -0.14468,-0.23507 -0.19961,-0.36925c-0.07731,-0.19946 -0.04878,-0.40675 -0.31386,-0.5934c-0.22815,-0.16196 -0.39368,-0.53044 -0.61301,-0.78082c-0.07961,-0.09725 -0.11425,-0.22415 -0.05682,-0.3524c0.0871,-0.08326 0.19946,-0.07731 0.30818,-0.06122c0.82611,0.25044 1.52146,0.70587 2.10425,1.31557c0.30623,0.32734 0.67046,0.65258 0.69299,1.16442c0.00497,0.08192 -0.00385,0.17035 0.00112,0.25228c0.00881,-0.08843 -0.00266,-0.18413 0.00979,-0.28271c0.01082,-1.08377 0.11371,-2.16887 -0.04946,-3.24634c-0.03674,-0.18491 0.00061,-0.48064 0.25786,-0.39983c0.25725,0.0808 0.34379,-0.1286 0.51779,-0.1349c0.07101,0.02546 0.13187,0.04729 0.20288,0.07276c-0.02337,0.12901 -0.08156,0.29132 0.13301,0.29957c0.56907,0.00943 0.55487,0.33637 0.4398,0.75306c-0.07353,0.23696 -0.11662,0.48484 -0.18517,0.80372c0.20771,-0.29188 0.35952,-0.52367 0.53239,-0.78225c0.19541,0.25325 -0.06723,0.41096 0.04856,0.56697c0.8012,0.44759 0.77547,1.2856 0.87589,2.12302c0.6719,-0.4689 1.30245,-0.91826 2.08419,-1.11879c-0.03294,0.25151 -0.27738,0.35848 -0.24219,0.61153c0.4171,-0.20534 0.58772,-0.96849 1.28231,-0.47898c-0.69946,0.48191 -1.45098,0.85356 -1.9535,1.52058c-0.23891,0.31504 -0.46249,0.55543 -0.92053,0.45988c-0.10508,-0.02623 -0.3899,-0.09402 -0.39815,0.12055c-0.00825,0.21457 0.22815,0.16196 0.37821,0.15852c1.4042,0.01123 2.61348,0.50212 3.61409,1.47918c0.39025,0.38037 0.85305,0.71806 0.98354,1.28006c-0.76565,0.0918 -0.66451,-0.76494 -1.18034,-1.01861c0.03653,0.34512 -0.16313,0.58265 -0.40394,0.67948c-0.49539,0.20017 -0.65863,-0.27053 -0.86551,-0.61949c-0.15678,0.14986 -0.09556,0.45804 -0.31663,0.436c-0.24136,-0.02931 -0.09893,-0.29879 -0.16036,-0.44676c-0.01952,-0.04135 -0.03541,-0.09284 -0.05129,-0.14433c-0.04345,-0.03848 -0.01721,-0.14357 -0.11292,-0.13209c-0.01015,-0.00363 -0.02182,0.06087 -0.03274,0.0913c0.10041,0.83743 -0.7052,0.43406 -1.00862,0.73741c0.15769,0.26263 0.44174,0.36449 0.67717,0.50615c0.54836,0.32258 0.99221,0.74507 1.38666,1.24143c0.12594,0.15965 0.23061,0.5063 0.18275,0.51204c-0.73522,0.10271 -0.20371,0.56809 -0.17426,0.77328c0.11133,0.807 0.09749,1.42028 -0.19676,1.92156c-0.10487,-0.18644 -0.20324,-0.35911 -0.29147,-0.52813c-0.1309,-0.24157 -0.20073,-0.62152 -0.40649,-0.71821c-0.60062,-0.27263 -0.89419,-0.85876 -1.3903,-1.23128c-0.06871,-0.12768 -0.06198,-0.27411 -0.03499,-0.41326c-0.04366,0.12174 -0.01993,0.27908 -0.23297,0.20268c-0.19254,-0.22933 -0.36402,-0.48545 -0.71984,-0.5787c0.0769,0.51988 0.31842,0.99575 0.04809,1.49416c-0.09704,-0.0806 -0.19772,-0.15105 -0.31868,-0.22877c-0.00252,0.26243 0.22487,0.45845 0.05928,0.69674c-0.058,0.0021 -0.10298,0.03177 -0.22835,-0.00174z" data-paper-data="{&quot;index&quot;:null}" fill="#040404" stroke-width="1"/></g></g></svg>