<svg version="1.1" xmlns="http://www.w3.org/2000/svg" xmlns:xlink="http://www.w3.org/1999/xlink" width="725.9931" height="302.39328" viewBox="0,0,725.9931,302.39328"><g transform="translate(123.45072,-149.32441)"><g data-paper-data="{&quot;isPaintingLayer&quot;:true}" fill="#323232" fill-rule="nonzero" stroke="none" stroke-linecap="butt" stroke-linejoin="miter" stroke-miterlimit="10" stroke-dasharray="" stroke-dashoffset="0" style="mix-blend-mode: normal"><path d="M480.64721,149.32441l-0.05964,56.33948v3.24271h-3.61309c-155.98712,0 -311.97757,0 -467.97132,0c-1.15797,0 -2.31594,0.04022 -3.47889,0.06034v-59.64252h173.94984v13.45348h130.21016v-13.45348zM242.34274,175.4119c-62.18611,0 -124.37721,-0.01173 -186.57326,-0.03519c-3.71331,-0.10699 -7.29644,1.38821 -9.85522,4.11247c-3.82182,3.94153 -4.11503,8.58187 -2.48493,13.42834c1.44127,4.26832 6.68445,7.73726 11.08278,7.73726c125.04814,0 250.09295,-0.00838 375.13448,-0.02514c4.74124,0 8.40402,-2.5439 10.51621,-6.62116c4.69651,-9.07959 -2.06745,-18.63177 -11.26168,-18.63177c-62.18281,0.06033 -124.36892,0.07207 -186.55835,0.03519z" stroke-width="1"/><path d="M-123.45072,451.71769v-245.14043h725.68923v245.14043z" stroke-width="0"/><path d="M-123.32951,237.58056v-79.8541h133.57179v79.8541z" stroke-width="0"/><path d="M442.55589,221.05902v-65.16829h159.9865v65.16829z" stroke-width="0"/><path d="M-119.97225,170.57654v-19.27513h720.40376v19.27513z" stroke-width="0"/></g></g></svg>