<svg version="1.1" xmlns="http://www.w3.org/2000/svg" xmlns:xlink="http://www.w3.org/1999/xlink" width="794" height="288.52849" viewBox="0,0,794,288.52849"><defs><linearGradient x1="243.5" y1="287.47148" x2="243.5" y2="438.90101" gradientUnits="userSpaceOnUse" id="color-1"><stop offset="0" stop-color="#2e2e2e" stop-opacity="0"/><stop offset="1" stop-color="#2e2e2e"/></linearGradient></defs><g transform="translate(137.5,-287.47152)"><g data-paper-data="{&quot;isPaintingLayer&quot;:true}" fill-rule="nonzero" stroke-linejoin="miter" stroke-miterlimit="10" stroke-dasharray="" stroke-dashoffset="0" style="mix-blend-mode: normal"><path d="M-119.5,438.90101v-151.42949h726v151.42949z" fill="url(#color-1)" stroke="none" stroke-width="0" stroke-linecap="butt"/><path d="M-137.5,576.00001v-277.53719h794v277.53719z" fill="#f9f9f9" stroke="none" stroke-width="0" stroke-linecap="butt"/><path d="M211.60781,308.18078c-0.55977,0 -1.08747,-0.10496 -1.5831,-0.31487c-0.4898,-0.21574 -0.91837,-0.51312 -1.28572,-0.89213c-0.36152,-0.37901 -0.64723,-0.82216 -0.85715,-1.32945c-0.20408,-0.50729 -0.30613,-1.05831 -0.30613,-1.65307c0,-0.58309 0.10205,-1.12537 0.30613,-1.62683c0.20991,-0.50729 0.49562,-0.95044 0.85715,-1.32945c0.36735,-0.37901 0.793,-0.6764 1.27697,-0.89213c0.4898,-0.21574 1.02041,-0.32362 1.59185,-0.32362c0.53644,0 0.99709,0.06997 1.38193,0.20992c0.39067,0.13412 0.78134,0.36152 1.17202,0.68222c0.05247,0.04081 0.0933,0.08455 0.12246,0.1312c0.03499,0.04665 0.05831,0.09329 0.06997,0.13994c0.01166,0.04081 0.01749,0.0933 0.01749,0.15744c0,0.13412 -0.04957,0.24489 -0.14869,0.33236c-0.0933,0.08747 -0.207,0.13702 -0.3411,0.14869c-0.12828,0.00583 -0.25656,-0.0379 -0.38485,-0.1312c-0.25656,-0.2274 -0.52187,-0.39941 -0.79593,-0.51603c-0.27406,-0.11662 -0.63849,-0.17493 -1.0933,-0.17493c-0.40816,0 -0.793,0.08455 -1.15452,0.25365c-0.36152,0.16327 -0.68222,0.39068 -0.96211,0.68222c-0.27406,0.29155 -0.48688,0.63266 -0.63849,1.02333c-0.1516,0.38484 -0.2274,0.79592 -0.2274,1.23324c0,0.44898 0.0758,0.86589 0.2274,1.25074c0.1516,0.38484 0.36443,0.72304 0.63849,1.01459c0.27989,0.29155 0.60058,0.52187 0.96211,0.69097c0.36152,0.16327 0.74636,0.2449 1.15452,0.2449c0.35568,0 0.69097,-0.06122 1.00584,-0.18367c0.3207,-0.12246 0.62682,-0.29155 0.91837,-0.50729c0.12246,-0.0933 0.2449,-0.13412 0.36735,-0.12246c0.12246,0.01166 0.22448,0.06123 0.30612,0.14869c0.08747,0.08747 0.1312,0.207 0.1312,0.3586c0,0.06997 -0.01458,0.13994 -0.04373,0.20992c-0.02916,0.06414 -0.06997,0.12245 -0.12246,0.17493c-0.37902,0.29738 -0.78426,0.52478 -1.21574,0.68222c-0.42566,0.1516 -0.87464,0.2274 -1.34695,0.2274zM218.14095,308.11956c-0.56561,0 -1.06414,-0.12246 -1.49563,-0.36735c-0.43149,-0.25073 -0.7726,-0.59184 -1.02334,-1.02334c-0.2449,-0.43732 -0.36735,-0.93878 -0.36735,-1.50438c0,-0.57144 0.12246,-1.07289 0.36735,-1.50438c0.25073,-0.43732 0.59184,-0.77843 1.02334,-1.02333c0.43149,-0.25073 0.93004,-0.3761 1.49563,-0.3761c0.55394,0 1.04665,0.12537 1.47814,0.3761c0.43149,0.24489 0.76968,0.58601 1.01459,1.02333c0.25073,0.43149 0.37609,0.93295 0.37609,1.50438c0,0.56561 -0.12246,1.06706 -0.36735,1.50438c-0.2449,0.43149 -0.58309,0.7726 -1.01458,1.02334c-0.43149,0.24489 -0.92712,0.36735 -1.48689,0.36735zM218.14095,307.17494c0.36152,0 0.6793,-0.08163 0.95335,-0.24489c0.27989,-0.1691 0.49855,-0.39942 0.65599,-0.69097c0.15743,-0.29155 0.23615,-0.62974 0.23615,-1.01459c0,-0.38484 -0.07871,-0.72303 -0.23615,-1.01458c-0.15743,-0.29738 -0.3761,-0.5277 -0.65599,-0.69097c-0.27406,-0.1691 -0.59183,-0.25365 -0.95335,-0.25365c-0.36735,0 -0.69097,0.08455 -0.97085,0.25365c-0.27406,0.16327 -0.49272,0.39359 -0.65598,0.69097c-0.15743,0.29155 -0.23615,0.62974 -0.23615,1.01458c0,0.38484 0.07872,0.72304 0.23615,1.01459c0.16326,0.29155 0.38193,0.52187 0.65598,0.69097c0.27989,0.16327 0.6035,0.24489 0.97085,0.24489zM223.95687,308.07583c-0.30904,0 -0.58309,-0.08163 -0.82217,-0.24489c-0.23324,-0.1691 -0.41691,-0.39651 -0.55103,-0.68222c-0.12828,-0.29155 -0.19242,-0.62682 -0.19242,-1.00584v-5.70266c0,-0.1516 0.04665,-0.27697 0.13994,-0.3761c0.09912,-0.09913 0.22448,-0.14869 0.37609,-0.14869c0.15743,0 0.2828,0.04956 0.3761,0.14869c0.09912,0.09913 0.14869,0.22449 0.14869,0.3761v5.70266c0,0.25656 0.04665,0.46939 0.13994,0.63849c0.09912,0.1691 0.2274,0.25364 0.38484,0.25364h0.26239c0.13412,0 0.24489,0.04956 0.33236,0.14869c0.08747,0.0933 0.1312,0.21574 0.1312,0.36735c0,0.15744 -0.06706,0.28572 -0.20117,0.38484c-0.12828,0.0933 -0.29738,0.13994 -0.50729,0.13994zM228.00962,308.11956c-0.56561,0 -1.06414,-0.12246 -1.49563,-0.36735c-0.43149,-0.25073 -0.7726,-0.59184 -1.02333,-1.02334c-0.2449,-0.43732 -0.36735,-0.93878 -0.36735,-1.50438c0,-0.57144 0.12245,-1.07289 0.36735,-1.50438c0.25073,-0.43732 0.59184,-0.77843 1.02333,-1.02333c0.43149,-0.25073 0.93004,-0.3761 1.49563,-0.3761c0.55394,0 1.04665,0.12537 1.47814,0.3761c0.43149,0.24489 0.76968,0.58601 1.01459,1.02333c0.25073,0.43149 0.3761,0.93295 0.3761,1.50438c0,0.56561 -0.12246,1.06706 -0.36735,1.50438c-0.2449,0.43149 -0.58309,0.7726 -1.01458,1.02334c-0.43149,0.24489 -0.92713,0.36735 -1.48689,0.36735zM228.00962,307.17494c0.36152,0 0.6793,-0.08163 0.95336,-0.24489c0.27989,-0.1691 0.49854,-0.39942 0.65598,-0.69097c0.15743,-0.29155 0.23615,-0.62974 0.23615,-1.01459c0,-0.38484 -0.07872,-0.72303 -0.23615,-1.01458c-0.15743,-0.29738 -0.3761,-0.5277 -0.65598,-0.69097c-0.27406,-0.1691 -0.59184,-0.25365 -0.95336,-0.25365c-0.36735,0 -0.69096,0.08455 -0.97085,0.25365c-0.27406,0.16327 -0.49272,0.39359 -0.65599,0.69097c-0.15743,0.29155 -0.23615,0.62974 -0.23615,1.01458c0,0.38484 0.07872,0.72304 0.23615,1.01459c0.16326,0.29155 0.38193,0.52187 0.65599,0.69097c0.27989,0.16327 0.6035,0.24489 0.97085,0.24489zM232.97713,304.5073c0,-0.41983 0.10205,-0.79301 0.30613,-1.11954c0.20408,-0.33236 0.48105,-0.59476 0.83091,-0.78718c0.34985,-0.19826 0.73179,-0.29738 1.14578,-0.29738c0.41983,0 0.73179,0.06705 0.93587,0.20117c0.20991,0.13412 0.28863,0.29738 0.23615,0.4898c-0.01749,0.0933 -0.05831,0.16618 -0.12246,0.21866c-0.0583,0.05248 -0.12537,0.08747 -0.20117,0.10496c-0.0758,0.01166 -0.15743,0.00583 -0.2449,-0.01749c-0.44898,-0.08747 -0.85132,-0.0933 -1.207,-0.01749c-0.35568,0.0758 -0.63558,0.21867 -0.83966,0.42858c-0.20408,0.20992 -0.30613,0.47522 -0.30613,0.79592zM232.98587,308.07583c-0.16326,0 -0.29155,-0.04373 -0.38485,-0.13119c-0.0933,-0.08747 -0.13993,-0.21866 -0.13993,-0.3936v-4.66183c0,-0.1691 0.04664,-0.29738 0.13993,-0.38485c0.0933,-0.0933 0.22158,-0.13994 0.38485,-0.13994c0.17493,0 0.30613,0.04373 0.3936,0.1312c0.08747,0.08747 0.1312,0.21866 0.1312,0.39359v4.66184c0,0.1691 -0.04373,0.3003 -0.1312,0.39359c-0.08747,0.08747 -0.21867,0.1312 -0.3936,0.1312zM241.2436,308.07583c-0.1516,0 -0.27988,-0.05247 -0.38484,-0.15743c-0.10496,-0.10496 -0.15743,-0.23323 -0.15743,-0.38484v-7.0671c0,-0.16327 0.05247,-0.29447 0.15743,-0.39359c0.10496,-0.10496 0.23323,-0.15743 0.38484,-0.15743h2.0904c0.52479,0 0.98835,0.11662 1.39068,0.34985c0.40233,0.2274 0.7172,0.54519 0.9446,0.95335c0.22741,0.40816 0.34111,0.87755 0.34111,1.40817c0,0.50729 -0.11371,0.95919 -0.34111,1.3557c-0.22741,0.3965 -0.54227,0.70554 -0.9446,0.92712c-0.40233,0.22158 -0.86589,0.33236 -1.39068,0.33236h-1.53937v2.29156c0,0.1516 -0.05247,0.27988 -0.15743,0.38484c-0.09912,0.10496 -0.23033,0.15744 -0.39359,0.15744zM241.79463,304.2449h1.53937c0.3207,0 0.6035,-0.06997 0.8484,-0.20992c0.2449,-0.13994 0.43732,-0.33236 0.57727,-0.57726c0.13994,-0.24489 0.20992,-0.52186 0.20992,-0.83091c0,-0.33819 -0.06997,-0.63265 -0.20992,-0.88338c-0.13994,-0.25656 -0.33236,-0.45773 -0.57727,-0.6035c-0.2449,-0.14577 -0.5277,-0.21866 -0.8484,-0.21866h-1.53937zM247.74097,308.07583c-0.1516,0 -0.27988,-0.04956 -0.38484,-0.14869c-0.09912,-0.10496 -0.14869,-0.23323 -0.14869,-0.38484v-4.64434c0,-0.16327 0.04956,-0.29155 0.14869,-0.38485c0.10496,-0.09913 0.23323,-0.14869 0.38484,-0.14869c0.16326,0 0.29155,0.04956 0.38485,0.14869c0.09912,0.0933 0.14869,0.22158 0.14869,0.38485v4.64434c0,0.1516 -0.04956,0.27988 -0.14869,0.38484c-0.0933,0.09913 -0.22158,0.14869 -0.38485,0.14869zM247.74097,301.4373c-0.18659,0 -0.34986,-0.06705 -0.4898,-0.20117c-0.13412,-0.13994 -0.20117,-0.3032 -0.20117,-0.4898c0,-0.18659 0.06705,-0.34694 0.20117,-0.48106c0.13994,-0.13994 0.3032,-0.20992 0.4898,-0.20992c0.18659,0 0.34694,0.06997 0.48105,0.20992c0.13994,0.13412 0.20992,0.29447 0.20992,0.48106c0,0.18659 -0.06997,0.34985 -0.20992,0.4898c-0.13412,0.13412 -0.29447,0.20117 -0.48105,0.20117zM252.85401,308.11956c-0.55977,0 -1.05831,-0.12536 -1.49563,-0.37609c-0.43149,-0.25656 -0.77259,-0.6035 -1.02333,-1.04082c-0.2449,-0.43732 -0.36735,-0.93004 -0.36735,-1.47814c0,-0.56561 0.12246,-1.06706 0.36735,-1.50438c0.2449,-0.43732 0.57726,-0.77843 0.99709,-1.02334c0.42566,-0.25073 0.91546,-0.3761 1.4694,-0.3761c0.40816,0 0.78134,0.07872 1.11953,0.23615c0.34402,0.15744 0.65307,0.39359 0.92713,0.70845c0.0933,0.11079 0.12536,0.22449 0.09621,0.34111c-0.02332,0.11662 -0.09913,0.22157 -0.2274,0.31486c-0.0933,0.06997 -0.20117,0.0933 -0.32361,0.06997c-0.11662,-0.02916 -0.22449,-0.09038 -0.32362,-0.18367c-0.3382,-0.36152 -0.76093,-0.54228 -1.26823,-0.54228c-0.35568,0 -0.67056,0.08163 -0.94461,0.24489c-0.26823,0.16327 -0.48105,0.39068 -0.63849,0.68222c-0.1516,0.29155 -0.22741,0.63557 -0.22741,1.03207c0,0.37901 0.07872,0.71429 0.23615,1.00584c0.15743,0.29155 0.37318,0.52187 0.64723,0.69097c0.27989,0.1691 0.60642,0.25364 0.9796,0.25364c0.23907,0 0.4519,-0.02916 0.63849,-0.08746c0.18659,-0.05831 0.35569,-0.14869 0.50729,-0.27114c0.11079,-0.0933 0.22449,-0.14577 0.34111,-0.15744c0.12246,-0.01166 0.2274,0.02333 0.31486,0.10496c0.11662,0.0933 0.18076,0.20117 0.19242,0.32362c0.01749,0.12246 -0.02332,0.23323 -0.12245,0.33236c-0.49562,0.46648 -1.11954,0.69971 -1.87173,0.69971zM257.53853,305.98544l-0.64723,-0.70846l3.20993,-2.86007c0.10496,-0.09913 0.22159,-0.14286 0.34986,-0.1312c0.12827,0.00583 0.23615,0.0583 0.32361,0.15743c0.09913,0.10496 0.14577,0.22159 0.13994,0.34986c-0.00583,0.12246 -0.06122,0.23324 -0.16618,0.33236zM257.04873,308.07583c-0.1516,0 -0.27697,-0.04665 -0.3761,-0.13994c-0.0933,-0.0933 -0.13994,-0.21866 -0.13994,-0.3761v-7.12832c0,-0.1516 0.04665,-0.27405 0.13994,-0.36735c0.09913,-0.09913 0.22449,-0.14869 0.3761,-0.14869c0.1516,0 0.27406,0.04956 0.36735,0.14869c0.0933,0.0933 0.13994,0.21574 0.13994,0.36735v7.12832c0,0.15744 -0.04665,0.2828 -0.13994,0.3761c-0.0933,0.0933 -0.21574,0.13994 -0.36735,0.13994zM260.7747,308.02335c-0.11079,0.0933 -0.23323,0.13412 -0.36735,0.12245c-0.13412,-0.01166 -0.24781,-0.07288 -0.34111,-0.18367l-2.11663,-2.62393l0.72595,-0.69097l2.17786,2.67641c0.08747,0.11079 0.12537,0.23032 0.1137,0.3586c-0.00583,0.12827 -0.06997,0.24198 -0.19242,0.34111zM264.63757,308.11956c-0.57727,0 -1.09038,-0.12246 -1.53936,-0.36735c-0.44898,-0.25073 -0.80176,-0.59184 -1.05831,-1.02334c-0.25073,-0.43732 -0.3761,-0.93878 -0.3761,-1.50438c0,-0.57144 0.11954,-1.07289 0.35861,-1.50438c0.23906,-0.43732 0.57143,-0.77843 0.99709,-1.02333c0.42566,-0.25073 0.91255,-0.3761 1.46066,-0.3761c0.54811,0 1.01459,0.11954 1.39942,0.3586c0.39067,0.23906 0.68805,0.57144 0.89213,0.9971c0.20992,0.41983 0.31486,0.9038 0.31486,1.45191c0,0.13412 -0.04665,0.24489 -0.13994,0.33236c-0.08747,0.08747 -0.20117,0.1312 -0.34111,0.1312h-4.20703v-0.83965h4.17203l-0.42857,0.29738c-0.00583,-0.34985 -0.07581,-0.66181 -0.20992,-0.93587c-0.12827,-0.27405 -0.31486,-0.4898 -0.55977,-0.64724c-0.24489,-0.16327 -0.54228,-0.2449 -0.89214,-0.2449c-0.3965,0 -0.7347,0.08746 -1.01458,0.26239c-0.27988,0.1691 -0.49563,0.40526 -0.64724,0.70846c-0.14577,0.3032 -0.21866,0.64724 -0.21866,1.03208c0,0.38484 0.08746,0.72595 0.26239,1.02333c0.17493,0.29738 0.414,0.53353 0.71721,0.70846c0.30905,0.17493 0.66181,0.26239 1.05831,0.26239c0.21574,0 0.43732,-0.0379 0.66473,-0.1137c0.2274,-0.08163 0.41108,-0.17492 0.55103,-0.27988c0.10496,-0.0758 0.21866,-0.11662 0.34111,-0.12245c0.12246,-0.00583 0.22741,0.03207 0.31487,0.1137c0.11662,0.09913 0.17784,0.21283 0.18367,0.34111c0.01166,0.12246 -0.04374,0.23032 -0.16619,0.32361c-0.23323,0.18659 -0.5277,0.34111 -0.88338,0.46356c-0.34985,0.11662 -0.68514,0.17493 -1.00584,0.17493zM268.95371,304.5073c0,-0.41983 0.10204,-0.79301 0.30613,-1.11954c0.20409,-0.33236 0.48106,-0.59476 0.83091,-0.78718c0.34985,-0.19826 0.73178,-0.29738 1.14578,-0.29738c0.41983,0 0.73179,0.06705 0.93587,0.20117c0.20992,0.13412 0.28863,0.29738 0.23615,0.4898c-0.01749,0.0933 -0.05831,0.16618 -0.12246,0.21866c-0.05831,0.05248 -0.12537,0.08747 -0.20117,0.10496c-0.0758,0.01166 -0.15743,0.00583 -0.24489,-0.01749c-0.44898,-0.08747 -0.85132,-0.0933 -1.207,-0.01749c-0.35568,0.0758 -0.63557,0.21867 -0.83966,0.42858c-0.20409,0.20992 -0.30613,0.47522 -0.30613,0.79592zM268.96245,308.07583c-0.16327,0 -0.29155,-0.04373 -0.38484,-0.13119c-0.0933,-0.08747 -0.13994,-0.21866 -0.13994,-0.3936v-4.66183c0,-0.1691 0.04665,-0.29738 0.13994,-0.38485c0.0933,-0.0933 0.22158,-0.13994 0.38484,-0.13994c0.17493,0 0.30613,0.04373 0.3936,0.1312c0.08747,0.08747 0.1312,0.21866 0.1312,0.39359v4.66184c0,0.1691 -0.04373,0.3003 -0.1312,0.39359c-0.08747,0.08747 -0.21866,0.1312 -0.3936,0.1312z" data-paper-data="{&quot;index&quot;:null}" fill="#323232" stroke="none" stroke-width="1" stroke-linecap="square"/><path d="M236.65,292.36667l3,-3.7742l3,3.7742" fill="none" stroke="#323232" stroke-width="1" stroke-linecap="round"/></g></g></svg>