<svg version="1.1" xmlns="http://www.w3.org/2000/svg" xmlns:xlink="http://www.w3.org/1999/xlink" width="265.35874" height="172.58581" viewBox="0,0,265.35874,172.58581"><defs><linearGradient x1="322.43225" y1="85.18824" x2="322.43225" y2="89.87822" gradientUnits="userSpaceOnUse" id="color-1"><stop offset="0" stop-color="#ff963c"/><stop offset="1" stop-color="#ff3d3c"/></linearGradient><linearGradient x1="322.43225" y1="83.00284" x2="322.43225" y2="86.15938" gradientUnits="userSpaceOnUse" id="color-2"><stop offset="0" stop-color="#ff963c"/><stop offset="1" stop-color="#ff3d3c"/></linearGradient><linearGradient x1="322.43225" y1="88.92574" x2="322.43225" y2="92.11533" gradientUnits="userSpaceOnUse" id="color-3"><stop offset="0" stop-color="#ff963c"/><stop offset="1" stop-color="#ff3d3c"/></linearGradient><linearGradient x1="322.43225" y1="71.19507" x2="322.43225" y2="73.73765" gradientUnits="userSpaceOnUse" id="color-4"><stop offset="0" stop-color="#ff963c"/><stop offset="1" stop-color="#ff3d3c"/></linearGradient><linearGradient x1="322.47836" y1="73.38832" x2="322.47836" y2="76.5285" gradientUnits="userSpaceOnUse" id="color-5"><stop offset="0" stop-color="#ff963c"/><stop offset="1" stop-color="#ff3d3c"/></linearGradient><linearGradient x1="322.43225" y1="75.62414" x2="322.43225" y2="78.1239" gradientUnits="userSpaceOnUse" id="color-6"><stop offset="0" stop-color="#ff963c"/><stop offset="1" stop-color="#ff3d3c"/></linearGradient><linearGradient x1="322.43225" y1="77.83756" x2="322.43225" y2="80.91332" gradientUnits="userSpaceOnUse" id="color-7"><stop offset="0" stop-color="#ff963c"/><stop offset="1" stop-color="#ff3d3c"/></linearGradient><linearGradient x1="322.38614" y1="80.60392" x2="322.38614" y2="83.45484" gradientUnits="userSpaceOnUse" id="color-8"><stop offset="0" stop-color="#ff963c"/><stop offset="1" stop-color="#ff3d3c"/></linearGradient><linearGradient x1="322.43225" y1="91.13883" x2="322.43225" y2="93.63859" gradientUnits="userSpaceOnUse" id="color-9"><stop offset="0" stop-color="#ff963c"/><stop offset="1" stop-color="#ff3d3c"/></linearGradient><linearGradient x1="322.43225" y1="94.14997" x2="322.43225" y2="97.55585" gradientUnits="userSpaceOnUse" id="color-10"><stop offset="0" stop-color="#ff963c"/><stop offset="1" stop-color="#ff3d3c"/></linearGradient><linearGradient x1="322.4322" y1="96.67156" x2="322.4322" y2="98.33221" gradientUnits="userSpaceOnUse" id="color-11"><stop offset="0" stop-color="#ff963c"/><stop offset="1" stop-color="#ff3d3c"/></linearGradient><linearGradient x1="322.43225" y1="72.88082" x2="322.43225" y2="73.98737" gradientUnits="userSpaceOnUse" id="color-12"><stop offset="0" stop-color="#ff963c"/><stop offset="1" stop-color="#ff3d3c"/></linearGradient><linearGradient x1="322.43225" y1="77.30701" x2="322.43225" y2="78.41356" gradientUnits="userSpaceOnUse" id="color-13"><stop offset="0" stop-color="#ff963c"/><stop offset="1" stop-color="#ff3d3c"/></linearGradient><linearGradient x1="322.43225" y1="80.07337" x2="322.43225" y2="81.17992" gradientUnits="userSpaceOnUse" id="color-14"><stop offset="0" stop-color="#ff963c"/><stop offset="1" stop-color="#ff3d3c"/></linearGradient><linearGradient x1="322.43225" y1="82.83974" x2="322.43225" y2="83.94628" gradientUnits="userSpaceOnUse" id="color-15"><stop offset="0" stop-color="#ff963c"/><stop offset="1" stop-color="#ff3d3c"/></linearGradient><linearGradient x1="322.38614" y1="92.79865" x2="322.38614" y2="94.5203" gradientUnits="userSpaceOnUse" id="color-16"><stop offset="0" stop-color="#ff963c"/><stop offset="1" stop-color="#ff3d3c"/></linearGradient><linearGradient x1="322.43225" y1="93.9052" x2="322.43225" y2="95.01174" gradientUnits="userSpaceOnUse" id="color-17"><stop offset="0" stop-color="#ff963c"/><stop offset="1" stop-color="#ff3d3c"/></linearGradient></defs><g transform="translate(-110.32064,-58.29005)"><g data-paper-data="{&quot;isPaintingLayer&quot;:true}" fill-rule="nonzero" stroke="none" stroke-linecap="butt" stroke-linejoin="miter" stroke-miterlimit="10" stroke-dasharray="" stroke-dashoffset="0" style="mix-blend-mode: normal"><g fill="#f3f3f3"><path d="M276.13923,135.2885c0,-8.82931 0,-17.54336 0,-26.25741c0,-2.30531 0.50717,-2.9969 2.83553,-2.85858c3.87291,0.23053 7.74582,0.16137 11.52652,0c1.59066,0 2.3053,0.27663 2.3053,2.09783c0,19.61044 0,39.23627 0,58.87746c0,1.65982 -0.36885,2.44362 -2.12088,2.14393h-0.27663c-4.05734,0 -8.80625,1.26793 -11.96452,-0.438c-3.15827,-1.70593 -4.61061,-6.33959 -6.91591,-9.72839c-4.14955,-6.40875 -8.27604,-12.8175 -12.44864,-19.31845c-0.80685,0.78381 -0.41496,1.63676 -0.43801,2.30531c0,8.20688 0,16.41377 0,24.62065c0,1.95951 -0.53021,2.48972 -2.44362,2.3053c-4.05733,-0.16137 -8.11467,-0.13832 -12.17201,0c-1.59066,0 -2.00562,-0.50717 -1.98257,-2.05172c0,-19.61044 0,-39.23627 0,-58.87746c0,-1.49845 0.29969,-2.3053 1.93646,-2.05172c0.64503,0.03456 1.29143,0.03456 1.93646,0c3.66543,0 7.97635,-1.42929 10.83493,0.36884c2.85857,1.79814 4.21871,5.85547 6.20127,8.94458c3.7807,5.87852 7.49224,11.80316 11.29599,17.65863c0.43801,0.92212 0.64548,1.9134 1.89035,2.2592z" stroke-width="1"/><path d="M203.015,169.29173c-2.30531,-0.23053 -6.17821,1.31402 -8.27604,-0.48411c-2.09783,-1.79814 -2.12088,-5.50967 -2.76637,-8.46046c-0.46106,-2.07477 -1.45234,-2.55889 -3.41184,-2.48972c-3.7807,0.16906 -7.5614,0.16906 -11.3421,0c-1.72897,0 -2.30531,0.55327 -2.78941,2.16698c-0.59938,2.58194 -1.5215,5.09473 -2.3053,7.67667c-0.06634,0.53503 -0.35272,1.0182 -0.79026,1.33322c-0.43753,0.31502 -0.98659,0.43338 -1.51504,0.32659c-4.61061,-0.11526 -9.40564,-0.11526 -14.10846,0c-1.63676,0 -2.00562,-0.29969 -1.42929,-2.02867c6.59317,-19.76414 13.13254,-39.53596 19.61813,-59.31547c0.41495,-1.29097 0.96823,-1.93645 2.48973,-1.89034c4.77967,0 9.56701,0 14.36204,0c0.5757,-0.09228 1.1643,0.05133 1.63282,0.39838c0.46852,0.34705 0.77742,0.86826 0.8569,1.44586c6.43948,19.81025 12.93275,39.59743 19.47982,59.36157c0.59938,1.82119 0.25359,2.30531 -1.54455,2.12088c-2.39751,-0.25358 -4.86419,-0.16137 -8.16078,-0.16137z" stroke-width="1"/><path d="M115.32124,137.27107c0,-9.77449 0,-19.52592 0,-29.27736c0,-1.75203 0.41495,-2.30531 2.3053,-2.30531c8.43741,-0.53022 16.87483,-1.45234 25.35835,0c12.31033,2.19004 18.81128,10.37386 18.44243,23.39883c-0.27663,11.87231 -7.81498,20.01004 -19.84867,21.48543c-1.19876,0.16137 -2.30531,0.32274 -3.57322,0.43801c-4.61061,0.43801 -4.6106,0.41496 -4.6106,5.20999c0,3.59627 0,7.19255 0,10.76577c0,2.00562 -0.62243,2.44362 -2.48973,2.3053c-4.33397,-0.13832 -8.66795,-0.16137 -12.97886,0c-2.00562,0 -2.62804,-0.3919 -2.60499,-2.51278c0.06916,-9.77449 0,-19.66424 0,-29.50789z" stroke-width="1"/><path d="M235.38147,137.82434c0,9.59007 0,19.15707 0,28.74714c0,2.30531 -0.71465,2.85858 -2.92774,2.76637c-4.31092,-0.18443 -8.64489,-0.13832 -12.97886,0c-1.63676,0 -2.3053,-0.32274 -2.3053,-2.09783c0,-19.70266 0,-39.40533 0,-59.10799c0,-1.42929 0.3919,-1.91341 1.8673,-1.8673c4.61061,0 9.38259,0 14.08541,0c2.02867,0 2.12088,0.82991 2.12088,2.30531c0.11526,9.75143 0.13832,19.50287 0.13832,29.2543z" stroke-width="1"/><path d="M317.12754,74.1749c0.80685,-3.75764 1.63676,-7.51529 2.3053,-11.29599c0.23053,-1.1296 0.87602,-1.40624 1.93646,-1.38319c5.32525,0 10.65051,0 15.97575,0c1.10697,-0.09567 2.12469,0.61189 2.42057,1.68287c0.57632,1.40623 1.26792,2.78943 2.05172,4.4723c0.53022,-1.08349 0.94518,-1.89035 1.31403,-2.72026c1.54455,-3.48101 2.78942,-4.14954 6.45485,-3.31963c2.61835,0.61409 4.36224,3.09121 4.05733,5.76326c0,2.30531 0,4.6106 0,6.91591c-0.95557,0.75545 -2.19229,1.05832 -3.3888,0.82991h-29.83063c-1.1757,-0.06916 -2.42057,0.09221 -3.29658,-0.94518z" stroke-width="1"/><path d="M301.244,74.22101c0,-2.55889 0,-5.14083 0,-7.69972c-0.1526,-2.43295 1.61507,-4.56426 4.03428,-4.86419c2.18993,-0.23126 4.39547,-0.27753 6.59317,-0.13832c1.33708,0 1.22181,1.17571 1.47539,1.95951c1.19876,3.55017 2.30531,7.14644 3.45796,10.71966c-0.43169,0.49147 -1.05183,0.77639 -1.70592,0.7838c-4.01123,0.11526 -8.04551,0.11526 -12.05674,0c-0.67905,0.00728 -1.3305,-0.26832 -1.79813,-0.76075z" stroke-width="1"/><path d="M301.244,91.92574v-2.76636c1.03179,-0.80244 2.3557,-1.12923 3.64238,-0.89907h45.06869c1.29345,-0.21672 2.61908,0.10844 3.66543,0.89907v2.76636c-1.04987,0.78253 -2.37518,1.09928 -3.66543,0.87602h-45.06869c-1.28339,0.23664 -2.60694,-0.08169 -3.64238,-0.87602z" stroke-width="1"/><path d="M353.6205,89.15938h-52.3765v-2.30531c0.97645,-0.71028 2.19964,-0.99319 3.38879,-0.7838h45.57585c1.1961,-0.19744 2.42184,0.08415 3.41185,0.7838z" stroke-width="1"/><path d="M301.244,91.92574h52.3765v2.3053c-0.96326,0.73905 -2.19585,1.03252 -3.3888,0.80686h-45.59891c-1.19309,0.23175 -2.42816,-0.06231 -3.38879,-0.80686z" stroke-width="1"/><path d="M301.244,74.22101h15.46858c0.12052,-0.03459 0.24833,-0.03459 0.36885,0h36.53906v1.65981c-0.99001,0.69965 -2.21576,0.98125 -3.41185,0.78381h-45.57585c-1.18944,0.22051 -2.41698,-0.06343 -3.38879,-0.78381z" stroke-width="1"/><path d="M301.244,78.62414v-1.65982c0.94518,-0.78381 2.09783,-0.53022 3.18132,-0.53022h46.10607c1.06044,0 2.30531,-0.27663 3.18132,0.53022v1.65982c-0.95557,0.75545 -2.19229,1.05832 -3.3888,0.82991h-45.69112c-1.19635,0.22223 -2.43051,-0.08002 -3.38879,-0.82991z" stroke-width="1"/><path d="M301.244,78.62414h52.3765v1.65982c-0.98359,0.7135 -2.21831,0.98881 -3.41185,0.76075c-15.19964,0 -30.39159,0 -45.57585,0c-1.18626,0.22991 -2.41464,-0.04585 -3.38879,-0.76075z" stroke-width="1"/><path d="M353.6205,81.41356v1.65981c-0.98359,0.7135 -2.21831,0.98882 -3.41185,0.76075h-45.57585c-1.18626,0.22991 -2.41464,-0.04586 -3.38879,-0.76075v-1.65981c0.94518,-0.80685 2.09783,-0.53022 3.18132,-0.53022h46.10607c0.96823,0.04611 2.12088,-0.27663 3.08911,0.53022z" stroke-width="1"/><path d="M353.6205,84.17992v1.65982c-0.96202,0.55397 -2.09162,0.74224 -3.18132,0.53022h-46.10608c-1.08349,0 -2.3053,0.25359 -3.18132,-0.53022v-1.65982c0.94518,-0.80685 2.09783,-0.53022 3.18132,-0.53022h46.10608c1.06044,0 2.21309,-0.27663 3.18132,0.53022z" stroke-width="1"/><path d="M301.244,94.13883h52.3765v1.65982c-0.98359,0.7135 -2.21831,0.98881 -3.41185,0.76075h-45.57585c-1.18626,0.22991 -2.41464,-0.04585 -3.38879,-0.76074z" stroke-width="1"/><path d="M301.244,99.67156v-1.65982c0.97181,-0.72037 2.19936,-1.00431 3.38879,-0.78381h45.57585c1.1969,-0.23011 2.43537,0.05441 3.41185,0.78381v1.65982c-0.96326,0.73906 -2.19585,1.03252 -3.3888,0.80686h-45.59891c-1.19309,0.23175 -2.42816,-0.06232 -3.38879,-0.80686z" stroke-width="1"/><path d="M301.244,99.67156h52.3765c0.48411,1.75203 -0.64548,1.65982 -1.84424,1.65982h-48.71107c-1.1757,0 -2.3053,0.09221 -1.82119,-1.65982z" stroke-width="1"/><path d="M353.6205,76.98737h-52.3765v-1.10655h52.3765z" stroke-width="1"/><path d="M353.6205,81.41356h-52.3765v-1.10655h52.3765z" stroke-width="1"/><path d="M353.6205,84.17992h-52.3765v-1.10654h52.3765z" stroke-width="1"/><path d="M301.244,85.83974h52.3765v1.10654h-52.3765z" stroke-width="1"/><path d="M301.244,95.79865h52.3765v1.10654c-0.96202,0.55397 -2.09162,0.74224 -3.18132,0.53022h-46.10608c-1.08349,0 -2.3053,0.25358 -3.18132,-0.53022z" stroke-width="1"/><path d="M301.244,96.9052h52.3765v1.10655h-52.3765z" stroke-width="1"/><g><path d="M372.47418,215.89763l0.17902,-0.26878c-0.26836,-0.28858 -0.5413,-0.57154 -0.80334,-0.86541l-0.0071,0.01243l-0.30223,-0.1727c-0.10232,-0.05597 -0.1717,-0.16463 -0.1717,-0.28949c0,-0.18212 0.14763,-0.32976 0.32976,-0.32976c0.01563,0 0.03101,0.00109 0.04606,0.0032l0.33123,0.0414c0.50211,-0.00107 0.99508,-0.01711 1.49509,-0.04408c0.22372,-0.01207 0.31169,0.05984 0.49288,-0.07572c0.34163,-0.25558 0.58506,-0.69055 0.76928,-1.06154c0,0 0.14748,-0.29494 0.44242,-0.14747c0.29494,0.14747 0.14747,0.44241 0.14747,0.44241c-0.22975,0.45674 -0.54807,1.02015 -0.98943,1.31272c-0.38356,0.25426 -0.41453,0.16212 -0.82615,0.18809c-0.31599,0.01994 -0.62915,0.03204 -0.94333,0.03834c0.34761,0.35175 0.68035,0.7113 1.00108,1.09031c0.25072,0.29628 0.558,0.59306 0.74266,0.93717c0.32981,0.6146 0.3525,1.26518 0.38996,1.93949c0.02353,0.42341 0.04417,0.8188 0.01564,1.21886c-0.19412,0.03245 -0.34207,0.20124 -0.34207,0.40458c0,0.02462 0.00216,0.04872 0.00632,0.07214c-0.00286,0.00267 -0.00568,0.00538 -0.00846,0.00813c-0.06092,-0.03585 -0.13193,-0.05642 -0.20774,-0.05642c-0.17167,0 -0.31872,0.10546 -0.37989,0.25513c-0.11265,-0.05138 -0.21695,-0.11674 -0.30575,-0.20007c-0.08405,-0.07887 -0.10665,-0.2116 -0.19514,-0.28545c-0.15028,-0.12543 -0.56284,-0.16149 -0.71155,-0.20059c-0.71397,-0.18771 -1.39267,-0.36945 -1.88344,-0.943l-0.21984,-0.2638c0,0 -0.21111,-0.25333 0.04222,-0.46443c0.19579,-0.16316 0.36636,-0.0489 0.43374,0.01141c0.71118,-0.6214 0.94245,-1.52308 1.43231,-2.30712z" stroke-width="0.5"/><path d="M349.7399,216.25878c-0.03688,-0.02826 -0.07142,-0.06906 -0.10031,-0.12684c-0.14747,-0.29495 0.14747,-0.44242 0.14747,-0.44242c0.3873,-0.1935 0.84005,-0.43788 1.25411,-0.56916c0.75529,-0.23949 1.69496,-0.07784 2.48049,-0.12466c0.98683,-0.05882 2.21545,-0.20523 3.1887,0.05677c0.42206,0.11361 0.73755,0.41875 1.05551,0.69714c0.23318,0.58101 0.44768,1.19092 0.54089,1.81288c0.12047,0.80377 0.0476,1.6549 0.0476,2.46703c0,0.37933 0.0416,0.80171 -0.00197,1.17915c-0.02842,0.2462 -0.11562,0.48457 -0.13057,0.73196c-0.02517,0.41647 0.03026,0.77569 -0.10455,1.18398c-0.12554,0.3802 -0.37132,0.70627 -0.56926,1.05009c-0.47084,0.56835 -0.97295,1.13597 -1.41498,1.72578c-0.41136,0.54888 -0.72655,1.18351 -1.14795,1.72091c-0.3415,0.4355 -0.77198,0.74955 -1.18808,1.10155c-0.26938,0.22787 -0.56572,0.47945 -0.81536,0.72902c-0.27773,0.27763 -0.21892,0.38508 -0.65651,0.51934c-0.16881,0.0518 -0.35138,0.03544 -0.52706,0.05315c-0.59626,-0.34555 -1.11429,-0.7841 -1.57943,-1.28678c-1.14236,-1.23454 -2.42906,-2.69527 -2.32811,-4.50549c0.03569,-0.64006 0.29707,-1.08496 0.5552,-1.65382c0.20977,-0.48259 0.51817,-0.91339 0.921,-1.2591c0.21263,-0.18248 0.48153,-0.29173 0.69367,-0.47478c0.20459,-0.17654 0.18432,-0.41197 0.26495,-0.65596c0.09654,-0.29212 0.20956,-0.43583 0.24919,-0.72692c0.05408,-0.39724 -0.18142,-0.68865 -0.29474,-1.04694c-0.20333,-0.6429 -0.36835,-1.29505 -0.53327,-1.95451z" stroke-width="0.5"/><path d="M348.57574,218.09926c0.12332,-0.1035 0.2956,-0.06044 0.2956,-0.06044l0.40465,0.24809c0.16679,0.45314 0.19694,0.82082 0.19687,1.30292c-0.00003,0.19685 0.02048,0.71972 -0.0775,0.89234c-0.50779,0.89459 -1.57981,0.33855 -2.1359,-0.15683c-0.13171,-0.11733 -0.30592,-0.20457 -0.38643,-0.36151c-0.22182,-0.43244 -0.04352,-1.0591 0.17318,-1.44626c0.08766,-0.15661 0.15028,-0.35231 0.30455,-0.44403c0.14875,-0.08844 0.34437,-0.03692 0.51726,-0.04455c0.23663,-0.01045 0.47522,0.02026 0.7077,0.07028z" stroke-width="0.5"/><path d="M359.84427,224.5984c0.0265,0.00857 0.04255,0.01659 0.04255,0.01659l0.07036,0.03581c0.33177,0.14709 0.66113,0.16231 1.00421,0.29069c0.22006,0.02591 1.1694,0.06849 1.25164,0.22659c0.11181,0.21495 -0.04116,0.49826 -0.16109,0.70879c-0.07308,0.12829 -0.25293,0.15254 -0.37602,0.23407c-0.40555,0.26862 -0.87924,0.6214 -1.19767,0.98633c-0.37274,0.42716 -0.32109,1.14913 -0.85764,1.46839c-0.18638,0.11091 -0.41649,0.23973 -0.62512,0.1805c-0.96859,-0.27497 -0.14775,-1.20885 -0.31119,-1.7475c-0.00583,-0.01922 -0.02534,-0.0192 -0.04869,-0.01461l0.00148,0.01182l-0.34658,0.04333c-0.01505,0.0021 -0.03044,0.00319 -0.04606,0.00319c-0.18212,0 -0.32976,-0.14764 -0.32976,-0.32976c0,-0.07286 0.02364,-0.14021 0.06366,-0.19479l0.21761,-0.30466l0.00303,0.00217l0.00429,-0.01202c0.4205,-0.50522 0.78697,-1.02269 1.18785,-1.5398c0,0 0.19749,-0.25393 0.45315,-0.06512z" stroke-width="0.5"/><path d="M371.70919,227.28255l0.04669,0.03227c0.20599,0.21171 0.56226,0.48828 0.48825,0.85631c-0.04394,0.21847 -0.2525,0.36884 -0.4015,0.53455c-0.39877,0.44353 -1.05001,0.77153 -1.66128,0.61628c-0.17156,-0.04357 -0.35414,-0.10268 -0.47996,-0.22719c-0.11277,-0.11158 -0.11735,-0.29535 -0.1904,-0.43617c-0.16807,-0.32397 -0.55358,-0.78837 -0.46089,-1.21649c-0.43246,0.05906 -0.8826,0.04019 -1.31253,0.03643c-1.11484,-0.32617 -2.26223,-0.65601 -3.42557,-0.65601c-0.17005,0 -0.34018,-0.00545 -0.51022,-0.00548c0.03019,0.05738 0.05624,0.12058 0.07731,0.19227c0.11942,0.40611 0.06886,0.95149 0.05918,1.37406c-0.00354,0.15476 0.03438,0.31895 -0.0197,0.464c-0.05658,0.15175 -0.18535,0.26714 -0.29672,0.38472c-0.36912,0.38968 -0.8623,0.43986 -1.29197,0.7075c-0.47937,0.29862 -0.95445,0.61209 -1.54678,0.66255c-0.16501,0.01405 -0.34735,0.0539 -0.49649,-0.0181c-0.72246,-0.34873 -0.44709,-0.52851 -0.26501,-1.12778c0.37968,-0.53704 0.70009,-1.11322 1.07317,-1.65592c0.06684,-0.09722 0.43783,-0.67363 0.53394,-0.76083c0.18105,-0.16425 0.45145,-0.19607 0.65177,-0.33618c0.19416,-0.1358 0.36132,-0.31054 0.56264,-0.43482c0.00376,-0.06264 0.01324,-0.1239 0.02792,-0.1812c0.04517,-0.17638 0.30128,-0.20658 0.43577,-0.3293c0.10322,-0.09418 0.18176,-0.2123 0.27337,-0.31781c0.49621,-0.57139 0.95851,-1.19628 1.54534,-1.67796c0.82595,-1.17557 1.73097,-2.26968 2.56747,-3.44079c0.5869,-0.82166 1.1155,-1.81304 1.99534,-2.337l0.17744,-0.14705c0,0 0.2575,-0.206 0.4635,0.05149c0.14144,0.1768 0.06437,0.32932 0.00218,0.40755c0.24249,0.13134 0.47803,0.27354 0.73686,0.36957c0.23523,0.08728 0.53978,0.15817 0.7586,0.29088c0.57832,0.35075 1.12581,0.78886 1.70749,1.13884c0.26051,0.15674 0.36796,0.10255 0.56678,0.2323c-0.14689,0.06242 -0.24991,0.20803 -0.24991,0.3777c0,0.14942 0.0799,0.28019 0.1993,0.3519c0.01914,0.07335 0.05807,0.1387 0.11075,0.19001c0.01977,0.01926 0.04148,0.03653 0.0648,0.05152c0.03321,0.05171 0.07771,0.09546 0.13001,0.12779c-0.00576,0.02738 -0.00879,0.05578 -0.00879,0.08488c0,0.11034 0.04356,0.2105 0.11442,0.28422c-0.25219,0.40835 -0.77785,0.66593 -1.21971,0.88364c-1.29949,1.09708 -1.46556,3.08427 -2.71778,4.12928c0.30139,-0.02832 0.60433,-0.00727 0.93804,0.06533c0,0 0.32191,0.07153 0.25037,0.39344c-0.00111,0.00501 -0.00229,0.00993 -0.00352,0.01477z" stroke-width="0.5"/><path d="M368.64501,217.785c0.21495,0.22938 -0.01083,0.45516 -0.01083,0.45516l-0.21984,0.21984c-0.31745,0.31718 -0.53596,0.65949 -0.82006,0.99486c-0.40128,0.47367 -0.9214,0.81408 -1.30946,1.30755c-0.36566,0.46499 -0.66935,0.96609 -1.06252,1.41583c-0.62738,0.75151 -1.48994,1.25833 -2.10505,2.01602c-0.26328,0.3243 -0.51533,0.82207 -1.03983,0.8157c-0.188,-0.00228 -0.21832,-0.30626 -0.33289,-0.45533c-0.15519,-0.20192 -0.32113,-0.41214 -0.38886,-0.65764c-0.34076,-1.23516 0.11086,-2.36504 0.89787,-3.28481c0.81392,-0.47784 1.13279,-1.12201 1.72526,-1.81432c0.06802,-0.07948 0.18177,-0.11291 0.24468,-0.19649c0.05958,-0.07915 0.0595,-0.19103 0.11083,-0.27577c0.32873,-0.54271 1.13863,-1.38124 1.82435,-1.39581c0.31956,-0.00679 0.60951,0.19371 0.91877,0.27452c0.43682,0.11417 0.86768,0.1638 1.30719,0.26094c0,0 0.27166,0.06037 0.2604,0.31975z" stroke-width="0.5"/><path d="M361.1824,217.22448c-0.0942,-0.02353 -0.20492,-0.09011 -0.23062,-0.27005c-0.04663,-0.32644 0.27981,-0.37308 0.27981,-0.37308c0.2182,-0.03089 1.11023,-0.23836 1.29913,0.07299c0.11787,0.19427 -0.25557,0.77705 -0.3674,0.97102l-0.02625,0.0186l0.00707,0.00606l-0.26241,0.30615c-0.06049,0.07144 -0.15084,0.11678 -0.25177,0.11678c-0.16209,0 -0.29687,-0.11695 -0.32455,-0.27108l-0.08674,-0.43369z" stroke-width="0.5"/><path d="M357.66414,223.3094c0.06158,-0.22413 0.31649,-0.22413 0.31649,-0.22413l0.19144,0.03481c0.23778,0.11901 0.51256,0.17802 0.7188,0.34584c0.10775,0.08768 0.15376,0.23303 0.24894,0.33421c0.13108,0.13934 0.36407,0.20313 0.42663,0.38392c0.11288,0.32621 -0.19189,0.76544 -0.33124,1.01966c-0.18905,0.33084 -0.38425,0.66029 -0.56369,0.99638c-0.07096,0.13291 -0.08364,0.31255 -0.2038,0.40345c-0.17455,0.13205 -0.40079,0.20207 -0.61899,0.219c-0.19418,0.01506 -0.58078,-0.32471 -0.74685,-0.04477c-0.24161,0.40727 -0.27254,0.90859 -0.58327,1.28984c-0.59896,0.73492 -1.22353,1.28205 -2.08314,1.70959c-0.27659,0.13757 -1.03975,0.52501 -1.36775,0.42187c-0.23789,-0.07481 -0.34475,-0.36041 -0.51712,-0.54062c0.27389,-0.34396 0.5415,-0.71357 0.8256,-1.04854c0.52227,-0.61581 1.18977,-1.14601 1.6486,-1.8173c0.33396,-0.48861 0.70498,-0.9146 1.06909,-1.38214c0.54134,-0.69511 0.93575,-1.46344 1.56562,-2.09672c0,0 0.00158,-0.00158 0.00462,-0.00435z" stroke-width="0.25"/><path d="M366.84072,210.47813c-0.09449,-0.19266 -0.08213,-0.43823 -0.01944,-0.64345c0.04745,-0.15534 0.21902,-0.23991 0.32651,-0.36167c0.34717,-0.39323 0.9153,-1.14281 1.54799,-0.9189c0.17759,0.06285 0.26878,0.26424 0.39675,0.40249c0.15941,0.17222 0.35633,0.311 0.4962,0.49944c0.15609,0.2103 0.22111,0.47491 0.33832,0.70911l0.01988,-0.03898c0,0 0.24646,0.16431 0.11648,0.41506c0.01409,0.01278 0.02806,0.02735 0.04187,0.04392c0.2111,0.25332 -0.04222,0.46443 -0.04222,0.46443c-0.87209,0.72381 -1.47892,1.71884 -2.37903,2.42212c-0.72429,0.56591 -1.35124,1.091 -1.86893,1.8638c-0.56437,0.84247 -0.72402,1.88533 -1.30852,2.70965c-0.50009,1.00018 -1.2679,1.79215 -2.01911,2.6041c-0.19587,0.21171 -0.52831,0.72168 -0.90239,0.62112c-0.46629,-0.12534 -0.37088,-0.86901 -0.37281,-1.15295c-0.00522,-0.76623 -0.22071,-1.72522 0.06774,-2.45324c0.17462,-0.44073 0.54667,-0.65693 0.653,-1.1255c0.14157,-0.33301 0.26324,-0.74608 0.498,-1.02812c0.59369,-0.71329 1.53579,-1.10625 2.10258,-1.83674c0.71791,-0.92526 1.05653,-2.13543 2.17044,-2.72729c0.16291,-0.08656 0.33981,-0.14078 0.51746,-0.1937c-0.17115,-0.083 -0.33461,-0.18062 -0.38076,-0.27472z" stroke-width="0.5"/><path d="M363.71367,222.86945c-0.21105,-0.35175 0.14071,-0.5628 0.14071,-0.5628l0.1912,-0.11431c1.32161,-0.72071 2.26562,-1.95105 3.14423,-3.15873c0.47622,-0.71344 1.02645,-1.13971 1.65306,-1.69647c0.35606,-0.31637 0.63891,-0.72884 0.98265,-1.05384c0.08226,-0.07777 0.16795,-0.15236 0.25569,-0.22515c0.02452,-0.03404 0.04896,-0.06813 0.07332,-0.1023c-0.10478,-0.08494 -0.20759,-0.19925 -0.30801,-0.34798c-0.10168,-0.15058 -0.09046,-1.09854 -0.08079,-1.23893c0.0827,-1.20129 1.45803,-2.83497 2.82679,-2.17321c0.08348,0.04036 0.15583,0.09357 0.21925,0.15606c0.25548,-0.3345 0.45314,-0.68629 0.76413,-0.99729c0.19412,-0.19412 0.65497,-0.73605 0.92965,-0.7861c0.80987,-0.14759 1.06223,0.48205 0.99431,1.14319c-0.06027,0.58669 -0.43168,1.12028 -0.7981,1.5602c-0.17955,0.15067 -0.38598,0.28859 -0.57822,0.43755c0.02312,0.19452 -0.13151,0.34417 -0.13151,0.34417c-0.03893,0.03768 -0.07765,0.07546 -0.11614,0.11334l-0.15091,0.2156l-0.01367,-0.00957l-0.0088,0.03877c-0.03596,0.03579 -0.10492,0.10481 -0.19099,0.19061c-0.03502,0.05752 -0.07308,0.11408 -0.11361,0.1696c-0.02569,0.06897 -0.0696,0.12978 -0.13987,0.17684c-0.04263,0.0501 -0.08691,0.09918 -0.13235,0.14715c-0.07777,0.10416 -0.17784,0.20414 -0.30576,0.29986c-0.0088,0.00659 -0.0177,0.01312 -0.0267,0.01958c-0.0312,0.4603 -0.42926,0.96883 -0.64785,1.28485c-0.97462,1.40906 -2.21639,2.44312 -3.52195,3.52887c-0.57749,0.57547 -1.20604,1.07605 -1.72251,1.71987c-0.57525,0.71709 -0.7278,1.67251 -1.26506,2.4049c-0.17446,0.23782 -0.44278,0.39461 -0.6242,0.62716c-0.08029,0.10292 -0.09264,0.24901 -0.17484,0.35041c-0.26301,0.32446 -0.66044,0.51849 -0.92864,0.8421c-0.29674,0.35803 -0.53739,0.73263 -0.90181,1.03611c-0.26799,0.32197 -0.5856,0.63824 -0.95411,0.84746c-0.42746,0.24269 -0.79348,0.37459 -1.15798,0.737c-0.37207,0.36993 -0.5245,0.96501 -1.11275,1.10353c-0.15071,0.03548 -0.97567,-0.38679 -1.0221,-0.45514c-0.14801,-0.21789 -0.03189,-0.77837 0.05845,-1.00612c0.35241,-0.88844 1.29867,-1.27495 1.82405,-1.99313c0.95567,-0.82655 1.82041,-1.7759 2.63343,-2.72095c0.19758,-0.22967 0.37287,-0.47663 0.54728,-0.72494c-0.03852,-0.03055 -0.07547,-0.07214 -0.1089,-0.12784zM372.20757,212.92025c-0.22959,-0.1063 -0.52947,0.04407 -0.71213,0.14245c-0.55924,0.30119 -0.87953,0.73048 -0.91091,1.35722c-0.00065,0.01309 -0.06629,0.49069 -0.00507,0.76389l0.30785,-0.25187c-0.05943,-0.32912 0.01556,-0.63889 0.17066,-0.9096c0.10737,-0.3767 0.38002,-0.78317 0.75373,-0.73951c0.03438,-0.02029 0.06906,-0.03957 0.10394,-0.05778c0.02632,-0.01375 0.05615,-0.02958 0.08898,-0.04683c0.08569,-0.07461 0.17087,-0.15079 0.25377,-0.22818c-0.0156,-0.01132 -0.03249,-0.02131 -0.05083,-0.02979z" stroke-width="0.5"/><path d="M369.77188,210.19982l0.02715,-0.06206c-0.22183,0.47158 -0.49167,0.58745 -0.87838,0.91127c0,0 -0.26508,0.2209 -0.48597,-0.04417c-0.096,-0.1152 -0.10021,-0.22206 -0.07428,-0.30606c-0.45362,-0.18605 -0.95389,-0.42265 -1.413,-0.49357c-1.27415,-0.19684 -2.42716,0.84926 -3.55777,1.27079c-0.49508,0.18458 -1.19079,0.21247 -1.62987,0.5154c-0.33844,0.2335 -0.5551,0.6783 -0.77455,1.00281c-0.26295,0.38885 -0.65753,0.68024 -1.04831,0.94033c-0.19683,-0.09474 -0.42187,-0.14535 -0.5905,-0.28422c-0.10185,-0.08387 -0.36032,-0.64381 -0.42829,-0.77128c-0.32481,-0.60916 -0.62645,-1.22963 -0.92636,-1.85247c-0.09525,-0.19781 -0.11918,-0.43782 -0.26266,-0.60401c-0.12627,-0.14625 -0.52545,-0.07683 -0.62308,-0.07569c-0.29136,0.00338 -0.58275,0 -0.87413,0c-1.24399,0 -2.48338,0.09202 -3.72656,0.09202c-0.16683,-0.00116 -0.63076,-0.06164 -0.76747,0.13158c-0.02907,0.04107 0.09411,-0.05758 0.14336,-0.04726c0.11062,0.02317 0.20411,0.09727 0.30799,0.14179c0.49037,0.21015 0.92981,0.41331 1.37636,0.70253c0.37513,0.24295 0.65013,0.57324 0.99643,0.84992c0.43662,0.34885 0.94387,0.67804 1.31968,1.0869c0.36143,0.39319 0.56956,0.89566 0.93014,1.29897c0,0 0.18057,0.20315 0.0409,0.4091l0.01385,0.00593c0.12687,0.05099 0.21644,0.17519 0.21644,0.32029c0,0.17911 -0.13646,0.32634 -0.31109,0.3434l-0.40992,0.04555l-0.00223,-0.02003c-0.03409,0.00733 -0.06867,0.0126 -0.10383,0.01539c-0.1635,0.01294 -0.2752,-0.18844 -0.43266,-0.23431c-0.19299,-0.05622 -0.90704,0.12164 -0.96715,0.13623c-1.39394,0.33839 -2.65103,0.65692 -4.09906,0.65692c-0.54321,0 -1.28683,0.07908 -1.68896,-0.39743c-0.21542,-0.25526 -0.22604,-0.6312 -0.26567,-0.93833c0.00065,-0.13544 -0.00803,-0.27953 -0.02974,-0.42388c-0.36277,-0.25785 -0.60724,-0.55205 -0.94849,-0.8487c-0.16703,-0.1452 -0.44642,-0.18043 -0.60271,-0.339c-0.00164,-0.00167 -0.00327,-0.00333 -0.00491,-0.005l-0.0009,0.00144l-0.36298,-0.22686c-0.10021,-0.06037 -0.16725,-0.17025 -0.16725,-0.29577c0,-0.11225 0.0536,-0.21198 0.13661,-0.275c-0.00672,-0.00609 -0.01337,-0.01223 -0.01992,-0.0184c-0.43383,-0.40903 -0.4636,-0.85228 -0.57089,-1.3915c-0.16455,-0.82699 -0.1439,-1.60801 -0.1439,-2.45571c0.00268,-0.86181 0.19684,-1.66428 0.71267,-2.36877c0.16188,-0.2211 0.3919,-0.3834 0.57885,-0.58375c0.64749,-0.69393 1.26177,-1.50054 2.28239,-1.62311c1.01322,-0.12169 1.88618,0.36807 2.89008,0.36599c0,0 0.02817,0 0.06842,0.00805c0.02339,-0.00528 0.03836,-0.00664 0.03836,-0.00664c1.05067,-0.09326 2.17452,-0.39372 3.16487,0.19309c0.30633,0.18151 0.41197,0.74202 0.7735,0.82919c0.34009,0.08202 0.82085,-0.24506 1.16563,-0.28591c0.9453,-0.11201 1.87916,-0.32268 2.84043,-0.32373c0.41003,0.00224 0.76752,-0.11263 1.17473,-0.13736c0.1449,-0.0088 0.29091,-0.01359 0.4355,-0.00066c0.07585,0.00678 0.17296,0.11871 0.22062,0.05932c0.21229,-0.26452 0.17154,-0.69261 0.4145,-0.92927c0.50979,-0.49658 1.15332,-0.38588 1.78762,-0.41789c0.1907,-0.00962 0.84566,-0.11005 1.03235,-0.01552c0.19032,0.09637 0.3031,0.30074 0.44409,0.46084c0.32248,0.36617 0.7579,0.89012 0.93568,1.35103c0.04802,0.12452 -0.01054,0.79505 0.18323,0.881c0.11843,0.05253 0.25646,0.03693 0.3847,0.0554c1.24163,0.62139 1.72269,1.90935 2.18941,3.14966l0.13801,0.36805c0,0 0.09024,0.24064 -0.09271,0.38444c-0.0321,0.07243 -0.07839,0.11873 -0.07839,0.11873zM352.13014,215.17075c-0.19689,0.03204 -0.38783,0.07358 -0.56995,0.1261c0.15049,0.00797 0.29484,-0.00662 0.40955,-0.0511c0.05464,-0.02118 0.10785,-0.04705 0.16039,-0.075zM349.17819,213.58289c0.08317,0.15282 0.14836,0.31628 0.1972,0.48534c0.00648,0.00338 0.01296,0.00675 0.01945,0.01011c-0.01352,-0.17567 0.02863,-0.32367 -0.14231,-0.44919c-0.02372,-0.01742 -0.04859,-0.03267 -0.07433,-0.04625zM349.58538,214.95237c-0.03101,-0.01592 -0.06232,-0.03135 -0.09384,-0.04647c0.00816,0.07194 0.03781,0.45148 0.10207,0.53113c0.01115,0.01382 0.02355,0.02661 0.03709,0.03845c-0.01369,-0.03882 -0.02672,-0.07706 -0.03976,-0.11347c-0.04603,-0.12865 -0.00846,-0.27165 -0.00556,-0.40964z" stroke-width="0.5"/><path d="M369.28832,217.49151c-0.02542,-0.00635 -0.04831,-0.01423 -0.06893,-0.02332c-0.00622,0.04607 -0.0245,0.09635 -0.06036,0.15014c-0.18291,0.27438 -0.45729,0.09145 -0.45729,0.09145l-0.02974,-0.02076c-0.14287,0.01905 -0.30347,-0.08476 -0.45369,-0.10367c-0.48989,-0.06166 -0.91379,-0.15285 -1.38295,-0.31151c-0.18978,-0.02035 -0.3782,-0.02958 -0.56676,-0.03364c-0.24158,0.19557 -0.44454,0.45101 -0.73745,0.50238c-0.24232,0.04249 -0.56757,0.11517 -0.73518,-0.06491c-0.14427,-0.155 0.04242,-0.42246 0.08937,-0.62894c0.06322,-0.27803 0.19683,-0.52899 0.35274,-0.76463c-0.00083,-0.00153 -0.00165,-0.00308 -0.00247,-0.00462c-0.094,-0.17758 0.07031,-0.39927 0.14944,-0.58398c0.06374,-0.1488 0.44331,-0.64087 0.55148,-0.78517c0.30577,-0.4256 0.70073,-0.99186 1.14901,-1.27352c0.94115,-0.59132 2.55034,-0.6628 2.79512,-2.02749c0.08664,-0.48303 -0.00673,-1.06994 -0.00673,-1.56051c0,0 0,-0.24048 0.20535,-0.31072c0.02497,-0.0518 0.05381,-0.08424 0.05381,-0.08424c0.73599,-0.8114 1.71765,-1.08707 2.7693,-1.28195c0.49057,-0.09091 1.01464,-0.28862 1.46216,0.05463c0.60107,0.46102 0.79841,1.16068 0.95353,1.85851l0.00785,0.11551c0,0 0,0.32976 -0.32977,0.32976c-0.0602,0 -0.1094,-0.01099 -0.14963,-0.02895c-0.43288,0.26215 -0.92976,0.47922 -1.33297,0.76142c-0.21985,0.15387 -0.38489,0.37449 -0.58784,0.55005c-0.55755,0.48233 -1.16478,1.106 -1.51065,1.75785c-0.44722,0.84284 -0.80397,1.74189 -1.23667,2.60371c-0.13915,0.19584 -0.27961,0.39079 -0.4228,0.58371l-0.0674,0.29348c0,0 -0.07998,0.31991 -0.39989,0.23994z" stroke-width="0.5"/><path d="M359.57826,212.61142l0.15235,0.04197c0.18892,0.1645 0.32723,0.3822 0.45767,0.59607c0.03866,0.0634 0.10468,0.10552 0.15322,0.16172c0.01988,0.02301 0.03648,0.10175 0.05148,0.0753c0.03873,-0.06834 0.00101,-0.16317 0.03769,-0.23264c0.12514,-0.23699 0.33507,-0.41847 0.49582,-0.63291c0.50617,-0.67277 0.82831,-1.4717 1.51321,-1.99774c0.96819,-0.74362 2.56022,-1.10214 3.7534,-0.80674c0.29658,0.07342 0.55201,0.26886 0.84534,0.35435c0.31783,0.09263 0.46272,-0.04214 0.76546,0.20007c0.00988,0.0079 0.01962,0.01594 0.02925,0.02411l0.00332,-0.00499l0.39146,0.26096c0.09091,0.05872 0.15109,0.16093 0.15109,0.27721c0,0.16977 -0.12829,0.30956 -0.2932,0.32775l-0.3474,0.04343l-0.00009,-0.00073l-0.00215,0.001c-0.23016,0.02558 -0.46936,0.00753 -0.69056,0.07606c-0.58753,0.18204 -1.05924,0.68543 -1.50413,1.07477c-0.69446,0.60774 -1.30098,1.2073 -1.90121,1.90052c-0.03683,0.04254 -0.46615,0.44545 -0.5432,0.57658c-0.23843,0.40588 -0.4759,0.82141 -0.7068,1.23634c-0.16354,0.21818 -0.28753,0.46453 -0.4543,0.68026c-0.14225,0.18403 -0.38756,0.28286 -0.50061,0.48614c-0.06336,0.11394 -0.05377,0.46164 -0.04753,0.57506c0.02515,0.45706 0.08614,0.89191 0.13022,1.34072c0.02684,0.27318 -0.04826,0.553 -0.00153,0.82349c0.07819,0.45261 0.24266,0.90843 0.30777,1.363c0.02321,0.16209 -0.01588,0.32837 0.00103,0.49124c0.0903,0.86984 0.33739,1.72824 0.52591,2.58213c-0.02887,0.25262 0.10335,0.58883 -0.0866,0.75785c-0.24698,0.21976 -0.7322,-0.17307 -0.95072,-0.27519c-0.56267,-0.26295 -1.1626,-0.42211 -1.75473,-0.59743c-0.35387,-0.10478 -0.46986,-0.06916 -0.77609,-0.32515c-1.29762,-1.08477 -0.87888,-2.87096 -1.17258,-4.33943c-0.05705,-0.56549 -0.08517,-1.1724 -0.21303,-1.7252c-0.05379,-0.23255 -0.21089,-0.43271 -0.26521,-0.66514c-0.08094,-0.34637 0.02031,-0.72213 -0.11717,-1.05295c-0.18999,-0.45718 -0.54494,-0.85166 -0.77132,-1.27762c-0.0824,-0.15505 -0.10391,-0.33704 -0.18179,-0.49441c-0.10675,-0.21569 -0.28854,-0.38555 -0.42199,-0.58583c-0.06294,-0.09446 -0.37621,-0.59519 -0.42464,-0.7128c-0.0528,-0.1282 -0.04582,-0.27874 -0.11196,-0.4006c-0.09888,-0.18216 -0.29942,-0.28679 -0.44467,-0.43465c-0.5002,-0.28305 -0.87557,-0.73915 -1.36776,-1.02948c-0.55906,-0.32978 -1.28587,-0.40847 -1.88942,-0.63856c-0.27373,-0.10435 -0.73777,-0.22434 -0.82042,-0.58354c-0.09836,-0.42749 0.29836,-0.68527 0.54573,-0.89892c0.90693,-0.78331 2.06929,-0.78287 3.20442,-0.78287c0.09751,0 0.8204,-0.00302 0.87606,0.01105c0.7385,0.18679 1.25893,0.93771 1.83163,1.37673c0.51094,0.39167 1.1359,0.72403 1.51651,1.25475c0.17469,0.24358 0.34717,0.55286 0.44179,0.83759c0.03639,0.10951 0.01433,0.23603 0.06382,0.34027c0.06185,0.13028 0.42219,0.29855 0.51714,0.34704z" stroke-width="0.5"/><path d="M369.30105,211.64297c0.10675,-0.17295 0.20645,-0.35351 0.29604,-0.54647c0,0 0.13945,-0.29882 0.43827,-0.15937c0.29882,0.13945 0.15937,0.43827 0.15937,0.43827c-0.39713,0.84705 -0.96394,1.48652 -1.50538,2.23637l-0.0362,0.01652l0.00898,0.01025l-0.35054,0.30672c-0.05816,0.05143 -0.13461,0.08264 -0.21835,0.08264c-0.18212,0 -0.32976,-0.14763 -0.32976,-0.32976c0,-0.04344 0.00839,-0.08492 0.02366,-0.12291l0.12923,-0.34462l0.00193,0.00072c0.00091,-0.00422 0.00185,-0.00844 0.00281,-0.01265c0.11872,-0.51562 0.50642,-0.85074 0.77184,-1.27815l0.22233,-0.23427c0,0 0.18234,-0.18233 0.38577,-0.06329z" stroke-width="0.5"/><path d="M361.53936,217.75248c-0.31707,-0.09059 -0.22647,-0.40767 -0.22647,-0.40767l0.1187,-0.38079c0.19236,-0.33099 0.43649,-0.65311 0.7215,-0.91348c0.3243,-0.29626 0.69814,-0.44931 0.97836,-0.80003c0.33643,-0.42107 0.42317,-0.88936 0.67138,-1.35883c0.12959,-0.24511 0.30639,-0.4629 0.44075,-0.70543c0,0 0.16015,-0.28826 0.44841,-0.12812c0.28826,0.16014 0.12812,0.44841 0.12812,0.44841c-0.1342,0.24093 -0.30942,0.45788 -0.43861,0.70155c-0.26855,0.50651 -0.36721,0.9951 -0.73559,1.45511c-0.50072,0.62528 -1.23937,0.90837 -1.64168,1.62804l-0.05718,0.23476c0,0 -0.09059,0.31707 -0.40767,0.22648z" stroke-width="0.5"/><path d="M370.34943,219.23177c-0.2575,-0.20599 -0.05149,-0.46349 -0.05149,-0.46349l0.13027,-0.14374c0.09888,-0.2251 0.22772,-0.43994 0.38398,-0.62977c0.31167,-0.53258 0.81741,-0.9588 1.19324,-1.45945c0.46963,-0.62561 0.91207,-1.26251 1.41986,-1.86293c0.24937,-0.29485 0.49047,-0.62289 0.78616,-0.87414c0.24941,-0.21193 0.52111,-0.40831 0.6627,-0.7252c0.19801,-0.44313 0.144,-0.97244 0.144,-1.44141c0.00085,-0.44151 -0.01759,-0.81144 -0.17639,-1.1994c-0.02136,-0.05218 0.02819,-0.1372 -0.01899,-0.16808c-0.03751,-0.02454 -0.06213,0.06566 -0.09937,0.09062c-0.06948,0.04655 -0.1558,0.06771 -0.21889,0.12261c-0.17195,0.14961 -0.31848,0.3442 -0.45998,0.53918c0.16974,0.25978 -0.0878,0.44373 -0.0878,0.44373c-0.16786,0.11873 -0.33958,0.22099 -0.51002,0.32399c-0.55099,0.69626 -1.04301,1.39788 -1.50916,2.17115c-0.20083,0.33314 -0.3143,0.74809 -0.61917,0.98934c-0.06235,0.09491 -0.12818,0.18809 -0.19833,0.27919l-0.00558,0.00257l0.00207,0.00172l-0.21822,0.26188c-0.06048,0.07362 -0.15222,0.12059 -0.25494,0.12059c-0.0657,0 -0.12693,-0.01922 -0.17835,-0.05234l-0.18047,0.1504c-0.05743,0.04854 -0.13168,0.07782 -0.21277,0.07782c-0.18212,0 -0.32976,-0.14764 -0.32976,-0.32976c0,-0.05539 0.01365,-0.10758 0.03777,-0.1534l0.20108,-0.40214c0.09464,-0.5231 0.21145,-0.93122 0.6129,-1.31191c0.12194,-0.11563 0.26587,-0.20602 0.40196,-0.30527c0.25509,-0.45466 0.5506,-0.87566 0.91101,-1.3074l0.16187,-0.28328c0.05597,-0.10232 0.16463,-0.17172 0.28949,-0.17172c0.07202,0 0.13864,0.02308 0.19287,0.06225c0.1338,-0.09845 0.272,-0.18579 0.41132,-0.27092c0.18063,-0.22856 0.36345,-0.45511 0.5466,-0.68048c0.31979,-0.3935 0.92953,-1.22368 1.57273,-0.975c0.17337,0.06703 0.23162,0.29152 0.33276,0.44746c0.29155,0.44955 0.26239,1.00348 0.26328,1.52661c0,0.58017 0.03458,1.17692 -0.20774,1.72427c-0.23137,0.52261 -0.70243,0.78107 -1.06565,1.18014c-0.68482,0.75242 -1.26278,1.58297 -1.86936,2.39245c-0.36718,0.49 -0.8892,0.91696 -1.18103,1.44243c-0.13008,0.15398 -0.24234,0.32718 -0.3195,0.5134l-0.22147,0.29594c0,0 -0.206,0.2575 -0.4635,0.0515z" stroke-width="0.5"/><path d="M368.39238,203.90016c-0.11278,0.21284 -0.30266,0.41375 -0.53116,0.48996c-0.17708,0.05906 -0.36149,-0.09401 -0.54442,-0.13125c-0.36774,-0.07486 -0.62922,0.00454 -0.84123,-0.44553c-0.31992,-0.67917 0.19131,-1.68107 0.8871,-1.86885c0.36318,-0.09802 0.97988,0.11767 1.31848,0.22902c0,0 0.31284,0.10428 0.20856,0.41712c-0.10428,0.31284 -0.41712,0.20856 -0.41712,0.20856c-0.00187,-0.00063 -0.00376,-0.00128 -0.00564,-0.00192v0.04936c0.00016,0.24854 0.01369,0.88695 -0.07457,1.05353z" stroke-width="0.5"/><path d="M370.04476,201.73447c0.09655,0.02911 0.22487,0.10649 0.22487,0.31221c0,0.32976 -0.32976,0.32976 -0.32976,0.32976c-0.16755,-0.01218 -0.36002,0.05222 -0.50263,-0.03655c-0.05832,-0.0363 -0.13597,-0.11426 -0.21141,-0.21546c-0.07112,-0.02459 -0.14167,-0.04641 -0.20984,-0.05651l0.05185,-0.2049c-0.00471,-0.00992 -0.00931,-0.01989 -0.01378,-0.02992l-0.09897,-0.01649l0.0305,-0.18302c-0.04327,-0.1861 -0.02285,-0.36894 0.12398,-0.49486c0.05984,-0.0756 0.15211,-0.12436 0.2558,-0.12526c0.51222,-0.13911 0.71716,0.32623 0.6794,0.72102z" stroke-width="0.5"/><path d="M369.26478,206.06845c-0.0529,-0.26448 0.15381,-0.3559 0.23083,-0.38043c-0.10958,-0.11103 -0.15495,-0.29821 -0.18653,-0.45333c-0.07747,-0.38058 0.0168,-0.77281 0.37559,-0.89158c0.07434,-0.11232 0.18981,-0.19074 0.36133,-0.20695c0.25714,-0.02431 0.43615,0.30905 0.55966,0.53589c0.11979,0.22001 0.11237,0.468 0.02038,0.67836c-0.00265,0.01324 -0.00563,0.02641 -0.00889,0.03951c0.0201,0.06771 0.01697,0.15156 -0.0392,0.24985c-0.04503,0.0788 -0.09937,0.12353 -0.15447,0.14696c-0.1153,0.16019 -0.26206,0.30365 -0.40438,0.42641l-0.36627,0.11399c0,0 -0.32335,0.06467 -0.38803,-0.25869z" stroke-width="0.5"/><path d="M347.39613,217.16612c0.05814,0.08117 0.10669,0.21355 -0.00721,0.37301c-0.19167,0.26833 -0.46001,0.07668 -0.46001,0.07668c-0.02736,-0.02195 -0.05948,-0.04575 -0.09441,-0.07144c-0.10009,0.01005 -0.24506,-0.01288 -0.32479,-0.19891c-0.01572,-0.0367 -0.0251,-0.07085 -0.02945,-0.10254c-0.16596,-0.19045 -0.24212,-0.4289 0.02967,-0.71523c0.19126,-0.20148 0.61537,-0.26469 0.82889,-0.08695c0.18718,0.15582 0.07313,0.46573 0.05732,0.72539z" stroke-width="0.5"/><path d="M353.45194,205.60807c0,-0.50994 0.41339,-0.92333 0.92333,-0.92333c0.50993,0 0.92332,0.41339 0.92332,0.92333c0,0.50994 -0.41339,0.92332 -0.92332,0.92332c-0.50993,0 -0.92333,-0.41338 -0.92333,-0.92332z" stroke-width="0.5"/><path d="M349.19806,204.90458c0,-0.3096 0.25099,-0.56059 0.56059,-0.56059c0.3096,0 0.56059,0.25098 0.56059,0.56059c0,0.3096 -0.25099,0.56059 -0.56059,0.56059c-0.3096,0 -0.56059,-0.25098 -0.56059,-0.56059z" stroke-width="0.5"/><path d="M364.41092,204.55284c0,-0.3096 0.25099,-0.56059 0.56059,-0.56059c0.3096,0 0.56059,0.25098 0.56059,0.56059c0,0.3096 -0.25099,0.56059 -0.56059,0.56059c-0.3096,0 -0.56059,-0.25098 -0.56059,-0.56059z" stroke-width="0.5"/><path d="M372.06174,211.28585c-0.50799,-0.28144 -0.84662,-0.88611 -0.53936,-1.48703c0.11248,-0.21996 0.34726,-0.36793 0.5712,-0.47226c0.53758,-0.25046 0.97696,-0.09472 1.25232,0.26651c0.11992,0.08023 0.29353,0.24711 0.24858,0.52329c0.0137,0.05106 0.02536,0.10346 0.03493,0.15696c0.06186,0.34619 0.00719,1.06699 -0.37666,1.26128c-0.59546,0.3014 -0.98504,0.11592 -1.19101,-0.24874z" stroke-width="0.5"/><path d="M373.97424,216.87592c0.13108,0.0213 0.31455,0.10025 0.34846,0.37151c0.05381,0.43045 -0.37665,0.48426 -0.37665,0.48426c-0.51382,0.04913 -1.03123,-0.01517 -1.15436,-0.62839c-0.04318,-0.21503 -0.13233,-0.48783 0.00613,-0.65792c0.69196,-0.85008 1.10277,-0.16216 1.17642,0.43054z" stroke-width="0.5"/></g><path d="M349.82151,79.80393c0,3.36893 -2.86111,6.1 -6.39048,6.1c-3.52936,0 -6.39048,-2.73107 -6.39048,-6.1c0,-3.36893 2.86111,-6.1 6.39048,-6.1c3.52936,0 6.39048,2.73107 6.39048,6.1z" stroke-width="0"/><path d="M353.52315,101.03778c1.72897,0 3.55531,5.5958 3.55531,7.55531c-0.16906,4.51839 -0.16906,9.02909 0,13.53213c0,2.02867 -0.64549,2.30531 -2.48973,2.30531c-4.05093,-0.13082 -8.1059,-0.05387 -12.14895,0.23054c-6.38569,0.50717 -8.7371,3.84986 -7.28476,10.14334c0.76075,3.31964 1.8673,6.54707 2.74331,9.82059c1.95963,6.22284 1.29347,12.976 -1.84425,18.69601c-2.83553,5.04862 -7.49224,7.1695 -11.52652,5.39441c-2.80505,-1.26095 -5.04031,-3.52086 -6.27042,-6.33958c-2.63671,-5.63856 -3.08047,-12.05664 -1.24487,-18.00442c0.94518,-3.36575 2.05172,-6.68538 2.78942,-10.07418c1.26792,-5.80936 -1.1757,-8.96763 -7.10033,-9.65922c-4.21853,-0.31876 -5.05185,-0.39572 -9.27918,-0.23053c-1.56761,0 -2.3053,-0.20747 -2.3053,-2.05172c0.16137,-4.61061 -1.03342,-32.53096 0.46503,-32.53096c0.89234,-0.00445 2.21148,0.00684 3.21789,0.19515c4.73202,0.88541 8.11764,4.66967 13.48395,6.72387c5.31579,2.03486 12.61496,2.34396 16.75045,2.34396c0,0 6.32612,1.32526 11.08259,1.93563c3.67424,0.4715 3.4278,0.01435 7.40636,0.01435z" stroke-width="1"/><path d="M319.83961,86.9982c-0.09227,0.16154 -0.0519,0.3363 -0.06952,0.51317c-0.05728,0.5748 -0.15515,1.13505 -0.56462,1.60646c-0.13608,-0.16329 -0.21493,-0.2946 -0.21109,-0.46496c-0.0999,-0.10452 0.24542,-0.30126 -0.06332,-0.36617c-0.05303,0.08402 -0.09228,0.16154 -0.16385,0.00993c-0.1952,-0.41347 -0.16205,-0.82518 -0.08104,-1.24264c0.01092,-0.03043 0.02623,-0.10508 -0.08976,-0.10089c-0.06681,0.09053 -0.16118,0.19407 -0.28026,0.33456c-0.37221,-0.87766 0.24686,-1.42273 0.73273,-2.10717c-0.5331,0.20954 -0.80321,0.54774 -1.15217,0.75462c-0.2844,-0.38821 -0.20493,-0.73753 0.11457,-1.14961c-0.24081,0.09683 -0.37499,0.15175 -0.54688,0.21605c0.01419,-0.32693 0.01307,-0.57921 0.0309,-0.91628c-0.85107,0.55348 -1.57103,1.18832 -2.25768,1.85801c-0.33826,0.33666 -0.70981,0.63849 -0.52859,1.21867c0.03827,0.11676 -0.05401,0.2783 -0.09115,0.41382c-0.01819,0.05072 -0.02337,0.12901 -0.13495,0.08899c-0.20289,-0.07276 -0.17609,-0.05169 -0.20463,0.15561c-0.02854,0.20729 0.10313,0.41479 -0.01097,0.6372c-0.187,-0.02126 -0.28614,-0.15985 -0.36863,-0.28102c-0.25396,-0.3773 -0.4295,-0.30285 -0.70248,0.01141c-1.12754,1.32446 -2.04357,2.79346 -2.92267,4.28715c-0.71274,1.22133 -1.3313,2.49933 -1.10271,4.00097c0.06543,0.42417 0.04891,0.85332 0.08027,1.27672c-0.61825,-0.09576 -1.17389,-0.39806 -1.76303,-0.57498c-0.3673,-0.18895 -0.19367,-0.48161 -0.09334,-0.69751c0.59331,-1.3672 0.79959,-2.80448 0.9385,-4.27738c0.0868,-0.97638 0.2896,-1.95696 0.60035,-2.88738c0.49264,-1.43765 0.95847,-2.89635 1.72137,-4.22563c0.26592,-0.45419 0.18917,-0.52751 -0.35598,-0.53981c-0.94385,-0.01789 -1.85096,0.14913 -2.70909,0.56269c-0.21037,0.10774 -0.43893,0.26621 -0.66211,0.18618c-0.35505,-0.12732 -0.66323,-0.0661 -1.00261,0.01828c-0.1472,0.02736 -0.33,0.12209 -0.43852,-0.05421c-0.0955,-0.14874 0.00692,-0.30665 0.06149,-0.45881c0.20294,-0.53402 0.64055,-0.8923 1.01441,-1.29633c0.23737,-0.2469 0.52219,-0.17911 0.75894,0.05463c0.05072,0.01819 0.07674,0.07331 0.14489,0.07485c-0.1847,-0.12347 -0.32806,-0.26648 -0.16897,-0.51855c0.25059,-0.37954 0.76396,-0.47022 1.09776,-0.1559c0.17379,0.15391 0.32651,0.33461 0.48652,0.49504c0.13244,0.17343 0.26852,0.33671 0.48883,0.39282c-0.19638,-0.05898 -0.33322,-0.18819 -0.43523,-0.35071c-0.37417,-0.48909 -0.27804,-0.82099 0.29487,-0.98191c0.25745,-0.07941 0.44502,0.06799 0.63623,0.20525c0.10718,0.08423 0.23675,0.23373 0.3631,0.07296c0.11257,-0.15426 0.0186,-0.37115 0.15222,-0.55221c0.0559,-0.0601 -0.14986,-0.15677 -0.24689,-0.23737c-0.11732,-0.08787 -0.23829,-0.1656 -0.34184,-0.25997c-0.16364,-0.15027 -0.33497,0.04017 -0.50456,0.00225c-0.22758,-0.03581 -0.44426,-0.10206 -0.63547,-0.23932c-0.08326,-0.0871 -0.16651,-0.17419 -0.32308,-0.18454c0.08479,0.01896 0.14566,0.04078 0.19562,0.09304c0.14868,0.51127 -0.22877,0.31868 -0.42228,0.28363c-0.66897,-0.11395 -1.33067,-0.24818 -2.01363,-0.19542c-0.17763,0.01645 -0.36176,0.0191 -0.51239,-0.10361c-0.1307,-0.40179 0.21365,-0.40424 0.43417,-0.50835c0.13782,-0.06507 0.32043,0.00041 0.40465,-0.10677c0.57583,-0.74377 0.9914,-0.88097 1.82324,-0.58268c0.16231,0.05821 0.31734,0.1367 0.52751,0.18917c-0.11005,-0.10816 -0.20058,-0.17497 -0.28097,-0.23814c-0.14412,-0.10892 -0.32596,-0.20849 -0.2597,-0.42516c0.05611,-0.22031 0.25766,-0.23962 0.42879,-0.26984c0.20883,-0.0396 0.42131,-0.08936 0.62077,-0.16667c0.14356,-0.01721 0.23332,0.08367 0.34491,0.12369c0.04708,0.02833 0.08038,0.06317 0.14126,0.085c-0.12747,-0.09151 -0.276,-0.15622 -0.41361,-0.25136c-0.1535,-0.14664 -0.35486,-0.28753 -0.20955,-0.5331c0.08864,-0.1514 0.2655,-0.13377 0.42341,-0.03136c0.02679,0.02106 0.04709,0.02833 0.02967,0.04498c-0.04575,0.06373 0.07178,-0.00861 0.00077,-0.03407c-0.60195,-0.36469 -0.65688,-0.49888 -0.48283,-1.11195c0.07429,-0.27103 0.19987,-0.39773 0.49329,-0.25817c-0.03617,-0.05877 -0.08326,-0.0871 -0.11293,-0.13208c-0.22871,-0.28809 -0.1167,-0.56851 0.02937,-0.84814c0.05667,-0.09417 0.1409,-0.20135 0.25248,-0.16134c0.28404,0.10186 0.38374,0.36659 0.46315,0.62405c0.00574,0.04785 -0.02623,0.10508 0.01435,0.11963c0.02623,-0.10508 -0.03156,-0.26319 0.1497,-0.28978c0.12978,-0.01071 0.18183,0.09955 0.2136,0.20253c0.11118,0.36044 0.1745,0.72661 0.17542,1.13911c0.0249,-0.19715 -0.0082,-0.39221 0.19049,-0.43545c0.18491,-0.03673 0.28328,0.13594 0.37591,0.26074c0.24823,0.32944 0.36514,0.73774 0.61337,1.06718c0.1598,0.32063 0.11364,0.70479 0.35249,0.99652c0.08361,0.37346 -0.0575,0.73501 -0.01369,1.05984c0.21939,-0.35639 0.38596,-0.78896 0.89646,-0.90357c0.16882,0.07198 0.14909,0.19085 0.07787,0.3256c0.13495,-0.08899 0.12501,-0.25284 0.21939,-0.35639c0.38401,-0.4004 1.45344,-0.50921 1.95395,-0.1809c0.14776,0.09879 0.26585,0.15259 0.43985,0.14628c0.3342,-0.0061 0.62475,0.10955 0.90362,0.28969c0.23676,0.23373 0.22277,0.40044 -0.12312,0.47104c-0.37996,0.06983 -0.76356,0.14981 -1.14352,0.21964c0.6533,-0.09775 1.26848,0.13429 1.97228,0.21495c-0.18009,-0.32791 -0.38354,-0.52679 -0.53837,-0.7655c-0.34107,-0.29403 -0.4528,-0.78062 -0.88748,-1.00519c-0.1246,-0.06758 -0.14468,-0.23507 -0.19961,-0.36925c-0.07731,-0.19946 -0.04878,-0.40675 -0.31386,-0.5934c-0.22815,-0.16196 -0.39368,-0.53044 -0.61301,-0.78082c-0.07961,-0.09725 -0.11426,-0.22415 -0.05682,-0.3524c0.0871,-0.08325 0.19946,-0.07731 0.30818,-0.06122c0.82611,0.25044 1.52147,0.70587 2.10426,1.31557c0.30623,0.32734 0.67046,0.65258 0.69299,1.16442c0.00497,0.08192 -0.00385,0.17036 0.00112,0.25228c0.00881,-0.08843 -0.00266,-0.18413 0.00979,-0.28271c0.01082,-1.08377 0.11371,-2.16887 -0.04946,-3.24634c-0.03674,-0.18491 0.00061,-0.48063 0.25786,-0.39983c0.25725,0.0808 0.34379,-0.1286 0.51779,-0.1349c0.07101,0.02546 0.13187,0.04729 0.20288,0.07276c-0.02337,0.12901 -0.08156,0.29132 0.13301,0.29957c0.56907,0.00943 0.55487,0.33637 0.4398,0.75306c-0.07353,0.23696 -0.11662,0.48484 -0.18517,0.80372c0.20771,-0.29188 0.35952,-0.52367 0.53239,-0.78225c0.19541,0.25325 -0.06723,0.41096 0.04856,0.56696c0.8012,0.4476 0.77547,1.2856 0.87589,2.12302c0.6719,-0.4689 1.30245,-0.91826 2.08419,-1.11879c-0.03294,0.25151 -0.27739,0.35848 -0.24219,0.61153c0.4171,-0.20534 0.58772,-0.96849 1.28231,-0.47898c-0.69946,0.48191 -1.45097,0.85356 -1.95349,1.52058c-0.23891,0.31504 -0.46249,0.55543 -0.92053,0.45988c-0.10508,-0.02623 -0.3899,-0.09401 -0.39815,0.12055c-0.00825,0.21457 0.22815,0.16195 0.37822,0.15852c1.4042,0.01123 2.61348,0.50212 3.61409,1.47918c0.39025,0.38037 0.85305,0.71806 0.98354,1.28006c-0.76565,0.0918 -0.66451,-0.76494 -1.18034,-1.01861c0.03653,0.34512 -0.16314,0.58264 -0.40394,0.67947c-0.49539,0.20017 -0.65862,-0.27053 -0.8655,-0.61949c-0.15678,0.14986 -0.09556,0.45804 -0.31664,0.436c-0.24136,-0.02931 -0.09893,-0.29879 -0.16036,-0.44676c-0.01952,-0.04135 -0.03541,-0.09284 -0.05129,-0.14433c-0.04345,-0.03848 -0.01721,-0.14357 -0.11292,-0.13209c-0.01015,-0.00364 -0.02183,0.06087 -0.03274,0.0913c0.10041,0.83743 -0.7052,0.43406 -1.00861,0.73741c0.15769,0.26263 0.44174,0.36449 0.67717,0.50615c0.54836,0.32258 0.99221,0.74507 1.38666,1.24143c0.12594,0.15965 0.23061,0.5063 0.18275,0.51204c-0.73522,0.10272 -0.20371,0.56809 -0.17426,0.77329c0.11133,0.807 0.09749,1.42028 -0.19676,1.92156c-0.10487,-0.18644 -0.20324,-0.35911 -0.29147,-0.52813c-0.1309,-0.24158 -0.20073,-0.62153 -0.40649,-0.71821c-0.60062,-0.27263 -0.8942,-0.85876 -1.3903,-1.23129c-0.06871,-0.12768 -0.06198,-0.27411 -0.03498,-0.41326c-0.04366,0.12174 -0.01993,0.27907 -0.23297,0.20268c-0.19254,-0.22933 -0.36402,-0.48545 -0.71984,-0.5787c0.0769,0.51988 0.31842,0.99575 0.04809,1.49416c-0.09704,-0.0806 -0.19772,-0.15105 -0.31868,-0.22877c-0.00252,0.26243 0.22487,0.45845 0.05928,0.69674c-0.058,0.0021 -0.10299,0.03177 -0.22836,-0.00174z" data-paper-data="{&quot;index&quot;:null}" stroke-width="1"/></g><path d="M271.13923,132.2885c0,-8.82931 0,-17.54336 0,-26.25741c0,-2.30531 0.50717,-2.9969 2.83553,-2.85858c3.87291,0.23053 7.74582,0.16137 11.52652,0c1.59066,0 2.3053,0.27663 2.3053,2.09783c0,19.61044 0,39.23627 0,58.87746c0,1.65982 -0.36885,2.44362 -2.12088,2.14393h-0.27663c-4.05734,0 -8.80625,1.26793 -11.96452,-0.438c-3.15827,-1.70593 -4.61061,-6.33959 -6.91591,-9.72839c-4.14955,-6.40875 -8.27604,-12.8175 -12.44864,-19.31845c-0.80685,0.78381 -0.41496,1.63676 -0.43801,2.30531c0,8.20688 0,16.41377 0,24.62065c0,1.95951 -0.53021,2.48972 -2.44362,2.3053c-4.05733,-0.16137 -8.11467,-0.13832 -12.17201,0c-1.59066,0 -2.00562,-0.50717 -1.98257,-2.05172c0,-19.61044 0,-39.23627 0,-58.87746c0,-1.49845 0.29969,-2.3053 1.93646,-2.05172c0.64503,0.03456 1.29143,0.03456 1.93646,0c3.66543,0 7.97635,-1.42929 10.83493,0.36884c2.85857,1.79814 4.21871,5.85547 6.20127,8.94458c3.7807,5.87852 7.49224,11.80316 11.29599,17.65863c0.43801,0.92212 0.64548,1.9134 1.89035,2.2592z" fill="#000000" stroke-width="1"/><path d="M198.015,166.29173c-2.30531,-0.23053 -6.17821,1.31402 -8.27604,-0.48411c-2.09783,-1.79814 -2.12088,-5.50967 -2.76637,-8.46046c-0.46106,-2.07477 -1.45234,-2.55889 -3.41184,-2.48972c-3.7807,0.16906 -7.5614,0.16906 -11.3421,0c-1.72897,0 -2.30531,0.55327 -2.78941,2.16698c-0.59938,2.58194 -1.5215,5.09473 -2.3053,7.67667c-0.06634,0.53503 -0.35272,1.0182 -0.79026,1.33322c-0.43753,0.31502 -0.98659,0.43338 -1.51504,0.32659c-4.61061,-0.11526 -9.40564,-0.11526 -14.10846,0c-1.63676,0 -2.00562,-0.29969 -1.42929,-2.02867c6.59317,-19.76414 13.13254,-39.53596 19.61813,-59.31547c0.41495,-1.29097 0.96823,-1.93645 2.48973,-1.89034c4.77967,0 9.56701,0 14.36204,0c0.5757,-0.09228 1.1643,0.05133 1.63282,0.39838c0.46852,0.34705 0.77742,0.86826 0.8569,1.44586c6.43948,19.81025 12.93275,39.59743 19.47982,59.36157c0.59938,1.82119 0.25359,2.30531 -1.54455,2.12088c-2.39751,-0.25358 -4.86419,-0.16137 -8.16078,-0.16137z" fill="#000000" stroke-width="1"/><path d="M110.32124,134.27107c0,-9.77449 0,-19.52592 0,-29.27736c0,-1.75203 0.41495,-2.30531 2.3053,-2.30531c8.43741,-0.53022 16.87483,-1.45234 25.35835,0c12.31033,2.19004 18.81128,10.37386 18.44243,23.39883c-0.27663,11.87231 -7.81498,20.01004 -19.84867,21.48543c-1.19876,0.16137 -2.30531,0.32274 -3.57322,0.43801c-4.61061,0.43801 -4.6106,0.41496 -4.6106,5.20999c0,3.59627 0,7.19255 0,10.76577c0,2.00562 -0.62243,2.44362 -2.48973,2.3053c-4.33397,-0.13832 -8.66795,-0.16137 -12.97886,0c-2.00562,0 -2.62804,-0.3919 -2.60499,-2.51278c0.06916,-9.77449 0,-19.66424 0,-29.50789z" fill="#000000" stroke-width="1"/><path d="M230.38147,134.82434c0,9.59007 0,19.15707 0,28.74714c0,2.30531 -0.71465,2.85858 -2.92774,2.76637c-4.31092,-0.18443 -8.64489,-0.13832 -12.97886,0c-1.63676,0 -2.3053,-0.32274 -2.3053,-2.09783c0,-19.70266 0,-39.40533 0,-59.10799c0,-1.42929 0.3919,-1.91341 1.8673,-1.8673c4.61061,0 9.38259,0 14.08541,0c2.02867,0 2.12088,0.82991 2.12088,2.30531c0.11526,9.75143 0.13832,19.50287 0.13832,29.2543z" fill="#000000" stroke-width="1"/><path d="M312.12754,71.1749c0.80685,-3.75764 1.63676,-7.51529 2.3053,-11.29599c0.23053,-1.1296 0.87602,-1.40624 1.93646,-1.38319c5.32525,0 10.65051,0 15.97575,0c1.10697,-0.09567 2.12469,0.61189 2.42057,1.68287c0.57632,1.40623 1.26792,2.78943 2.05172,4.4723c0.53022,-1.08349 0.94518,-1.89035 1.31403,-2.72026c1.54455,-3.48101 2.78942,-4.14954 6.45485,-3.31963c2.61835,0.61409 4.36224,3.09121 4.05733,5.76326c0,2.30531 0,4.6106 0,6.91591c-0.95557,0.75545 -2.19229,1.05832 -3.3888,0.82991h-29.83063c-1.1757,-0.06916 -2.42057,0.09221 -3.29658,-0.94518z" fill="#ff963c" stroke-width="1"/><path d="M296.244,71.22101c0,-2.55889 0,-5.14083 0,-7.69972c-0.1526,-2.43295 1.61507,-4.56426 4.03428,-4.86419c2.18993,-0.23126 4.39547,-0.27753 6.59317,-0.13832c1.33708,0 1.22181,1.17571 1.47539,1.95951c1.19876,3.55017 2.30531,7.14644 3.45796,10.71966c-0.43169,0.49147 -1.05183,0.77639 -1.70592,0.7838c-4.01123,0.11526 -8.04551,0.11526 -12.05674,0c-0.67905,0.00728 -1.3305,-0.26832 -1.79813,-0.76075z" fill="#ff963c" stroke-width="1"/><path d="M296.244,88.92574v-2.76636c1.03179,-0.80244 2.3557,-1.12923 3.64238,-0.89907h45.06869c1.29345,-0.21672 2.61908,0.10844 3.66543,0.89907v2.76636c-1.04987,0.78253 -2.37518,1.09928 -3.66543,0.87602h-45.06869c-1.28339,0.23664 -2.60694,-0.08169 -3.64238,-0.87602z" fill="url(#color-1)" stroke-width="1"/><path d="M348.6205,86.15938h-52.3765v-2.30531c0.97645,-0.71028 2.19964,-0.99319 3.38879,-0.7838h45.57585c1.1961,-0.19744 2.42184,0.08415 3.41185,0.7838z" fill="url(#color-2)" stroke-width="1"/><path d="M296.244,88.92574h52.3765v2.3053c-0.96326,0.73905 -2.19585,1.03252 -3.3888,0.80686h-45.59891c-1.19309,0.23175 -2.42816,-0.06231 -3.38879,-0.80686z" fill="url(#color-3)" stroke-width="1"/><path d="M296.244,71.22101h15.46858c0.12052,-0.03459 0.24833,-0.03459 0.36885,0h36.53906v1.65981c-0.99001,0.69965 -2.21576,0.98125 -3.41185,0.78381h-45.57585c-1.18944,0.22051 -2.41698,-0.06343 -3.38879,-0.78381z" fill="url(#color-4)" stroke-width="1"/><path d="M296.244,75.62414v-1.65982c0.94518,-0.78381 2.09783,-0.53022 3.18132,-0.53022h46.10607c1.06044,0 2.30531,-0.27663 3.18132,0.53022v1.65982c-0.95557,0.75545 -2.19229,1.05832 -3.3888,0.82991h-45.69112c-1.19635,0.22223 -2.43051,-0.08002 -3.38879,-0.82991z" fill="url(#color-5)" stroke-width="1"/><path d="M296.244,75.62414h52.3765v1.65982c-0.98359,0.7135 -2.21831,0.98881 -3.41185,0.76075c-15.19964,0 -30.39159,0 -45.57585,0c-1.18626,0.22991 -2.41464,-0.04585 -3.38879,-0.76075z" fill="url(#color-6)" stroke-width="1"/><path d="M348.6205,78.41356v1.65981c-0.98359,0.7135 -2.21831,0.98882 -3.41185,0.76075h-45.57585c-1.18626,0.22991 -2.41464,-0.04586 -3.38879,-0.76075v-1.65981c0.94518,-0.80685 2.09783,-0.53022 3.18132,-0.53022h46.10607c0.96823,0.04611 2.12088,-0.27663 3.08911,0.53022z" fill="url(#color-7)" stroke-width="1"/><path d="M348.6205,81.17992v1.65982c-0.96202,0.55397 -2.09162,0.74224 -3.18132,0.53022h-46.10608c-1.08349,0 -2.3053,0.25359 -3.18132,-0.53022v-1.65982c0.94518,-0.80685 2.09783,-0.53022 3.18132,-0.53022h46.10608c1.06044,0 2.21309,-0.27663 3.18132,0.53022z" fill="url(#color-8)" stroke-width="1"/><path d="M296.244,91.13883h52.3765v1.65982c-0.98359,0.7135 -2.21831,0.98881 -3.41185,0.76075h-45.57585c-1.18626,0.22991 -2.41464,-0.04585 -3.38879,-0.76074z" fill="url(#color-9)" stroke-width="1"/><path d="M296.244,96.67156v-1.65982c0.97181,-0.72037 2.19936,-1.00431 3.38879,-0.78381h45.57585c1.1969,-0.23011 2.43537,0.05441 3.41185,0.78381v1.65982c-0.96326,0.73906 -2.19585,1.03252 -3.3888,0.80686h-45.59891c-1.19309,0.23175 -2.42816,-0.06232 -3.38879,-0.80686z" fill="url(#color-10)" stroke-width="1"/><path d="M296.244,96.67156h52.3765c0.48411,1.75203 -0.64548,1.65982 -1.84424,1.65982h-48.71107c-1.1757,0 -2.3053,0.09221 -1.82119,-1.65982z" fill="url(#color-11)" stroke-width="1"/><path d="M348.6205,73.98737h-52.3765v-1.10655h52.3765z" fill="url(#color-12)" stroke-width="1"/><path d="M348.6205,78.41356h-52.3765v-1.10655h52.3765z" fill="url(#color-13)" stroke-width="1"/><path d="M348.6205,81.17992h-52.3765v-1.10654h52.3765z" fill="url(#color-14)" stroke-width="1"/><path d="M296.244,82.83974h52.3765v1.10654h-52.3765z" fill="url(#color-15)" stroke-width="1"/><path d="M296.244,92.79865h52.3765v1.10654c-0.96202,0.55397 -2.09162,0.74224 -3.18132,0.53022h-46.10608c-1.08349,0 -2.3053,0.25358 -3.18132,-0.53022z" fill="url(#color-16)" stroke-width="1"/><path d="M296.244,93.9052h52.3765v1.10655h-52.3765z" fill="url(#color-17)" stroke-width="1"/><g><path d="M371.97418,216.14763l0.17902,-0.26878c-0.26836,-0.28857 -0.5413,-0.57154 -0.80334,-0.86541l-0.0071,0.01243l-0.30222,-0.1727c-0.10232,-0.05598 -0.17171,-0.16463 -0.17171,-0.28949c0,-0.18212 0.14764,-0.32976 0.32976,-0.32976c0.01564,0 0.03101,0.00109 0.04606,0.00319l0.33123,0.0414c0.50211,-0.00107 0.99508,-0.01711 1.4951,-0.04409c0.22372,-0.01207 0.31168,0.05984 0.49288,-0.07571c0.34163,-0.25559 0.58507,-0.69055 0.76928,-1.06154c0,0 0.14747,-0.29494 0.44242,-0.14747c0.29494,0.14747 0.14747,0.44242 0.14747,0.44242c-0.22975,0.45674 -0.54807,1.02015 -0.98943,1.31272c-0.38356,0.25426 -0.41453,0.16212 -0.82615,0.1881c-0.31599,0.01994 -0.62915,0.03204 -0.94333,0.03835c0.34761,0.35175 0.68036,0.7113 1.00108,1.09031c0.25071,0.29628 0.558,0.59305 0.74266,0.93717c0.32982,0.61461 0.3525,1.26518 0.38996,1.9395c0.02352,0.42342 0.04417,0.8188 0.01564,1.21886c-0.19412,0.03245 -0.34207,0.20124 -0.34207,0.40458c0,0.02462 0.00217,0.04872 0.00632,0.07214c-0.00286,0.00267 -0.00568,0.00538 -0.00846,0.00813c-0.06093,-0.03585 -0.13193,-0.05642 -0.20774,-0.05642c-0.17168,0 -0.31872,0.10546 -0.37988,0.25513c-0.11265,-0.05139 -0.21695,-0.11675 -0.30576,-0.20007c-0.08405,-0.07887 -0.10665,-0.21159 -0.19514,-0.28545c-0.15027,-0.12543 -0.56284,-0.1615 -0.71155,-0.2006c-0.71397,-0.18771 -1.39267,-0.36944 -1.88344,-0.943l-0.21984,-0.26381c0,0 -0.21111,-0.25333 0.04222,-0.46443c0.19579,-0.16316 0.36636,-0.0489 0.43374,0.01142c0.71118,-0.62141 0.94245,-1.52308 1.43231,-2.30713z" fill="#ff623c" stroke-width="0.5"/><path d="M349.2399,216.50878c-0.03688,-0.02826 -0.07143,-0.06906 -0.10032,-0.12684c-0.14747,-0.29494 0.14747,-0.44242 0.14747,-0.44242c0.3873,-0.1935 0.84005,-0.43787 1.25411,-0.56916c0.75529,-0.23949 1.69496,-0.07784 2.48049,-0.12466c0.98683,-0.05882 2.21545,-0.20523 3.1887,0.05677c0.42206,0.11362 0.73755,0.41875 1.05551,0.69713c0.23318,0.581 0.44768,1.19093 0.54089,1.81288c0.12047,0.80377 0.0476,1.6549 0.0476,2.46703c0,0.37933 0.0416,0.80171 -0.00197,1.17915c-0.02842,0.2462 -0.11562,0.48457 -0.13057,0.73196c-0.02518,0.41647 0.03026,0.77569 -0.10455,1.18398c-0.12553,0.38021 -0.37132,0.70627 -0.56926,1.05009c-0.47085,0.56835 -0.97295,1.13597 -1.41498,1.72579c-0.41136,0.54888 -0.72654,1.18351 -1.14795,1.72091c-0.34151,0.4355 -0.77198,0.74955 -1.18808,1.10155c-0.26938,0.22787 -0.56571,0.47945 -0.81536,0.72902c-0.27773,0.27764 -0.21892,0.38508 -0.65651,0.51934c-0.16881,0.05179 -0.35137,0.03544 -0.52706,0.05315c-0.59626,-0.34556 -1.11429,-0.7841 -1.57943,-1.28678c-1.14236,-1.23454 -2.42906,-2.69526 -2.32811,-4.50549c0.03569,-0.64005 0.29707,-1.08496 0.5552,-1.65382c0.20977,-0.48259 0.51817,-0.91338 0.921,-1.2591c0.21263,-0.18248 0.48153,-0.29173 0.69366,-0.47477c0.20459,-0.17654 0.18432,-0.41196 0.26495,-0.65596c0.09653,-0.29213 0.20956,-0.43583 0.24919,-0.72692c0.05408,-0.39724 -0.18143,-0.68865 -0.29475,-1.04693c-0.20333,-0.6429 -0.36835,-1.29505 -0.53327,-1.95451z" fill="#ff3d3c" stroke-width="0.5"/><path d="M348.07573,218.34925c0.12332,-0.10351 0.2956,-0.06044 0.2956,-0.06044l0.40465,0.24809c0.16679,0.45314 0.19694,0.82082 0.19687,1.30292c-0.00003,0.19685 0.02048,0.71971 -0.0775,0.89233c-0.5078,0.89459 -1.57981,0.33855 -2.13589,-0.15683c-0.13171,-0.11733 -0.30592,-0.20456 -0.38643,-0.36151c-0.22182,-0.43244 -0.04352,-1.05911 0.17318,-1.44627c0.08766,-0.15662 0.15028,-0.35231 0.30455,-0.44403c0.14875,-0.08844 0.34437,-0.03692 0.51726,-0.04455c0.23664,-0.01045 0.47522,0.02025 0.7077,0.07028z" fill="#ff3d3c" stroke-width="0.5"/><path d="M359.34427,224.8484c0.0265,0.00857 0.04255,0.01659 0.04255,0.01659l0.07036,0.03582c0.33177,0.1471 0.66112,0.16231 1.00421,0.29069c0.22007,0.02591 1.1694,0.06848 1.25164,0.22659c0.11181,0.21495 -0.04116,0.49826 -0.16109,0.70879c-0.07308,0.12828 -0.25293,0.15254 -0.37602,0.23407c-0.40555,0.26862 -0.87924,0.6214 -1.19768,0.98632c-0.37274,0.42716 -0.32109,1.14913 -0.85764,1.46839c-0.18638,0.1109 -0.41648,0.23973 -0.62512,0.1805c-0.96859,-0.27497 -0.14775,-1.20885 -0.31119,-1.7475c-0.00583,-0.01922 -0.02534,-0.0192 -0.04869,-0.01461l0.00148,0.01183l-0.34658,0.04333c-0.01505,0.0021 -0.03044,0.00319 -0.04607,0.00319c-0.18212,0 -0.32976,-0.14764 -0.32976,-0.32976c0,-0.07287 0.02363,-0.14021 0.06366,-0.19479l0.21761,-0.30465l0.00303,0.00217l0.00429,-0.01202c0.4205,-0.50523 0.78696,-1.02269 1.18785,-1.5398c0,0 0.19749,-0.25392 0.45315,-0.06511z" fill="#ff3d3c" stroke-width="0.5"/><path d="M371.20919,227.53255l0.0467,0.03227c0.206,0.21171 0.56226,0.48828 0.48824,0.85631c-0.04394,0.21847 -0.2525,0.36884 -0.40149,0.53455c-0.39877,0.44353 -1.05002,0.77154 -1.66129,0.61628c-0.17156,-0.04357 -0.35414,-0.10269 -0.47996,-0.22719c-0.11277,-0.11158 -0.11735,-0.29535 -0.1904,-0.43617c-0.16807,-0.32397 -0.55359,-0.78837 -0.46089,-1.21648c-0.43245,0.05907 -0.8826,0.04019 -1.31253,0.03643c-1.11484,-0.32618 -2.26223,-0.65602 -3.42557,-0.65602c-0.17005,0 -0.34018,-0.00545 -0.51022,-0.00548c0.03019,0.05738 0.05624,0.12058 0.07732,0.19228c0.11942,0.40611 0.06885,0.95149 0.05918,1.37406c-0.00355,0.15476 0.03439,0.31895 -0.0197,0.464c-0.05657,0.15175 -0.18536,0.26714 -0.29673,0.38472c-0.36912,0.38968 -0.8623,0.43985 -1.29196,0.7075c-0.47937,0.29862 -0.95444,0.61209 -1.54679,0.66255c-0.16501,0.01405 -0.34735,0.0539 -0.49649,-0.01809c-0.72247,-0.34873 -0.44708,-0.52851 -0.26501,-1.12778c0.37968,-0.53704 0.70008,-1.11322 1.07317,-1.65592c0.06683,-0.09722 0.43783,-0.67363 0.53394,-0.76082c0.18105,-0.16425 0.45145,-0.19607 0.65177,-0.33618c0.19416,-0.1358 0.36132,-0.31053 0.56263,-0.43482c0.00376,-0.06264 0.01325,-0.1239 0.02792,-0.1812c0.04518,-0.17638 0.30129,-0.20658 0.43578,-0.3293c0.10322,-0.09419 0.18175,-0.2123 0.27337,-0.31781c0.49621,-0.5714 0.9585,-1.19628 1.54534,-1.67796c0.82595,-1.17557 1.73096,-2.26969 2.56747,-3.4408c0.58689,-0.82166 1.1155,-1.81303 1.99534,-2.337l0.17744,-0.14706c0,0 0.2575,-0.206 0.4635,0.0515c0.14144,0.1768 0.06437,0.32931 0.00218,0.40755c0.24249,0.13134 0.47803,0.27354 0.73686,0.36957c0.23523,0.08728 0.53978,0.15817 0.7586,0.29088c0.57832,0.35075 1.12581,0.78886 1.70749,1.13884c0.2605,0.15674 0.36797,0.10254 0.56678,0.23229c-0.1469,0.06242 -0.24991,0.20803 -0.24991,0.3777c0,0.14942 0.07989,0.28019 0.19929,0.3519c0.01914,0.07335 0.05808,0.1387 0.11075,0.19001c0.01977,0.01926 0.04149,0.03654 0.06481,0.05152c0.03321,0.05171 0.07771,0.09546 0.13001,0.12779c-0.00576,0.02739 -0.00879,0.05578 -0.00879,0.08488c0,0.11033 0.04356,0.2105 0.11442,0.28422c-0.25219,0.40836 -0.77785,0.66594 -1.21971,0.88364c-1.29949,1.09708 -1.46556,3.08427 -2.71778,4.12928c0.30139,-0.02833 0.60433,-0.00727 0.93805,0.06533c0,0 0.3219,0.07153 0.25037,0.39344c-0.00111,0.00501 -0.00229,0.00993 -0.00352,0.01476z" fill="#ff3d3c" stroke-width="0.5"/><path d="M368.145,218.03499c0.21495,0.22939 -0.01083,0.45517 -0.01083,0.45517l-0.21984,0.21984c-0.31746,0.31719 -0.53596,0.65949 -0.82007,0.99486c-0.40128,0.47367 -0.92141,0.81408 -1.30946,1.30755c-0.36566,0.465 -0.66935,0.96608 -1.06252,1.41582c-0.62738,0.7515 -1.48994,1.25834 -2.10506,2.01602c-0.26328,0.3243 -0.51533,0.82207 -1.03983,0.8157c-0.188,-0.00228 -0.21832,-0.30626 -0.33289,-0.45533c-0.1552,-0.20192 -0.32114,-0.41215 -0.38886,-0.65764c-0.34076,-1.23517 0.11087,-2.36504 0.89787,-3.28481c0.81392,-0.47784 1.1328,-1.122 1.72526,-1.81433c0.06802,-0.07947 0.18177,-0.11292 0.24468,-0.19649c0.05958,-0.07915 0.0595,-0.19103 0.11083,-0.27577c0.32873,-0.54271 1.13863,-1.38124 1.82435,-1.39581c0.31956,-0.00679 0.60952,0.1937 0.91877,0.27452c0.43682,0.11416 0.86767,0.1638 1.30719,0.26094c0,0 0.27166,0.06037 0.2604,0.31975z" fill="#ff3d3c" stroke-width="0.5"/><path d="M360.6824,217.47448c-0.0942,-0.02352 -0.20492,-0.09011 -0.23062,-0.27005c-0.04663,-0.32644 0.27981,-0.37308 0.27981,-0.37308c0.2182,-0.03088 1.11024,-0.23836 1.29914,0.07299c0.11787,0.19427 -0.25557,0.77706 -0.36741,0.97102l-0.02625,0.01859l0.00707,0.00606l-0.26241,0.30615c-0.06049,0.07143 -0.15083,0.11678 -0.25177,0.11678c-0.16209,0 -0.29687,-0.11695 -0.32455,-0.27108l-0.08674,-0.43369z" fill="#ff3d3c" stroke-width="0.5"/><path d="M357.16414,223.5594c0.06157,-0.22413 0.31649,-0.22413 0.31649,-0.22413l0.19144,0.03481c0.23778,0.119 0.51257,0.17801 0.71881,0.34584c0.10774,0.08768 0.15376,0.23303 0.24895,0.33421c0.13109,0.13935 0.36406,0.20313 0.42663,0.38393c0.11288,0.3262 -0.19189,0.76545 -0.33124,1.01966c-0.18905,0.33084 -0.38425,0.66028 -0.56369,0.99637c-0.07096,0.13291 -0.08364,0.31255 -0.2038,0.40344c-0.17455,0.13205 -0.40079,0.20207 -0.61899,0.219c-0.19418,0.01507 -0.58078,-0.3247 -0.74685,-0.04477c-0.24161,0.40727 -0.27254,0.90859 -0.58327,1.28984c-0.59896,0.73491 -1.22353,1.28206 -2.08314,1.70959c-0.2766,0.13757 -1.03975,0.52501 -1.36774,0.42187c-0.23789,-0.07481 -0.34474,-0.36041 -0.51712,-0.54061c0.27389,-0.34396 0.5415,-0.71357 0.8256,-1.04854c0.52228,-0.61581 1.18977,-1.14601 1.64861,-1.8173c0.33397,-0.4886 0.70499,-0.91461 1.06909,-1.38214c0.54134,-0.69511 0.93575,-1.46343 1.56562,-2.09672c0,0 0.00158,-0.00158 0.00462,-0.00435z" fill="#ff9152" stroke-width="0.25"/><path d="M366.34072,210.72813c-0.09449,-0.19265 -0.08214,-0.43823 -0.01944,-0.64345c0.04745,-0.15533 0.21902,-0.23992 0.32651,-0.36167c0.34718,-0.39323 0.9153,-1.14281 1.54799,-0.9189c0.17759,0.06285 0.26878,0.26423 0.39675,0.40249c0.15941,0.17222 0.35633,0.311 0.49619,0.49945c0.15609,0.21029 0.22111,0.4749 0.33832,0.7091l0.01988,-0.03897c0,0 0.24646,0.16431 0.11648,0.41506c0.01408,0.01278 0.02806,0.02735 0.04187,0.04392c0.21111,0.25333 -0.04222,0.46443 -0.04222,0.46443c-0.87209,0.72381 -1.47892,1.71884 -2.37903,2.42213c-0.72428,0.56591 -1.35124,1.091 -1.86893,1.8638c-0.56436,0.84247 -0.72402,1.88534 -1.30852,2.70965c-0.50009,1.00018 -1.2679,1.79215 -2.01911,2.60409c-0.19587,0.21171 -0.52831,0.72168 -0.90239,0.62113c-0.46629,-0.12535 -0.37088,-0.86901 -0.3728,-1.15295c-0.00522,-0.76623 -0.22071,-1.72522 0.06774,-2.45324c0.17463,-0.44073 0.54667,-0.65694 0.653,-1.1255c0.14157,-0.33302 0.26324,-0.74608 0.498,-1.02812c0.59369,-0.71329 1.53579,-1.10625 2.10258,-1.83674c0.71791,-0.92526 1.05654,-2.13543 2.17044,-2.72729c0.16291,-0.08656 0.33982,-0.14078 0.51746,-0.1937c-0.17115,-0.083 -0.33461,-0.18062 -0.38076,-0.27472z" fill="#ff9152" stroke-width="0.5"/><path d="M363.21367,223.11945c-0.21105,-0.35175 0.1407,-0.5628 0.1407,-0.5628l0.1912,-0.11432c1.32161,-0.72071 2.26562,-1.95105 3.14423,-3.15873c0.47622,-0.71343 1.02645,-1.13971 1.65306,-1.69646c0.35606,-0.31637 0.63891,-0.72884 0.98264,-1.05384c0.08226,-0.07778 0.16796,-0.15236 0.25569,-0.22515c0.02452,-0.03404 0.04897,-0.06814 0.07332,-0.1023c-0.10478,-0.08494 -0.20759,-0.19926 -0.30801,-0.34798c-0.10168,-0.15058 -0.09047,-1.09855 -0.0808,-1.23894c0.08269,-1.2013 1.45803,-2.83497 2.82679,-2.17321c0.08347,0.04036 0.15583,0.09357 0.21924,0.15606c0.25548,-0.3345 0.45314,-0.68629 0.76413,-0.99729c0.19412,-0.19412 0.65498,-0.73605 0.92965,-0.78611c0.80987,-0.14759 1.06223,0.48205 0.99431,1.1432c-0.06027,0.58669 -0.43168,1.12028 -0.7981,1.5602c-0.17955,0.15068 -0.38598,0.2886 -0.57822,0.43755c0.02312,0.19452 -0.13152,0.34418 -0.13152,0.34418c-0.03893,0.03768 -0.07764,0.07546 -0.11614,0.11335l-0.15091,0.21559l-0.01367,-0.00957l-0.0088,0.03878c-0.03596,0.03579 -0.10492,0.10481 -0.191,0.19061c-0.03502,0.05752 -0.07309,0.11408 -0.11362,0.1696c-0.0257,0.06898 -0.0696,0.12978 -0.13987,0.17684c-0.04263,0.0501 -0.08691,0.09917 -0.13235,0.14715c-0.07777,0.10416 -0.17783,0.20414 -0.30576,0.29987c-0.00881,0.00659 -0.01771,0.01312 -0.0267,0.01957c-0.0312,0.4603 -0.42926,0.96883 -0.64785,1.28485c-0.97461,1.40906 -2.2164,2.44313 -3.52195,3.52888c-0.57749,0.57546 -1.20604,1.07604 -1.72252,1.71986c-0.57525,0.7171 -0.72779,1.67252 -1.26506,2.40491c-0.17446,0.23782 -0.44278,0.3946 -0.62421,0.62716c-0.08029,0.10292 -0.09264,0.24901 -0.17484,0.35041c-0.26302,0.32446 -0.66044,0.51849 -0.92864,0.8421c-0.29673,0.35803 -0.53739,0.73263 -0.90181,1.03612c-0.26799,0.32197 -0.5856,0.63824 -0.95411,0.84746c-0.42747,0.24269 -0.79347,0.37459 -1.15798,0.737c-0.37206,0.36993 -0.5245,0.96501 -1.11276,1.10353c-0.1507,0.03549 -0.97567,-0.38679 -1.0221,-0.45514c-0.14801,-0.21788 -0.03189,-0.77836 0.05845,-1.00612c0.35241,-0.88844 1.29867,-1.27495 1.82405,-1.99313c0.95568,-0.82655 1.82041,-1.7759 2.63343,-2.72095c0.19758,-0.22967 0.37287,-0.47663 0.54728,-0.72494c-0.03852,-0.03055 -0.07547,-0.07214 -0.1089,-0.12784zM371.70757,213.17025c-0.22959,-0.10631 -0.52946,0.04407 -0.71213,0.14245c-0.55924,0.30119 -0.87952,0.73048 -0.91091,1.35722c-0.00066,0.01309 -0.06629,0.49069 -0.00507,0.76389l0.30784,-0.25187c-0.05943,-0.32913 0.01556,-0.63889 0.17066,-0.90961c0.10737,-0.3767 0.38002,-0.78317 0.75374,-0.73951c0.03437,-0.02029 0.06906,-0.03956 0.10394,-0.05778c0.02632,-0.01375 0.05615,-0.02959 0.08898,-0.04683c0.08569,-0.07461 0.17087,-0.15079 0.25377,-0.22817c-0.0156,-0.01132 -0.03249,-0.02131 -0.05083,-0.02979z" fill="#ff9152" stroke-width="0.5"/><path d="M369.27188,210.44982l0.02715,-0.06206c-0.22183,0.47158 -0.49167,0.58745 -0.87837,0.91127c0,0 -0.26507,0.2209 -0.48597,-0.04418c-0.096,-0.1152 -0.10021,-0.22206 -0.07429,-0.30606c-0.45361,-0.18605 -0.95389,-0.42265 -1.413,-0.49358c-1.27415,-0.19684 -2.42715,0.84926 -3.55777,1.2708c-0.49508,0.18458 -1.19079,0.21247 -1.62987,0.5154c-0.33844,0.2335 -0.55511,0.6783 -0.77455,1.00281c-0.26296,0.38885 -0.65753,0.68025 -1.0483,0.94033c-0.19683,-0.09474 -0.42187,-0.14536 -0.5905,-0.28422c-0.10185,-0.08387 -0.36032,-0.64382 -0.42829,-0.77128c-0.32481,-0.60916 -0.62645,-1.22963 -0.92636,-1.85247c-0.09525,-0.19781 -0.11919,-0.43783 -0.26266,-0.60401c-0.12627,-0.14626 -0.52545,-0.07683 -0.62308,-0.07569c-0.29136,0.00338 -0.58276,0 -0.87413,0c-1.24399,0 -2.48338,0.09201 -3.72656,0.09201c-0.16683,-0.00116 -0.63075,-0.06165 -0.76746,0.13158c-0.02907,0.04107 0.09411,-0.05758 0.14336,-0.04726c0.11062,0.02317 0.20411,0.09727 0.30799,0.14179c0.49037,0.21014 0.92981,0.4133 1.37636,0.70252c0.37512,0.24296 0.65013,0.57324 0.99643,0.84992c0.43662,0.34885 0.94386,0.67805 1.31968,1.08689c0.36143,0.3932 0.56956,0.89566 0.93014,1.29898c0,0 0.18057,0.20314 0.0409,0.4091l0.01385,0.00593c0.12686,0.05099 0.21644,0.17518 0.21644,0.32029c0,0.17911 -0.13646,0.32634 -0.31109,0.3434l-0.40993,0.04555l-0.00223,-0.02003c-0.03409,0.00733 -0.06867,0.0126 -0.10383,0.01539c-0.1635,0.01294 -0.2752,-0.18843 -0.43266,-0.23431c-0.19299,-0.05623 -0.90704,0.12163 -0.96715,0.13622c-1.39394,0.33839 -2.65103,0.65693 -4.09907,0.65693c-0.54321,0 -1.28682,0.07908 -1.68896,-0.39743c-0.21542,-0.25526 -0.22604,-0.6312 -0.26566,-0.93833c0.00066,-0.13543 -0.00802,-0.27952 -0.02973,-0.42388c-0.36277,-0.25785 -0.60725,-0.55204 -0.9485,-0.8487c-0.16702,-0.1452 -0.44641,-0.18043 -0.60271,-0.339c-0.00164,-0.00166 -0.00327,-0.00333 -0.00491,-0.00499l-0.0009,0.00145l-0.36299,-0.22687c-0.10021,-0.06037 -0.16725,-0.17025 -0.16725,-0.29577c0,-0.11225 0.0536,-0.21198 0.13661,-0.275c-0.00672,-0.00609 -0.01336,-0.01223 -0.01991,-0.0184c-0.43383,-0.40903 -0.4636,-0.85227 -0.57089,-1.3915c-0.16455,-0.82698 -0.14389,-1.60802 -0.14389,-2.45572c0.00268,-0.86181 0.19685,-1.66427 0.71267,-2.36877c0.16189,-0.2211 0.3919,-0.3834 0.57884,-0.58376c0.64748,-0.69393 1.26177,-1.50053 2.28238,-1.6231c1.01323,-0.12169 1.88618,0.36806 2.89008,0.36599c0,0 0.02818,0 0.06842,0.00805c0.0234,-0.00528 0.03836,-0.00664 0.03836,-0.00664c1.05067,-0.09326 2.17453,-0.39372 3.16487,0.1931c0.30634,0.18152 0.41197,0.74202 0.7735,0.8292c0.34009,0.08201 0.82085,-0.24507 1.16563,-0.28592c0.9453,-0.112 1.87916,-0.32267 2.84043,-0.32373c0.41003,0.00224 0.76752,-0.11263 1.17474,-0.13736c0.1449,-0.0088 0.29091,-0.0136 0.4355,-0.00066c0.07585,0.00678 0.17295,0.11872 0.22061,0.05932c0.21229,-0.26452 0.17154,-0.69262 0.4145,-0.92928c0.5098,-0.49658 1.15332,-0.38588 1.78762,-0.41789c0.1907,-0.00962 0.84567,-0.11005 1.03235,-0.01552c0.19032,0.09637 0.3031,0.30073 0.44409,0.46084c0.32248,0.36617 0.7579,0.89012 0.93568,1.35104c0.04803,0.12452 -0.01054,0.79504 0.18323,0.88099c0.11843,0.05253 0.25646,0.03693 0.3847,0.0554c1.24164,0.62138 1.72268,1.90934 2.1894,3.14966l0.13802,0.36805c0,0 0.09024,0.24064 -0.09272,0.38444c-0.03209,0.07243 -0.07839,0.11873 -0.07839,0.11873zM351.63013,215.42075c-0.19689,0.03204 -0.38783,0.07358 -0.56995,0.1261c0.15049,0.00797 0.29484,-0.00662 0.40955,-0.0511c0.05465,-0.02118 0.10785,-0.04705 0.16039,-0.07499zM348.67819,213.83289c0.08318,0.15282 0.14836,0.31629 0.1972,0.48534c0.00648,0.00338 0.01296,0.00675 0.01944,0.01011c-0.01352,-0.17567 0.02863,-0.32367 -0.14231,-0.44919c-0.02372,-0.01742 -0.04858,-0.03267 -0.07433,-0.04625zM349.08538,215.20237c-0.03101,-0.01592 -0.06233,-0.03135 -0.09384,-0.04647c0.00816,0.07194 0.03781,0.45149 0.10207,0.53113c0.01115,0.01382 0.02355,0.02661 0.0371,0.03845c-0.0137,-0.03882 -0.02673,-0.07706 -0.03976,-0.11347c-0.04603,-0.12865 -0.00846,-0.27165 -0.00556,-0.40964z" fill="#ff623c" stroke-width="0.5"/><path d="M368.78832,217.74151c-0.02542,-0.00635 -0.04831,-0.01423 -0.06893,-0.02333c-0.00622,0.04607 -0.0245,0.09635 -0.06036,0.15014c-0.18291,0.27438 -0.45729,0.09146 -0.45729,0.09146l-0.02973,-0.02077c-0.14287,0.01905 -0.30348,-0.08475 -0.4537,-0.10366c-0.4899,-0.06166 -0.91379,-0.15286 -1.38294,-0.31151c-0.18978,-0.02035 -0.3782,-0.02958 -0.56676,-0.03365c-0.24159,0.19557 -0.44454,0.45102 -0.73745,0.50238c-0.24232,0.04249 -0.56757,0.11517 -0.73518,-0.06492c-0.14427,-0.155 0.04243,-0.42246 0.08938,-0.62894c0.06321,-0.27803 0.19683,-0.52898 0.35273,-0.76463c-0.00082,-0.00153 -0.00165,-0.00308 -0.00247,-0.00462c-0.094,-0.17759 0.07031,-0.39927 0.14944,-0.58397c0.06374,-0.1488 0.44331,-0.64088 0.55147,-0.78517c0.30577,-0.4256 0.70073,-0.99186 1.14901,-1.27352c0.94115,-0.59132 2.55034,-0.6628 2.79512,-2.0275c0.08664,-0.48303 -0.00673,-1.06993 -0.00673,-1.56051c0,0 0,-0.24048 0.20535,-0.31072c0.02498,-0.0518 0.05382,-0.08424 0.05382,-0.08424c0.73598,-0.8114 1.71765,-1.08707 2.7693,-1.28195c0.49057,-0.09091 1.01464,-0.28862 1.46216,0.05463c0.60107,0.46102 0.79841,1.16068 0.95353,1.85851l0.00785,0.11551c0,0 0,0.32976 -0.32976,0.32976c-0.0602,0 -0.10941,-0.01099 -0.14963,-0.02896c-0.43288,0.26214 -0.92976,0.47922 -1.33297,0.76142c-0.21986,0.15387 -0.38489,0.37449 -0.58784,0.55005c-0.55755,0.48233 -1.16477,1.106 -1.51065,1.75785c-0.44722,0.84284 -0.80398,1.74189 -1.23667,2.60371c-0.13915,0.19585 -0.27961,0.39079 -0.4228,0.58371l-0.0674,0.29347c0,0 -0.07998,0.31991 -0.39989,0.23993z" fill="#ff623c" stroke-width="0.5"/><path d="M359.07826,212.86142l0.15234,0.04197c0.18892,0.1645 0.32724,0.3822 0.45767,0.59606c0.03866,0.0634 0.10468,0.10552 0.15322,0.16172c0.01987,0.02301 0.03649,0.10175 0.05148,0.0753c0.03873,-0.06835 0.00101,-0.16318 0.03769,-0.23265c0.12514,-0.23699 0.33507,-0.41847 0.49582,-0.63291c0.50618,-0.67277 0.82831,-1.4717 1.51322,-1.99774c0.96818,-0.74362 2.56021,-1.10214 3.7534,-0.80674c0.29658,0.07342 0.55202,0.26886 0.84534,0.35435c0.31783,0.09263 0.46271,-0.04213 0.76545,0.20007c0.00988,0.00791 0.01963,0.01594 0.02925,0.0241l0.00333,-0.00499l0.39146,0.26097c0.09092,0.05872 0.1511,0.16094 0.1511,0.27722c0,0.16976 -0.12828,0.30956 -0.2932,0.32776l-0.3474,0.04342l-0.00009,-0.00073l-0.00215,0.001c-0.23016,0.02557 -0.46935,0.00752 -0.69055,0.07606c-0.58752,0.18204 -1.05925,0.68544 -1.50413,1.07477c-0.69446,0.60774 -1.30098,1.2073 -1.90121,1.90052c-0.03683,0.04254 -0.46615,0.44544 -0.54319,0.57658c-0.23844,0.40588 -0.47591,0.8214 -0.70681,1.23633c-0.16354,0.21818 -0.28754,0.46453 -0.45429,0.68027c-0.14225,0.18403 -0.38756,0.28286 -0.50061,0.48613c-0.06336,0.11394 -0.05377,0.46165 -0.04753,0.57507c0.02515,0.45706 0.08614,0.89191 0.13022,1.34072c0.02683,0.27318 -0.04825,0.553 -0.00152,0.82349c0.07819,0.45261 0.24267,0.90843 0.30777,1.363c0.02321,0.16209 -0.01588,0.32837 0.00103,0.49124c0.0903,0.86983 0.33739,1.72823 0.52591,2.58212c-0.02887,0.25262 0.10335,0.58884 -0.0866,0.75786c-0.24698,0.21976 -0.7322,-0.17307 -0.95071,-0.27519c-0.56267,-0.26296 -1.16259,-0.42211 -1.75473,-0.59743c-0.35387,-0.10478 -0.46986,-0.06916 -0.77609,-0.32516c-1.29762,-1.08477 -0.87889,-2.87095 -1.17258,-4.33943c-0.05704,-0.56549 -0.08516,-1.1724 -0.21303,-1.7252c-0.05379,-0.23255 -0.21089,-0.43271 -0.2652,-0.66514c-0.08094,-0.34637 0.02031,-0.72212 -0.11717,-1.05294c-0.18999,-0.45718 -0.54494,-0.85167 -0.77132,-1.27763c-0.08241,-0.15505 -0.10391,-0.33704 -0.18179,-0.4944c-0.10675,-0.21569 -0.28855,-0.38556 -0.42199,-0.58583c-0.06294,-0.09446 -0.37621,-0.5952 -0.42464,-0.7128c-0.05279,-0.12821 -0.04582,-0.27875 -0.11196,-0.4006c-0.09888,-0.18217 -0.29941,-0.28679 -0.44467,-0.43465c-0.50019,-0.28304 -0.87557,-0.73915 -1.36776,-1.02948c-0.55907,-0.32978 -1.28586,-0.40847 -1.88942,-0.63856c-0.27373,-0.10435 -0.73777,-0.22434 -0.82041,-0.58353c-0.09836,-0.42749 0.29836,-0.68527 0.54572,-0.89892c0.90694,-0.78331 2.06929,-0.78287 3.20442,-0.78287c0.09751,0 0.82039,-0.00303 0.87606,0.01105c0.7385,0.1868 1.25893,0.93771 1.83164,1.37673c0.51094,0.39168 1.13589,0.72403 1.51651,1.25475c0.17469,0.24359 0.34718,0.55286 0.44179,0.8376c0.03639,0.10952 0.01433,0.23602 0.06382,0.34027c0.06186,0.13028 0.4222,0.29855 0.51714,0.34703z" fill="#eaeaea" stroke-width="0.5"/><path d="M368.80105,211.89296c0.10675,-0.17295 0.20644,-0.35351 0.29604,-0.54647c0,0 0.13945,-0.29882 0.43827,-0.15937c0.29882,0.13945 0.15937,0.43827 0.15937,0.43827c-0.39713,0.84705 -0.96394,1.48652 -1.50538,2.23637l-0.0362,0.01652l0.00897,0.01025l-0.35054,0.30672c-0.05816,0.05143 -0.13461,0.08264 -0.21835,0.08264c-0.18212,0 -0.32976,-0.14764 -0.32976,-0.32976c0,-0.04344 0.0084,-0.08492 0.02366,-0.1229l0.12923,-0.34462l0.00192,0.00072c0.00091,-0.00422 0.00185,-0.00844 0.00282,-0.01265c0.11872,-0.51561 0.50641,-0.85074 0.77184,-1.27816l0.22233,-0.23427c0,0 0.18234,-0.18234 0.38577,-0.06329z" fill="#ff623c" stroke-width="0.5"/><path d="M361.03936,218.00248c-0.31707,-0.09059 -0.22648,-0.40767 -0.22648,-0.40767l0.11869,-0.38079c0.19237,-0.33099 0.43649,-0.65311 0.7215,-0.91348c0.3243,-0.29626 0.69813,-0.44931 0.97836,-0.80003c0.33643,-0.42107 0.42317,-0.88937 0.67138,-1.35883c0.12959,-0.24512 0.30639,-0.46289 0.44075,-0.70543c0,0 0.16015,-0.28826 0.4484,-0.12812c0.28826,0.16015 0.12812,0.4484 0.12812,0.4484c-0.1342,0.24093 -0.30942,0.45789 -0.43861,0.70154c-0.26855,0.50651 -0.36721,0.9951 -0.73559,1.4551c-0.50072,0.62528 -1.23937,0.90838 -1.64169,1.62804l-0.05718,0.23476c0,0 -0.09059,0.31707 -0.40767,0.22648z" fill="#ff623c" stroke-width="0.5"/><path d="M369.84943,219.48177c-0.2575,-0.206 -0.0515,-0.46349 -0.0515,-0.46349l0.13027,-0.14374c0.09889,-0.2251 0.22772,-0.43994 0.38398,-0.62977c0.31167,-0.53257 0.81741,-0.95879 1.19324,-1.45944c0.46963,-0.62561 0.91207,-1.26251 1.41987,-1.86292c0.24937,-0.29485 0.49047,-0.62289 0.78616,-0.87414c0.24941,-0.21193 0.52111,-0.40832 0.6627,-0.7252c0.19801,-0.44312 0.144,-0.97245 0.144,-1.44141c0.00085,-0.44151 -0.01759,-0.81145 -0.17639,-1.1994c-0.02136,-0.05218 0.02819,-0.13721 -0.01899,-0.16808c-0.03751,-0.02455 -0.06213,0.06567 -0.09937,0.09062c-0.06948,0.04655 -0.1558,0.06772 -0.21889,0.12261c-0.17195,0.1496 -0.31848,0.34419 -0.45998,0.53917c0.16974,0.25978 -0.08779,0.44373 -0.08779,0.44373c-0.16786,0.11873 -0.33959,0.221 -0.51003,0.324c-0.55098,0.69626 -1.04301,1.39788 -1.50916,2.17115c-0.20082,0.33314 -0.3143,0.74808 -0.61917,0.98934c-0.06235,0.09491 -0.12819,0.18809 -0.19833,0.27919l-0.00559,0.00257l0.00207,0.00172l-0.21822,0.26187c-0.06048,0.07362 -0.15222,0.12059 -0.25494,0.12059c-0.06571,0 -0.12693,-0.01922 -0.17834,-0.05234l-0.18047,0.15039c-0.05743,0.04855 -0.13168,0.07782 -0.21277,0.07782c-0.18212,0 -0.32976,-0.14764 -0.32976,-0.32976c0,-0.05539 0.01365,-0.10758 0.03778,-0.15341l0.20107,-0.40214c0.09464,-0.52311 0.21144,-0.93121 0.6129,-1.31191c0.12194,-0.11563 0.26588,-0.20602 0.40196,-0.30527c0.25509,-0.45465 0.5506,-0.87566 0.911,-1.3074l0.16188,-0.28328c0.05598,-0.10232 0.16463,-0.17171 0.28949,-0.17171c0.07202,0 0.13864,0.02309 0.19287,0.06226c0.13379,-0.09845 0.272,-0.1858 0.41132,-0.27093c0.18063,-0.22855 0.36346,-0.45511 0.5466,-0.68048c0.31979,-0.3935 0.92953,-1.22368 1.57273,-0.97501c0.17337,0.06703 0.23161,0.29152 0.33276,0.44747c0.29155,0.44955 0.26239,1.00348 0.26329,1.52661c0,0.58016 0.03458,1.17692 -0.20774,1.72427c-0.23137,0.52261 -0.70243,0.78107 -1.06565,1.18014c-0.68482,0.75243 -1.26279,1.58298 -1.86936,2.39245c-0.36718,0.49 -0.8892,0.91696 -1.18102,1.44243c-0.13008,0.15397 -0.24234,0.32719 -0.31951,0.5134l-0.22146,0.29594c0,0 -0.206,0.2575 -0.4635,0.0515z" fill="#ff623c" stroke-width="0.5"/><path d="M367.89237,204.15016c-0.11278,0.21285 -0.30266,0.41376 -0.53116,0.48997c-0.17708,0.05906 -0.3615,-0.09401 -0.54442,-0.13125c-0.36774,-0.07486 -0.62922,0.00454 -0.84123,-0.44553c-0.31992,-0.67916 0.19131,-1.68107 0.8871,-1.86886c0.36318,-0.09801 0.97987,0.11768 1.31848,0.22902c0,0 0.31284,0.10428 0.20856,0.41712c-0.10428,0.31284 -0.41712,0.20856 -0.41712,0.20856c-0.00187,-0.00064 -0.00376,-0.00128 -0.00564,-0.00192v0.04936c0.00016,0.24854 0.01369,0.88695 -0.07457,1.05352z" fill="#ff623c" stroke-width="0.5"/><path d="M369.54476,201.98447c0.09655,0.02911 0.22487,0.10649 0.22487,0.3122c0,0.32976 -0.32976,0.32976 -0.32976,0.32976c-0.16755,-0.01218 -0.36001,0.05223 -0.50263,-0.03655c-0.05832,-0.0363 -0.13597,-0.11426 -0.2114,-0.21547c-0.07112,-0.02459 -0.14168,-0.04641 -0.20985,-0.05651l0.05186,-0.2049c-0.00471,-0.00992 -0.00931,-0.01989 -0.01378,-0.02992l-0.09898,-0.0165l0.0305,-0.18302c-0.04328,-0.18611 -0.02285,-0.36894 0.12398,-0.49486c0.05983,-0.0756 0.15211,-0.12436 0.2558,-0.12526c0.51222,-0.13911 0.71716,0.32623 0.6794,0.72102z" fill="#ff623c" stroke-width="0.5"/><path d="M368.76477,206.31845c-0.0529,-0.26448 0.1538,-0.3559 0.23082,-0.38042c-0.10958,-0.11103 -0.15495,-0.29821 -0.18653,-0.45333c-0.07747,-0.38058 0.0168,-0.77281 0.37558,-0.89158c0.07434,-0.11232 0.18981,-0.19074 0.36133,-0.20695c0.25714,-0.02431 0.43615,0.30904 0.55966,0.53589c0.11979,0.22001 0.11237,0.46801 0.02038,0.67837c-0.00265,0.01324 -0.00562,0.02641 -0.00889,0.03951c0.0201,0.06772 0.01697,0.15155 -0.03921,0.24985c-0.04503,0.0788 -0.09937,0.12353 -0.15446,0.14696c-0.1153,0.16019 -0.26207,0.30365 -0.40439,0.42641l-0.36627,0.11399c0,0 -0.32335,0.06467 -0.38802,-0.25869z" fill="#ff623c" stroke-width="0.5"/><path d="M346.89612,217.41612c0.05814,0.08118 0.10669,0.21356 -0.00722,0.37301c-0.19167,0.26834 -0.46,0.07667 -0.46,0.07667c-0.02735,-0.02194 -0.05948,-0.04576 -0.09441,-0.07144c-0.10009,0.01005 -0.24506,-0.01287 -0.32479,-0.1989c-0.01572,-0.0367 -0.0251,-0.07085 -0.02945,-0.10254c-0.16596,-0.19045 -0.24212,-0.4289 0.02967,-0.71523c0.19126,-0.20149 0.61537,-0.26469 0.82888,-0.08695c0.18718,0.15582 0.07313,0.46573 0.05731,0.72538z" fill="#ff623c" stroke-width="0.5"/><path d="M352.95194,205.85806c0,-0.50993 0.41339,-0.92332 0.92332,-0.92332c0.50993,0 0.92332,0.41339 0.92332,0.92332c0,0.50993 -0.41339,0.92332 -0.92332,0.92332c-0.50993,0 -0.92332,-0.41338 -0.92332,-0.92332z" fill="#ff963c" stroke-width="0.5"/><path d="M348.69806,205.15458c0,-0.3096 0.25098,-0.56059 0.56059,-0.56059c0.30961,0 0.56059,0.25098 0.56059,0.56059c0,0.3096 -0.25098,0.56059 -0.56059,0.56059c-0.30961,0 -0.56059,-0.25098 -0.56059,-0.56059z" fill="#ff963c" stroke-width="0.5"/><path d="M363.91092,204.80284c0,-0.3096 0.25098,-0.56059 0.56059,-0.56059c0.30961,0 0.56059,0.25098 0.56059,0.56059c0,0.3096 -0.25098,0.56058 -0.56059,0.56058c-0.30961,0 -0.56059,-0.25098 -0.56059,-0.56058z" fill="#ff963c" stroke-width="0.5"/><path d="M371.56174,211.53585c-0.50798,-0.28144 -0.84663,-0.88611 -0.53937,-1.48703c0.11247,-0.21996 0.34727,-0.36794 0.57121,-0.47227c0.53758,-0.25046 0.97696,-0.09472 1.25232,0.26651c0.11992,0.08024 0.29353,0.24711 0.24858,0.52329c0.0137,0.05107 0.02536,0.10346 0.03493,0.15696c0.06186,0.3462 0.00719,1.06699 -0.37666,1.26128c-0.59546,0.3014 -0.98504,0.11591 -1.19101,-0.24875z" fill="#ff963c" stroke-width="0.5"/><path d="M373.47423,217.12592c0.13107,0.0213 0.31456,0.10025 0.34846,0.37151c0.05381,0.43046 -0.37665,0.48426 -0.37665,0.48426c-0.51382,0.04914 -1.03123,-0.01518 -1.15436,-0.62839c-0.04318,-0.21503 -0.13232,-0.48783 0.00613,-0.65792c0.69196,-0.85008 1.10277,-0.16216 1.17641,0.43054z" fill="#ff963c" stroke-width="0.5"/></g><path d="M344.82151,76.80393c0,3.36893 -2.86111,6.1 -6.39048,6.1c-3.52936,0 -6.39048,-2.73107 -6.39048,-6.1c0,-3.36893 2.86111,-6.1 6.39048,-6.1c3.52936,0 6.39048,2.73107 6.39048,6.1z" fill="#f4f4f4" stroke-width="0"/><path d="M348.52315,98.03778c1.72897,0 3.55531,5.5958 3.55531,7.55531c-0.16906,4.51839 -0.16906,9.02909 0,13.53213c0,2.02867 -0.64549,2.30531 -2.48973,2.30531c-4.05093,-0.13082 -8.1059,-0.05387 -12.14895,0.23054c-6.38569,0.50717 -8.7371,3.84986 -7.28476,10.14334c0.76075,3.31964 1.8673,6.54707 2.74331,9.82059c1.95963,6.22284 1.29347,12.976 -1.84425,18.69601c-2.83553,5.04862 -7.49224,7.1695 -11.52652,5.39441c-2.80505,-1.26095 -5.04031,-3.52086 -6.27042,-6.33958c-2.63671,-5.63856 -3.08047,-12.05664 -1.24487,-18.00442c0.94518,-3.36575 2.05172,-6.68538 2.78942,-10.07418c1.26792,-5.80936 -1.1757,-8.96763 -7.10033,-9.65922c-4.21853,-0.31876 -5.05185,-0.39572 -9.27918,-0.23053c-1.56761,0 -2.3053,-0.20747 -2.3053,-2.05172c0.16137,-4.61061 -1.03342,-32.53096 0.46503,-32.53096c0.89234,-0.00445 2.21148,0.00684 3.21789,0.19515c4.73202,0.88541 8.11764,4.66968 13.48395,6.72387c5.31579,2.03486 12.61496,2.34396 16.75045,2.34396c0,0 6.32612,1.32526 11.08259,1.93563c3.67424,0.4715 3.4278,0.01435 7.40636,0.01435z" fill="#000000" stroke-width="1"/><path d="M314.83962,83.9982c-0.09227,0.16154 -0.0519,0.3363 -0.06952,0.51317c-0.05728,0.5748 -0.15515,1.13505 -0.56463,1.60646c-0.13608,-0.16328 -0.21493,-0.2946 -0.21108,-0.46495c-0.0999,-0.10452 0.24542,-0.30126 -0.06332,-0.36617c-0.05303,0.08402 -0.09227,0.16154 -0.16385,0.00993c-0.1952,-0.41347 -0.16205,-0.82518 -0.08105,-1.24264c0.01092,-0.03043 0.02623,-0.10509 -0.08976,-0.10089c-0.06681,0.09053 -0.16118,0.19407 -0.28026,0.33456c-0.37221,-0.87766 0.24686,-1.42273 0.73273,-2.10718c-0.5331,0.20955 -0.80321,0.54774 -1.15217,0.75463c-0.2844,-0.38821 -0.20493,-0.73753 0.11457,-1.14961c-0.24081,0.09683 -0.37499,0.15175 -0.54688,0.21605c0.01419,-0.32693 0.01307,-0.57921 0.0309,-0.91628c-0.85107,0.55348 -1.57103,1.18832 -2.25768,1.85801c-0.33826,0.33666 -0.70981,0.63849 -0.52859,1.21867c0.03827,0.11677 -0.05401,0.2783 -0.09115,0.41382c-0.01819,0.05072 -0.02337,0.12901 -0.13495,0.08899c-0.20289,-0.07275 -0.17609,-0.05169 -0.20463,0.15561c-0.02854,0.2073 0.10313,0.41479 -0.01097,0.63721c-0.187,-0.02127 -0.28614,-0.15985 -0.36863,-0.28102c-0.25396,-0.3773 -0.4295,-0.30286 -0.70248,0.01141c-1.12754,1.32446 -2.04357,2.79346 -2.92267,4.28715c-0.71274,1.22133 -1.3313,2.49933 -1.10271,4.00097c0.06543,0.42417 0.04891,0.85332 0.08027,1.27672c-0.61825,-0.09576 -1.17388,-0.39805 -1.76303,-0.57497c-0.3673,-0.18896 -0.19367,-0.48161 -0.09334,-0.69751c0.59331,-1.36719 0.79959,-2.80448 0.9385,-4.27738c0.0868,-0.97638 0.2896,-1.95696 0.60035,-2.88738c0.49264,-1.43764 0.95847,-2.89635 1.72137,-4.22563c0.26592,-0.45419 0.18917,-0.52751 -0.35598,-0.53981c-0.94385,-0.01789 -1.85096,0.14913 -2.70909,0.56269c-0.21037,0.10774 -0.43893,0.26621 -0.66211,0.18618c-0.35505,-0.12732 -0.66323,-0.0661 -1.00261,0.01828c-0.1472,0.02736 -0.33,0.12209 -0.43851,-0.05421c-0.0955,-0.14873 0.00692,-0.30665 0.06149,-0.45881c0.20294,-0.53402 0.64055,-0.8923 1.01441,-1.29633c0.23737,-0.2469 0.52218,-0.17911 0.75894,0.05462c0.05072,0.01819 0.07674,0.07331 0.14489,0.07486c-0.1847,-0.12348 -0.32806,-0.26648 -0.16897,-0.51855c0.25059,-0.37955 0.76396,-0.47022 1.09776,-0.1559c0.17379,0.15391 0.32652,0.33462 0.48652,0.49504c0.13244,0.17343 0.26851,0.33671 0.48882,0.39282c-0.19638,-0.05898 -0.33322,-0.18819 -0.43523,-0.35071c-0.37417,-0.48909 -0.27804,-0.82099 0.29487,-0.98191c0.25745,-0.07941 0.44502,0.06799 0.63623,0.20525c0.10718,0.08423 0.23675,0.23373 0.3631,0.07296c0.11257,-0.15427 0.0186,-0.37115 0.15222,-0.55221c0.0559,-0.0601 -0.14986,-0.15677 -0.24689,-0.23737c-0.11732,-0.08787 -0.23829,-0.16559 -0.34184,-0.25997c-0.16364,-0.15027 -0.33497,0.04017 -0.50456,0.00225c-0.22758,-0.03581 -0.44426,-0.10206 -0.63546,-0.23932c-0.08326,-0.0871 -0.16651,-0.17419 -0.32308,-0.18454c0.08479,0.01896 0.14566,0.04078 0.19561,0.09304c0.14868,0.51128 -0.22877,0.31868 -0.42228,0.28363c-0.66897,-0.11395 -1.33067,-0.24819 -2.01363,-0.19542c-0.17763,0.01645 -0.36177,0.0191 -0.5124,-0.10361c-0.1307,-0.40178 0.21365,-0.40424 0.43417,-0.50835c0.13782,-0.06507 0.32043,0.00042 0.40465,-0.10677c0.57583,-0.74377 0.9914,-0.88097 1.82324,-0.58268c0.16231,0.0582 0.31734,0.1367 0.52751,0.18917c-0.11005,-0.10816 -0.20058,-0.17497 -0.28097,-0.23814c-0.14412,-0.10892 -0.32596,-0.20849 -0.2597,-0.42516c0.05611,-0.22031 0.25766,-0.23962 0.42878,-0.26984c0.20883,-0.0396 0.42131,-0.08936 0.62077,-0.16667c0.14356,-0.01721 0.23332,0.08367 0.34491,0.12369c0.04708,0.02833 0.08038,0.06317 0.14126,0.085c-0.12747,-0.09151 -0.276,-0.15622 -0.41361,-0.25136c-0.1535,-0.14664 -0.35486,-0.28753 -0.20955,-0.5331c0.08864,-0.1514 0.2655,-0.13377 0.42341,-0.03135c0.02679,0.02105 0.04709,0.02833 0.02967,0.04498c-0.04575,0.06373 0.07178,-0.00861 0.00077,-0.03407c-0.60195,-0.3647 -0.65688,-0.49888 -0.48283,-1.11195c0.07429,-0.27103 0.19987,-0.39773 0.49329,-0.25817c-0.03617,-0.05877 -0.08326,-0.0871 -0.11293,-0.13208c-0.22871,-0.28809 -0.1167,-0.56851 0.02937,-0.84814c0.05667,-0.09417 0.1409,-0.20135 0.25248,-0.16134c0.28404,0.10186 0.38375,0.36659 0.46316,0.62404c0.00574,0.04785 -0.02623,0.10508 0.01435,0.11963c0.02623,-0.10508 -0.03156,-0.26319 0.1497,-0.28978c0.12978,-0.01071 0.18184,0.09955 0.2136,0.20253c0.11118,0.36044 0.1745,0.72662 0.17541,1.13911c0.0249,-0.19716 -0.0082,-0.3922 0.19049,-0.43545c0.18491,-0.03673 0.28328,0.13594 0.37591,0.26074c0.24823,0.32944 0.36514,0.73774 0.61337,1.06718c0.1598,0.32063 0.11363,0.70479 0.35249,0.99652c0.08361,0.37346 -0.0575,0.73502 -0.01369,1.05984c0.21939,-0.35639 0.38596,-0.78896 0.89646,-0.90357c0.16882,0.07199 0.14909,0.19085 0.07787,0.32559c0.13495,-0.08899 0.12501,-0.25284 0.21939,-0.35638c0.38401,-0.4004 1.45344,-0.50921 1.95395,-0.1809c0.14776,0.09879 0.26585,0.15259 0.43985,0.14628c0.3342,-0.00609 0.62476,0.10954 0.90363,0.28969c0.23676,0.23373 0.22276,0.40044 -0.12312,0.47104c-0.37996,0.06983 -0.76355,0.14981 -1.14351,0.21964c0.6533,-0.09775 1.26848,0.13429 1.97228,0.21495c-0.18009,-0.32791 -0.38354,-0.52679 -0.53837,-0.7655c-0.34107,-0.29403 -0.4528,-0.78062 -0.88748,-1.00519c-0.1246,-0.06758 -0.14468,-0.23507 -0.19961,-0.36925c-0.07731,-0.19946 -0.04878,-0.40675 -0.31386,-0.5934c-0.22815,-0.16196 -0.39368,-0.53044 -0.61301,-0.78082c-0.07961,-0.09725 -0.11425,-0.22415 -0.05682,-0.3524c0.0871,-0.08326 0.19946,-0.07731 0.30818,-0.06122c0.82611,0.25044 1.52146,0.70587 2.10425,1.31557c0.30623,0.32734 0.67046,0.65258 0.69299,1.16442c0.00497,0.08192 -0.00385,0.17035 0.00112,0.25228c0.00881,-0.08843 -0.00266,-0.18413 0.00979,-0.28271c0.01082,-1.08377 0.11371,-2.16887 -0.04946,-3.24634c-0.03674,-0.18491 0.00061,-0.48064 0.25786,-0.39983c0.25725,0.0808 0.34379,-0.1286 0.51779,-0.1349c0.07101,0.02546 0.13187,0.04729 0.20288,0.07276c-0.02337,0.12901 -0.08156,0.29132 0.13301,0.29957c0.56907,0.00943 0.55487,0.33637 0.4398,0.75306c-0.07353,0.23696 -0.11662,0.48484 -0.18517,0.80372c0.20771,-0.29188 0.35952,-0.52367 0.53239,-0.78225c0.19541,0.25325 -0.06723,0.41096 0.04856,0.56697c0.8012,0.44759 0.77547,1.2856 0.87589,2.12302c0.6719,-0.4689 1.30245,-0.91826 2.08419,-1.11879c-0.03294,0.25151 -0.27738,0.35848 -0.24219,0.61153c0.4171,-0.20534 0.58772,-0.96849 1.28231,-0.47898c-0.69946,0.48191 -1.45098,0.85356 -1.9535,1.52058c-0.23891,0.31504 -0.46249,0.55543 -0.92053,0.45988c-0.10508,-0.02623 -0.3899,-0.09402 -0.39815,0.12055c-0.00825,0.21457 0.22815,0.16196 0.37821,0.15852c1.4042,0.01123 2.61348,0.50212 3.61409,1.47918c0.39025,0.38037 0.85305,0.71806 0.98354,1.28006c-0.76565,0.0918 -0.66451,-0.76494 -1.18034,-1.01861c0.03653,0.34512 -0.16313,0.58265 -0.40394,0.67948c-0.49539,0.20017 -0.65863,-0.27053 -0.86551,-0.61949c-0.15678,0.14986 -0.09556,0.45804 -0.31663,0.436c-0.24136,-0.02931 -0.09893,-0.29879 -0.16036,-0.44676c-0.01952,-0.04135 -0.03541,-0.09284 -0.05129,-0.14433c-0.04345,-0.03848 -0.01721,-0.14357 -0.11292,-0.13209c-0.01015,-0.00363 -0.02182,0.06087 -0.03274,0.0913c0.10041,0.83743 -0.7052,0.43406 -1.00862,0.73741c0.15769,0.26263 0.44174,0.36449 0.67717,0.50615c0.54836,0.32258 0.99221,0.74507 1.38666,1.24143c0.12594,0.15965 0.23061,0.5063 0.18275,0.51204c-0.73522,0.10271 -0.20371,0.56809 -0.17426,0.77328c0.11133,0.807 0.09749,1.42028 -0.19676,1.92156c-0.10487,-0.18644 -0.20324,-0.35911 -0.29147,-0.52813c-0.1309,-0.24157 -0.20073,-0.62152 -0.40649,-0.71821c-0.60062,-0.27263 -0.89419,-0.85876 -1.3903,-1.23128c-0.06871,-0.12768 -0.06198,-0.27411 -0.03499,-0.41326c-0.04366,0.12174 -0.01993,0.27908 -0.23297,0.20268c-0.19254,-0.22933 -0.36402,-0.48545 -0.71984,-0.5787c0.0769,0.51988 0.31842,0.99575 0.04809,1.49416c-0.09704,-0.0806 -0.19772,-0.15105 -0.31868,-0.22877c-0.00252,0.26243 0.22487,0.45845 0.05928,0.69674c-0.058,0.0021 -0.10298,0.03177 -0.22835,-0.00174z" data-paper-data="{&quot;index&quot;:null}" fill="#040404" stroke-width="1"/></g></g></svg>